<svg width="94" height="142" viewBox="0 0 94 142" fill="none" xmlns="http://www.w3.org/2000/svg">
<path d="M54.228 139.758C54.228 140.709 51.6587 141.566 48.4232 141.566C45.1877 141.566 42.6184 140.804 42.6184 139.758C42.6184 138.806 45.1877 137.95 48.4232 137.95C51.6587 137.95 54.228 138.711 54.228 139.758Z" fill="#E5970F"/>
<path d="M57.9391 1.48945C55.4649 1.01364 52.7052 0.632997 49.7553 0.442676C47.2811 0.347515 44.6166 0.252364 41.7618 0.347524C41.3812 0.347524 40.9054 0.347515 40.5247 0.442676C33.9587 0.823317 27.7732 2.63137 22.2539 5.58135C20.541 6.53295 18.8281 7.57972 17.2104 8.72164C13.975 11.1007 11.1201 13.8603 8.64598 16.9054C3.22184 23.8521 0.081543 32.4166 0.081543 42.0278C0.081543 42.5988 0.0815488 43.1697 0.176709 43.7407C0.46219 46.881 1.31863 50.5922 2.74604 54.7793C3.50732 56.968 4.36376 59.2518 5.31537 61.6308C7.78954 67.6259 10.9298 74.2872 14.3556 80.9484C20.1604 92.1773 26.8216 103.597 32.4361 112.827C33.1022 113.874 33.7683 115.016 34.3393 115.967C35.4812 117.775 36.528 119.488 37.4796 121.011C38.0505 121.963 38.7167 122.914 39.2876 123.866C42.1424 128.433 44.236 131.574 44.9021 132.62C45.0924 132.906 45.1876 133.001 45.1876 133.001C45.1876 133.001 46.7101 134.333 48.7085 134.333C49.7553 134.333 50.8972 134.048 52.0391 133.001C52.0391 133.001 52.0391 132.906 52.1343 132.811C52.1343 132.811 52.2295 132.716 52.2295 132.62C52.2295 132.525 52.3246 132.525 52.3246 132.43C52.7053 131.764 53.0859 131.003 53.5617 130.241C54.4181 128.624 55.3697 126.816 56.3213 124.722C56.4165 124.532 56.5117 124.342 56.6068 124.151C60.2229 116.729 64.41 106.737 68.4067 96.2692C71.6422 87.8951 74.6873 79.0452 77.2566 70.8614C80.8727 59.0615 83.3469 48.4987 83.3469 42.0278C83.4421 22.9957 79.5405 6.05715 57.9391 1.48945ZM56.4165 43.931C56.4165 50.2116 52.5149 55.5406 46.9956 57.6341C45.3779 58.2051 43.665 58.5857 41.857 58.5857C37.2893 58.5857 33.1974 56.4922 30.5329 53.1616C28.5345 50.6874 27.2974 47.4519 27.2974 43.931C27.2974 37.8407 31.0087 32.6069 36.3377 30.4182C38.0505 29.6569 39.9538 29.2763 41.9521 29.2763C43.7602 29.2763 45.4731 29.5618 47.0908 30.2279C52.4198 32.3214 56.4165 37.6504 56.4165 43.931Z" fill="#E6970F"/>
<path d="M57.8437 0.727926C55.9405 0.442445 54.0373 0.34729 52.0389 0.34729C51.2776 0.34729 50.5163 0.347281 49.6599 0.442442C46.4244 0.632763 43.2841 1.20374 40.239 2.06018C34.2439 3.86823 28.7246 6.91335 24.1569 11.0053C19.3989 15.2875 15.5925 20.7116 13.2135 26.8019C12.357 28.8954 11.6909 31.0841 11.2151 33.3679C10.6441 36.1276 10.3586 39.0776 10.3586 42.0275C10.3586 44.692 10.9296 47.9275 11.8812 51.6387C13.4989 57.729 16.3537 65.0564 19.7795 72.7643C24.823 84.1836 31.1988 96.3641 36.9084 106.832C37.9552 108.735 39.0019 110.638 40.0487 112.446C41.1906 114.445 42.2374 116.443 43.2842 118.251C45.6632 122.438 47.7567 125.864 49.2792 128.433C50.9921 131.383 52.0389 133.001 52.0389 133.001C52.0389 133.001 52.0389 132.906 52.1341 132.811C52.1341 132.811 52.2292 132.715 52.2292 132.62C52.2292 132.525 52.3244 132.525 52.3244 132.43C52.6099 131.954 53.0857 131.193 53.6566 130.241C54.3228 129.099 55.1792 127.672 56.226 125.959C56.5115 125.483 56.7969 124.912 57.1776 124.341C58.7953 121.582 60.6985 118.251 62.792 114.635C64.7904 111.114 66.9791 107.212 69.1678 103.025C80.6822 81.8046 93.624 54.9694 93.624 42.0275C93.7192 20.9019 78.1129 3.48758 57.8437 0.727926ZM54.7986 58.3C53.9421 58.4903 52.9905 58.5855 52.1341 58.5855C50.326 58.5855 48.6131 58.2048 46.9954 57.6339C41.4761 55.5403 37.5745 50.2113 37.5745 43.9308C37.5745 37.6502 41.4761 32.3212 46.9954 30.3228C48.6131 29.7519 50.326 29.3712 52.1341 29.3712C55.655 29.3712 58.9856 30.6083 61.4598 32.7018C63.2678 34.2244 64.6952 36.1276 65.5517 38.3163C66.313 40.0292 66.6936 41.9324 66.6936 43.9308C66.6936 44.4066 66.6936 44.8824 66.5985 45.263C66.313 48.1178 65.2662 50.6871 63.6485 52.7807C62.9824 53.7323 62.1259 54.4936 61.2695 55.2548C59.4614 56.7774 57.2727 57.8242 54.7986 58.3Z" fill="#FFAF24"/>
</svg>
