<svg width="21" height="20" viewBox="0 0 21 20" fill="none" xmlns="http://www.w3.org/2000/svg">
<path d="M10.25 20C15.7728 20 20.25 15.5228 20.25 10C20.25 4.47715 15.7728 0 10.25 0C4.72715 0 0.25 4.47715 0.25 10C0.25 15.5228 4.72715 20 10.25 20Z" fill="#5589C9"/>
<path d="M10.1485 10.587C9.68011 10.587 9.302 10.2089 9.302 9.74049V4.60505C9.302 4.13665 9.68011 3.75854 10.1485 3.75854C10.6169 3.75854 10.995 4.13665 10.995 4.60505V9.74049C10.995 10.2089 10.6169 10.587 10.1485 10.587Z" fill="white"/>
<path d="M14.2286 13.8319C13.8956 14.1648 13.3595 14.1648 13.0322 13.8319L9.55025 10.3499C9.2173 10.017 9.2173 9.48084 9.55025 9.15353C9.88321 8.82057 10.4193 8.82057 10.7466 9.15353L14.2286 12.6355C14.5559 12.9628 14.5559 13.4989 14.2286 13.8319Z" fill="white"/>
</svg>
