<svg width="80" height="206" viewBox="0 0 80 206" fill="none" xmlns="http://www.w3.org/2000/svg">
<path d="M41.1727 10.5243C41.1727 10.5243 40.3206 14.3311 39.9229 17.797C39.5253 21.2629 37.5937 26.0925 38.2186 29.5584C38.8435 33.0243 41.0591 37.4561 44.5245 38.5925C47.9899 39.7288 52.1939 39.7288 54.8071 37.8538C57.4204 35.9788 58.7838 33.1379 58.7838 33.1379C58.7838 33.1379 63.215 31.4334 62.1356 26.7175C61.0562 22.0016 57.3068 24.1038 57.0795 26.2061C56.8523 28.3084 56.6819 29.2743 56.6819 29.2743L55.3184 28.7629L56.2842 22.8538C56.2842 22.8538 52.7051 22.4561 55.0344 12.0016C55.0344 12.0016 52.8188 11.6038 51.569 10.5243C51.569 10.5243 47.5923 11.3766 44.9222 10.5243C42.1385 9.67202 41.1727 10.5243 41.1727 10.5243Z" fill="#FFDDBF"/>
<path d="M61.4539 6.71756C61.4539 6.71756 59.7495 0.524383 52.1938 0.638019C44.6381 0.751656 44.0132 2.85393 41.3431 3.64938C38.6163 4.44484 33.5602 7.56983 34.6964 11.4903C35.4349 13.3653 36.5711 12.3426 36.5711 12.3426C36.5711 12.3426 35.8326 15.9221 37.5369 16.1494C39.2412 16.3766 40.3205 15.4107 40.3205 15.4107C40.7182 12.7971 41.2295 10.4676 41.2295 10.4676C41.2295 10.4676 42.1953 9.61529 44.9222 10.4676C47.649 11.3198 51.5689 10.4676 51.5689 10.4676C52.8187 11.6039 55.0343 11.9448 55.0343 11.9448C52.7051 22.4562 56.2841 22.7971 56.2841 22.7971L55.3184 28.7062L56.6818 29.2175C56.6818 29.2175 56.7954 28.2516 57.0795 26.1494C57.3067 24.0471 61.0562 21.9448 62.1356 26.6607C63.215 31.3766 58.7838 33.0812 58.7838 33.0812C58.7838 33.0812 58.4997 33.7062 57.9316 34.5585C57.9316 34.5585 62.4196 35.0698 66.4531 27.9107C70.4298 20.8085 74.0089 7.11529 61.4539 6.71756Z" fill="#2D5284"/>
<path d="M51.5122 10.5242C51.5122 10.5242 53.3869 10.1265 54.4663 8.8197" stroke="#1A262E" stroke-width="0.8701" stroke-miterlimit="10" stroke-linecap="round"/>
<path d="M54.9775 12.0585C54.9775 12.0585 56.6818 13.1948 58.4429 12.0585" stroke="#1A262E" stroke-width="0.8701" stroke-miterlimit="10" stroke-linecap="round"/>
<path d="M23.6753 60.7513C23.6753 60.7513 28.1065 48.99 30.7765 47.7968C33.3898 46.6036 43.9564 43.365 43.9564 43.365L53.1028 44.1036C53.1028 44.1036 67.3053 47.0582 70.2595 49.3877C73.1568 51.7173 79.1218 70.4672 79.1218 70.4672C79.1218 70.4672 73.2136 74.8991 66.4532 74.1036L65.7715 94.8422C65.7715 94.8422 58.7838 94.3309 55.0912 97.1718C51.3985 99.9558 44.979 106.376 31.0038 99.7854C31.0038 99.7854 33.1626 88.0809 33.333 82.4559C33.5034 76.8309 32.8217 68.9332 32.8217 68.9332L31.9696 71.0922C31.9127 71.0922 24.9819 69.7854 23.6753 60.7513Z" fill="#FFAF24"/>
<path d="M43.8995 38.365V43.3082L42.9905 43.8195C42.9905 43.8195 42.0815 47.3423 44.8652 47.6832C47.6489 48.0241 50.4894 46.7173 52.9891 44.0468V38.7059C53.0459 38.7627 49.6941 40.4104 43.8995 38.365Z" fill="#FAC9A0"/>
<path d="M68.4416 149.217C68.6689 143.308 65.6579 94.8423 65.6579 94.8423C65.6579 94.8423 58.6703 94.331 54.9777 97.1719C51.285 99.956 44.8655 106.376 30.8902 99.7855C30.8902 99.7855 24.698 140.808 23.6186 147.513C22.5392 154.16 15.7788 192.229 15.7788 192.229C24.4139 195.183 31.1175 193.024 31.1175 193.024L45.9449 127.74C49.1831 142.342 55.3185 192.229 55.3185 192.229C62.2493 193.933 69.9187 192.229 69.9187 192.229C69.9187 192.229 68.2144 155.126 68.4416 149.217Z" fill="#36C75E"/>
<path d="M18.2785 196.831C18.2785 196.831 13.8473 198.763 9.30251 200.183C4.75771 201.604 1.86042 201.945 1.23551 203.592C0.610597 205.24 7.88227 206.092 20.2668 205.07C22.8801 204.729 24.4708 205.297 24.698 205.354C24.9252 205.41 29.3564 205.354 29.3564 205.354C29.3564 205.354 29.5269 201.49 28.6747 199.615C27.7657 197.74 27.2545 197.058 27.2545 197.058C27.2545 197.058 23.1641 200.297 18.2785 196.831Z" fill="#1A262E"/>
<path d="M18.2783 196.831L18.96 193.081C18.96 193.081 23.2776 194.16 27.936 193.535L27.3111 197.001C27.2543 197.058 24.1297 200.41 18.2783 196.831Z" fill="#FFDDBF"/>
<path d="M59.1815 197.683C59.1815 197.683 58.0453 201.774 58.8975 203.99C59.7496 206.206 78.0424 205.297 77.9856 204.956C77.9288 204.615 78.5537 201.717 74.6338 201.035C70.7139 200.297 68.5552 199.558 67.7598 196.831C67.0781 194.444 59.4656 196.433 59.1815 197.683Z" fill="#1A262E"/>
<path d="M59.3522 197.399L58.8977 192.854C58.8977 192.854 64.5219 193.081 66.8511 192.797L67.1351 196.149C67.1351 196.092 63.9538 194.615 59.3522 197.399Z" fill="#FFDDBF"/>
<path d="M66.3396 74.0468L67.0213 76.0354C67.0213 76.0354 63.9536 82.4559 62.5902 87.1718C61.2267 91.8877 60.0905 97.4558 59.352 99.0468C58.6135 100.638 55.6025 101.49 55.6025 101.49C55.6025 101.49 57.875 109.16 63.7832 111.547C63.7832 111.547 64.6921 105.126 66.0556 101.433C67.4758 97.7399 78.0993 80.8081 79.5763 76.4899C80.3149 74.1604 78.2697 71.0354 78.2697 71.0354C78.2697 71.0354 73.3273 74.4445 66.3396 74.0468Z" fill="#FFDDBF"/>
<path d="M23.7889 61.4332L21.2893 65.6378C21.2893 65.6378 18.676 57.0014 15.8355 52.0582C13.4495 47.9105 12.8246 45.5241 12.6542 44.8423C12.6542 44.8423 13.2223 43.081 14.5289 42.456C15.8355 41.831 15.5515 40.5241 16.6877 37.8537C17.8239 35.1832 18.9033 33.8764 17.7671 33.7628C16.6309 33.5923 14.5289 35.8082 14.0176 37.0014C13.5063 38.2514 8.45022 38.5923 7.02997 36.6605C5.60972 34.7287 5.78016 31.0923 4.98482 29.6719C4.18949 28.2514 3.33732 30.2969 3.33732 31.6037C3.33732 32.9105 3.33732 35.0696 3.33732 35.0696C3.33732 35.0696 2.54199 31.8878 1.4626 30.3537C0.383212 28.8196 0.155973 30.6946 0.610452 33.1378C1.06493 35.4105 1.74666 38.4787 4.41673 40.7514C6.17783 42.2855 6.91636 44.956 7.20041 46.206C7.20041 46.206 7.25721 46.4332 7.31402 46.8878C7.7685 49.5014 9.58642 59.5014 10.7794 64.5014C12.1429 70.2969 16.8581 80.9219 21.6301 81.9446C26.459 82.9105 31.9127 71.2059 31.9127 71.2059C31.9127 71.2059 25.7773 70.24 23.7889 61.4332Z" fill="#FFDDBF"/>
<path d="M32.7081 68.9901C32.7081 68.9901 32.1968 63.081 31.856 59.1038" stroke="#1A262E" stroke-width="0.7613" stroke-miterlimit="10" stroke-linecap="round"/>
<path d="M66.3397 74.0469H64.9195C64.9195 74.0469 61.0564 66.5469 59.9202 60.5242" stroke="#1A262E" stroke-width="0.7613" stroke-miterlimit="10" stroke-linecap="round"/>
<path d="M46.0017 127.683C46.0017 127.683 45.2632 121.036 43.7861 115.922" stroke="#1A262E" stroke-width="0.8701" stroke-miterlimit="10" stroke-linecap="round"/>
<path d="M54.864 99.0469C54.864 99.0469 57.0796 110.297 65.7147 112.172" stroke="#1A262E" stroke-width="0.8701" stroke-miterlimit="10" stroke-linecap="round"/>
</svg>
