<svg width="122" height="61" viewBox="0 0 122 61" fill="none" xmlns="http://www.w3.org/2000/svg">
<path d="M44.0854 28.818C44.777 27.7275 45.783 26.4445 48.1723 26.4445C51.1903 26.4445 53.831 28.818 53.831 33.6292C53.831 37.414 52.1334 41.0063 48.1094 41.0063C45.5944 41.0063 44.7142 39.595 44.3369 38.8894H44.2741V46.2024H40.7531V26.8294H44.1483V28.818H44.0854ZM65.1484 36.131H65.2741L68.4807 26.7652H73.9508V40.5573H70.1784V32.0896C70.1784 31.3198 70.3041 30.4859 70.3041 30.4859H70.1784L66.6574 40.5573H63.7652L60.2442 30.4859H60.1184C60.1184 30.4859 60.2442 31.384 60.2442 32.0896V40.5573H56.4717V26.7652H61.8789L65.1484 36.131ZM37.7351 37.9272V30.4217C37.7351 27.0218 34.0884 26.4445 32.1393 26.4445C29.3728 26.4445 26.5434 26.9577 25.9147 30.7425H29.4985C29.6872 30.0368 30.1902 29.3312 31.6991 29.3312C32.6423 29.3312 34.1513 29.3953 34.1513 30.9349C34.1513 31.5764 33.5854 32.0254 32.0135 32.1537C28.4297 32.4745 25.4117 33.7575 25.4117 36.9649C25.4117 39.7875 27.5494 41.0063 29.6872 41.0063C32.2021 41.0063 33.3968 39.8516 34.277 39.0177C34.3399 39.7875 34.4027 39.9799 34.5914 40.6856H38.5525V40.1082C38.1124 39.9158 37.7351 39.5309 37.7351 37.9272ZM34.1513 35.6819C34.1513 37.3498 32.4536 38.3762 30.8189 38.3762C30.0644 38.3762 29.0584 37.9913 29.0584 36.7083C29.0584 35.2329 30.1902 34.848 31.5734 34.6556C33.0824 34.399 33.7111 34.2065 34.0884 33.8858V35.6819H34.1513ZM88.6635 37.9272V30.4217C88.6635 27.0218 85.0167 26.4445 83.0676 26.4445C80.3012 26.4445 77.4718 26.9577 76.8431 30.7425H80.4269C80.6155 30.0368 81.1185 29.3312 82.6275 29.3312C83.5706 29.3312 85.0796 29.3953 85.0796 30.9349C85.0796 31.5764 84.5138 32.0254 82.9419 32.1537C79.358 32.4745 76.3401 33.7575 76.3401 36.9649C76.3401 39.7875 78.4778 41.0063 80.6155 41.0063C83.1305 41.0063 84.3251 39.8516 85.2054 39.0177C85.2682 39.7875 85.3311 39.9799 85.5197 40.6856H89.4808V40.1082C89.0407 39.9158 88.6635 39.5309 88.6635 37.9272ZM85.0796 35.6819C85.0796 37.3498 83.382 38.3762 81.8101 38.3762C81.0556 38.3762 80.0497 37.9913 80.0497 36.7083C80.0497 35.2329 81.1814 34.848 82.5646 34.6556C84.0736 34.399 84.7024 34.2065 85.0796 33.8858V35.6819ZM14.3458 22.4031C17.8667 22.4031 23.9027 24.3276 23.9027 30.4859C23.9027 36.6442 17.9296 38.4403 14.3458 38.4403V40.6214H10.3847V38.4403C6.92658 38.4403 0.890625 36.6442 0.890625 30.4859C0.890625 24.3276 6.92658 22.4031 10.4476 22.4031V20.3503H14.4086V22.4031H14.3458ZM10.4476 35.0404V25.803C8.30982 25.803 5.04034 26.6369 5.04034 30.4859C5.04034 34.2707 8.30982 35.0404 10.4476 35.0404ZM14.3458 25.803V35.0404C16.4206 35.0404 19.753 34.2707 19.753 30.4859C19.753 26.6369 16.4835 25.803 14.3458 25.803ZM95.0767 10.0224C107.84 10.0224 118.215 20.6069 118.215 33.6292C118.215 38.8894 116.517 43.7006 113.688 47.6136L98.9749 33.6292L106.708 23.0446H102.37L95.0767 33.116V10.0224ZM95.0767 6.62247V0.400024H91.5557V6.87907C82.1874 8.16205 74.3281 14.5128 70.7442 23.0446H74.4538C77.7862 16.3731 84.0736 11.4978 91.5557 10.3431V40.6856H95.0767V34.4631L111.487 50.3079C107.274 54.6059 101.49 57.236 95.1395 57.236C86.0856 57.236 78.2892 51.9116 74.4538 44.2137H70.6814C74.7053 53.9002 84.1365 60.6359 95.0767 60.6359C102.433 60.6359 109.098 57.5567 113.876 52.6173L116.454 55.1191H121.547L116.14 49.923C119.535 45.3684 121.547 39.7233 121.547 33.565C121.61 18.7466 109.726 6.62247 95.0767 6.62247ZM44.0854 33.8216C44.0854 35.4895 44.7142 37.9913 47.0405 37.9913C49.304 37.9913 50.1843 36.0668 50.1843 34.0141C50.1843 31.833 49.5555 29.5878 47.1663 29.5878C44.8399 29.5878 44.0854 31.6406 44.0854 33.8216Z" fill="#0054A6"/>
</svg>
