<svg width="75" height="46" viewBox="0 0 75 46" fill="none" xmlns="http://www.w3.org/2000/svg">
<ellipse cx="23.913" cy="22.9167" rx="23.913" ry="22.9167" fill="#BAE3FB"/>
<path d="M50.8471 45.8333C44.2868 45.8333 38.7291 43.6997 34.3272 39.4975C33.4944 38.6994 33.4944 37.4126 34.3272 36.6145C35.16 35.8164 36.5027 35.8164 37.3355 36.6145C40.9046 40.0349 45.4425 41.7614 50.8471 41.7614C61.6904 41.7614 70.5282 33.3082 70.5282 22.9167C70.5282 12.5252 61.7074 4.0719 50.8471 4.0719C45.4595 4.0719 40.5137 5.96126 37.2845 9.26765C36.4857 10.082 35.143 10.1309 34.2763 9.36537C33.4265 8.59986 33.3755 7.31313 34.1743 6.48247C38.2023 2.3617 44.2698 0 50.8301 0C57.1865 0 63.1691 2.39428 67.7069 6.74307C72.2448 11.0919 74.7432 16.8414 74.7432 22.9167C74.7432 28.9919 72.2618 34.7415 67.7239 39.0903C63.186 43.4391 57.1865 45.8333 50.8471 45.8333Z" fill="#3F6DAB"/>
<path d="M34.5482 15.7663H18.3512C17.1955 15.7663 16.2607 14.8705 16.2607 13.763C16.2607 12.6554 17.1955 11.7759 18.3512 11.7759H34.5482C35.7039 11.7759 36.6387 12.6717 36.6387 13.763C36.6217 14.8705 35.6869 15.7663 34.5482 15.7663Z" fill="#3F6DAB"/>
<path d="M37.3524 24.9037H21.1554C19.9997 24.9037 19.0649 24.0079 19.0649 22.9166C19.0649 21.809 19.9997 20.9132 21.1554 20.9132H37.3524C38.5081 20.9132 39.4429 21.809 39.4429 22.9166C39.4259 24.0079 38.4911 24.9037 37.3524 24.9037Z" fill="#3F6DAB"/>
<path d="M39.9527 34.0412H23.7558C22.6 34.0412 21.6653 33.1454 21.6653 32.0378C21.6653 30.9302 22.6 30.0344 23.7558 30.0344H39.9527C41.1084 30.0344 42.0432 30.9302 42.0432 32.0378C42.0262 33.1454 41.0914 34.0412 39.9527 34.0412Z" fill="#3F6DAB"/>
<path d="M47.6689 22.1023V11.4827C47.6689 10.5543 48.4508 9.78882 49.4365 9.78882H50.0653C51.0341 9.78882 51.8329 10.538 51.8329 11.4827V22.1023C51.8329 23.0306 51.0511 23.7962 50.0653 23.7962H49.4365C48.4508 23.7962 47.6689 23.0306 47.6689 22.1023Z" fill="#3F6DAB"/>
<path d="M57.1526 31.8423L48.2468 23.3076C47.516 22.6073 47.516 21.4834 48.2468 20.7831L48.5528 20.4899C49.2836 19.7895 50.4563 19.7895 51.1871 20.4899L60.0929 29.0246C60.8237 29.725 60.8237 30.8488 60.0929 31.5492L59.787 31.8423C59.0561 32.5427 57.8664 32.5427 57.1526 31.8423Z" fill="#3F6DAB"/>
</svg>
