<svg width="569" height="319" viewBox="0 0 569 319" fill="none" xmlns="http://www.w3.org/2000/svg">
<path d="M14.2626 0C14.2626 0 115.845 255.036 339.182 321.677C344.225 323.298 349.448 324.559 354.671 326H653.474V0H14.2626Z" fill="url(#paint0_linear_1_995)"/>
<path d="M14.409 0C14.409 0 115.991 255.036 339.328 321.677C153.094 243.329 51.8719 44.6674 40.705 0H14.409Z" fill="#FFAF24"/>
<path d="M654.161 166.242C654.161 166.242 652.18 157.777 647.317 156.876C642.454 155.976 639.212 159.218 639.212 159.218C639.212 159.218 633.268 142.287 619.4 141.927C605.531 141.567 605.351 162.28 605.351 162.28C605.351 162.28 600.488 153.634 590.942 155.976C581.397 158.317 584.278 168.223 584.278 168.223C584.278 168.223 581.216 165.522 577.074 168.223C572.931 170.925 572.571 176.689 572.571 176.689C572.571 176.689 561.224 169.844 554.92 188.036L653.801 182.092L654.161 166.242Z" fill="#36C75E"/>
<path d="M6.10352e-05 326H653.621V182.092C627.505 184.253 240.267 197.221 6.10352e-05 326Z" fill="#36C75E"/>
<g opacity="0.5">
<path d="M229.461 72.5845H97.9801C97.9801 72.5845 107.526 58.716 124.636 67.0011C124.636 67.0011 125.537 41.6055 148.951 49.8906C148.951 49.8906 151.473 25.5757 178.129 29.5381C204.786 33.5006 192.358 58.3558 192.358 58.3558C192.358 58.3558 204.605 50.9713 207.487 64.4795C207.487 64.4795 220.095 54.5735 229.461 72.5845Z" fill="white"/>
<path d="M550.958 107.526H638.491C638.491 107.526 632.188 98.3399 620.661 103.743C620.661 103.743 620.12 86.8128 604.451 92.3962C604.451 92.3962 602.83 76.1863 584.999 78.888C567.168 81.5896 575.453 98.1598 575.453 98.1598C575.453 98.1598 567.348 93.2968 565.367 102.122C565.547 102.122 557.262 95.4581 550.958 107.526Z" fill="white"/>
</g>
<path d="M343.651 326H434.246C530.425 272.867 653.261 246.391 653.261 246.391L653.621 245.851V215.052L346.352 308.349C346.533 308.349 344.011 316.454 343.651 326Z" fill="#1B943D"/>
<path d="M144.268 270.345H173.626C173.626 270.345 161.559 257.017 162.099 211.99L159.038 214.871L157.236 213.25L155.796 211.99C156.336 257.197 144.268 270.345 144.268 270.345Z" fill="#7F5F40"/>
<path d="M159.758 224.958C159.758 224.958 158.857 254.676 166.602 270.526H173.626C173.626 270.526 161.559 257.198 162.099 212.17L159.038 215.052L157.236 213.431L157.056 222.616L159.758 224.958Z" fill="#705136"/>
<path d="M129.86 212.71C124.817 217.573 113.29 220.815 113.29 220.815C126.978 224.778 145.529 218.654 145.529 218.654C143.368 222.256 135.803 226.939 135.803 226.939C144.088 228.56 158.857 222.796 158.857 222.796C158.857 222.796 158.857 222.796 159.038 222.796C160.478 223.337 174.167 228.38 181.912 226.939C181.912 226.939 174.347 222.256 172.186 218.654C172.186 218.654 190.917 224.597 204.425 220.815C204.425 220.815 192.898 217.573 187.855 212.71C187.855 212.71 204.425 216.132 216.853 208.027C216.853 208.027 200.643 208.568 190.737 198.301C191.097 198.481 198.662 200.823 205.506 198.842C205.506 198.842 191.457 193.799 188.396 188.936C188.396 188.936 205.146 193.438 214.331 189.116C214.331 189.116 190.377 182.271 184.973 171.645C184.973 171.645 194.88 174.707 208.568 173.086C208.568 173.086 190.917 165.701 184.073 154.715C184.433 154.895 189.296 156.876 197.401 156.696C197.401 156.696 180.111 143.548 176.508 135.983C176.508 135.983 184.793 138.505 190.557 138.144C190.557 138.144 175.067 123.375 173.086 115.991C173.086 115.991 179.75 117.432 185.334 117.612C185.334 117.612 172.006 110.407 171.105 103.383C173.807 105.004 181.551 105.544 181.551 105.544C181.551 105.544 172.006 98.8803 168.043 89.3345L175.968 88.9743C175.968 88.9743 167.323 80.1489 165.161 74.5655L170.565 75.6461C170.565 75.6461 160.298 57.2749 158.677 46.2881C158.677 45.9279 158.497 45.7478 158.497 45.3876C157.417 56.1942 146.43 75.6461 146.43 75.6461L151.833 74.5655C149.672 80.1489 141.027 88.9743 141.027 88.9743L148.951 89.3345C144.989 98.7002 135.443 105.544 135.443 105.544C135.443 105.544 143.188 105.004 145.89 103.383C144.989 110.227 131.661 117.612 131.661 117.612C137.244 117.432 143.908 115.991 143.908 115.991C141.747 123.375 126.438 138.144 126.438 138.144C132.201 138.685 140.486 135.983 140.486 135.983C137.064 143.548 119.593 156.696 119.593 156.696C127.698 156.876 132.561 154.895 132.922 154.715C126.077 165.521 108.427 173.086 108.427 173.086C122.115 174.707 132.021 171.645 132.021 171.645C126.798 182.271 102.663 189.116 102.663 189.116C111.849 193.438 128.599 188.936 128.599 188.936C125.537 193.799 111.488 198.842 111.488 198.842C118.513 201.003 126.077 198.481 126.438 198.301C116.532 208.387 100.322 208.027 100.322 208.027C113.29 216.312 129.86 212.71 129.86 212.71Z" fill="#41E06E"/>
<path d="M129.86 212.71C124.817 217.573 113.29 220.815 113.29 220.815C126.978 224.778 145.529 218.654 145.529 218.654C143.368 222.256 135.803 226.939 135.803 226.939C144.088 228.56 158.857 222.796 158.857 222.796C158.857 222.796 158.857 222.796 159.038 222.796V46.6484C159.038 46.2881 158.857 46.108 158.857 45.7478C157.777 56.5544 146.79 76.0064 146.79 76.0064L152.193 74.9257C150.032 80.5091 141.387 89.3345 141.387 89.3345L149.312 89.6947C145.349 99.0605 135.803 105.905 135.803 105.905C135.803 105.905 143.548 105.364 146.25 103.743C145.349 110.588 132.021 117.972 132.021 117.972C137.604 117.792 144.269 116.351 144.269 116.351C142.107 123.736 126.798 138.505 126.798 138.505C132.561 139.045 140.846 136.343 140.846 136.343C137.424 143.908 119.954 157.056 119.954 157.056C128.059 157.236 132.922 155.255 133.282 155.075C126.438 165.881 108.787 173.446 108.787 173.446C122.475 175.067 132.381 172.005 132.381 172.005C127.158 182.632 103.023 189.476 103.023 189.476C112.209 193.799 128.959 189.296 128.959 189.296C125.897 194.159 111.849 199.202 111.849 199.202C118.873 201.363 126.438 198.842 126.798 198.662C116.892 208.748 100.682 208.388 100.682 208.388C113.29 216.312 129.86 212.71 129.86 212.71Z" fill="#36C75E"/>
<path d="M257.018 244.049H286.736C286.736 244.049 274.488 230.541 275.029 184.973L271.967 187.855L270.166 186.234L268.725 184.973C269.085 230.541 257.018 244.049 257.018 244.049Z" fill="#7F5F40"/>
<path d="M272.687 197.941C272.687 197.941 271.787 228.019 279.531 243.869H286.556C286.556 243.869 274.308 230.361 274.848 184.793L271.787 187.675L269.986 186.053L269.805 195.239L272.687 197.941Z" fill="#705136"/>
<path d="M242.429 185.693C237.386 190.556 225.678 193.798 225.678 193.798C239.367 197.761 258.278 191.637 258.278 191.637C256.117 195.419 248.553 200.102 248.553 200.102C257.018 201.723 271.787 195.959 271.787 195.959C271.787 195.959 271.787 195.959 271.967 195.959C273.408 196.5 287.276 201.723 295.201 200.102C295.201 200.102 287.456 195.419 285.475 191.637C285.475 191.637 304.387 197.761 318.075 193.798C318.075 193.798 306.368 190.556 301.325 185.693C301.325 185.693 318.075 189.115 330.683 181.01C330.683 181.01 314.293 181.551 304.207 171.284C304.567 171.464 312.131 173.806 319.156 171.825C319.156 171.825 304.927 166.782 301.865 161.919C301.865 161.919 318.796 166.601 327.981 162.099C327.981 162.099 303.666 155.074 298.443 144.448C298.443 144.448 308.529 147.51 322.218 145.889C322.218 145.889 304.387 138.324 297.362 127.337C297.723 127.517 302.586 129.499 310.871 129.319C310.871 129.319 293.4 116.171 289.798 108.426C289.798 108.426 298.263 111.127 304.027 110.587C304.027 110.587 288.357 95.638 286.376 88.2534C286.376 88.2534 293.22 89.6943 298.803 90.0545C298.803 90.0545 285.295 82.67 284.394 75.8258C287.276 77.6269 295.021 77.9871 295.021 77.9871C295.021 77.9871 285.475 71.1429 281.513 61.5971L289.618 61.2369C289.618 61.2369 280.792 52.2313 278.811 46.6479L284.214 47.7286C284.214 47.7286 273.768 29.1772 272.147 18.1905C272.147 17.8302 271.967 17.6501 271.967 17.2899C270.886 28.2767 259.899 47.7286 259.899 47.7286L265.303 46.6479C263.141 52.2313 254.496 61.2369 254.496 61.2369L262.601 61.5971C258.639 71.1429 249.093 77.9871 249.093 77.9871C249.093 77.9871 257.018 77.4468 259.719 75.8258C258.819 82.8501 245.311 90.0545 245.311 90.0545C250.894 89.8744 257.738 88.2534 257.738 88.2534C255.577 95.638 240.087 110.587 240.087 110.587C245.851 111.127 254.316 108.426 254.316 108.426C250.894 116.171 233.243 129.319 233.243 129.319C241.348 129.499 246.391 127.517 246.751 127.337C239.727 138.324 221.896 145.889 221.896 145.889C235.585 147.51 245.671 144.448 245.671 144.448C240.267 155.074 216.133 162.099 216.133 162.099C225.498 166.601 242.249 161.919 242.249 161.919C239.187 166.962 224.958 171.825 224.958 171.825C231.982 173.986 239.727 171.464 239.907 171.284C229.821 181.551 213.431 181.01 213.431 181.01C225.679 189.295 242.429 185.693 242.429 185.693Z" fill="#41E06E"/>
<path d="M242.429 185.694C237.386 190.557 225.678 193.799 225.678 193.799C239.367 197.761 258.278 191.637 258.278 191.637C256.117 195.42 248.552 200.103 248.552 200.103C257.018 201.724 271.787 195.96 271.787 195.96C271.787 195.96 271.787 195.96 271.967 195.96V17.8308C271.967 17.4706 271.787 17.2905 271.787 16.9303C270.706 27.917 259.719 47.3689 259.719 47.3689L265.123 46.2883C262.961 51.8717 254.316 60.8772 254.316 60.8772L262.421 61.2375C258.458 70.7833 248.913 77.6275 248.913 77.6275C248.913 77.6275 256.837 77.0872 259.539 75.4662C258.639 82.4905 245.13 89.6949 245.13 89.6949C250.714 89.5148 257.558 87.8938 257.558 87.8938C255.397 95.2783 239.907 110.227 239.907 110.227C245.671 110.768 254.136 108.066 254.136 108.066C250.714 115.811 233.063 128.959 233.063 128.959C241.168 129.139 246.211 127.158 246.571 126.978C239.547 137.964 221.716 145.529 221.716 145.529C235.404 147.15 245.491 144.088 245.491 144.088C240.087 154.715 215.952 161.739 215.952 161.739C225.318 166.242 242.068 161.559 242.068 161.559C239.007 166.602 224.778 171.465 224.778 171.465C231.802 173.626 239.547 171.105 239.727 170.925C229.641 181.191 213.251 180.651 213.251 180.651C225.678 189.296 242.429 185.694 242.429 185.694Z" fill="#36C75E"/>
<path d="M375.71 216.312H403.087C403.087 216.312 391.74 203.885 392.281 161.559L389.399 164.26L387.778 162.82L386.517 161.559C387.057 203.885 375.71 216.312 375.71 216.312Z" fill="#7F5F40"/>
<path d="M390.299 173.807C390.299 173.807 389.399 201.724 396.783 216.493H403.267C403.267 216.493 391.92 204.065 392.461 161.739L389.579 164.441L387.958 163L387.778 171.465L390.299 173.807Z" fill="#705136"/>
<path d="M362.202 162.459C357.519 166.962 346.713 170.024 346.713 170.024C359.5 173.626 376.971 168.043 376.971 168.043C374.99 171.465 367.966 175.787 367.966 175.787C375.71 177.228 389.579 171.825 389.579 171.825C389.579 171.825 389.579 171.825 389.759 171.825C391.02 172.365 403.808 177.048 411.192 175.607C411.192 175.607 403.988 171.285 402.187 167.863C402.187 167.863 419.657 173.446 432.445 169.844C432.445 169.844 421.639 166.782 416.956 162.279C416.956 162.279 432.445 165.521 444.152 157.956C444.152 157.956 429.023 158.317 419.657 148.951C420.018 149.131 427.042 151.292 433.526 149.311C433.526 149.311 420.378 144.628 417.496 140.126C417.496 140.126 433.166 144.448 441.811 140.306C441.811 140.306 419.297 133.822 414.434 123.916C414.434 123.916 423.62 126.797 436.408 125.176C436.408 125.176 419.837 118.152 413.353 108.066C413.534 108.246 418.216 110.047 425.781 109.867C425.781 109.867 409.571 97.6195 406.329 90.5952C406.329 90.5952 414.074 93.1167 419.477 92.5764C419.477 92.5764 405.068 78.7079 403.087 71.8637C403.087 71.8637 409.391 73.3046 414.434 73.4847C414.434 73.4847 402.006 66.6405 401.106 60.3367C403.627 61.9576 411.012 62.3179 411.012 62.3179C411.012 62.3179 402.187 56.014 398.404 47.1886L405.789 46.8284C405.789 46.8284 397.684 38.5433 395.703 33.3201L400.746 34.4007C400.746 34.4007 391.2 17.2903 389.579 7.02397C389.579 6.66374 389.579 6.48363 389.399 6.12341C388.318 16.2096 378.232 34.4007 378.232 34.4007L383.275 33.3201C381.294 38.5433 373.189 46.8284 373.189 46.8284L380.573 47.1886C376.971 56.014 367.966 62.3179 367.966 62.3179C367.966 62.3179 375.17 61.9576 377.872 60.3367C376.971 66.8206 364.544 73.4847 364.544 73.4847C369.767 73.3046 375.89 71.8637 375.89 71.8637C373.909 78.7079 359.5 92.5764 359.5 92.5764C364.904 92.9366 372.649 90.5952 372.649 90.5952C369.407 97.7996 353.197 109.867 353.197 109.867C360.761 110.047 365.444 108.246 365.624 108.066C359.14 118.152 342.57 125.176 342.57 125.176C355.358 126.617 364.544 123.916 364.544 123.916C359.5 133.822 337.167 140.306 337.167 140.306C345.812 144.448 361.482 140.126 361.482 140.126C358.6 144.808 345.452 149.311 345.452 149.311C351.936 151.292 358.96 148.951 359.32 148.951C350.135 158.497 334.825 157.956 334.825 157.956C346.713 165.701 362.202 162.459 362.202 162.459Z" fill="#41E06E"/>
<path d="M362.202 162.459C357.519 166.962 346.713 170.024 346.713 170.024C359.5 173.626 376.971 168.043 376.971 168.043C374.99 171.465 367.966 175.787 367.966 175.787C375.71 177.228 389.579 171.825 389.579 171.825C389.579 171.825 389.579 171.825 389.759 171.825V7.02384C389.759 6.66362 389.759 6.48351 389.579 6.12329C388.498 16.2095 378.412 34.4006 378.412 34.4006L383.455 33.32C381.474 38.5432 373.369 46.8283 373.369 46.8283L380.754 47.1885C377.151 56.0139 368.146 62.3177 368.146 62.3177C368.146 62.3177 375.35 61.9575 378.052 60.3365C377.151 66.8205 364.724 73.4846 364.724 73.4846C369.947 73.3045 376.071 71.8636 376.071 71.8636C374.089 78.7078 359.681 92.5763 359.681 92.5763C365.084 92.9365 372.829 90.5951 372.829 90.5951C369.587 97.7995 353.377 109.867 353.377 109.867C360.941 110.047 365.624 108.246 365.804 108.066C359.32 118.152 342.75 125.176 342.75 125.176C355.538 126.617 364.724 123.915 364.724 123.915C359.681 133.822 337.347 140.306 337.347 140.306C345.992 144.448 361.662 140.125 361.662 140.125C358.78 144.808 345.632 149.311 345.632 149.311C352.116 151.292 359.14 148.951 359.5 148.951C350.315 158.497 335.005 157.956 335.005 157.956C346.713 165.701 362.202 162.459 362.202 162.459Z" fill="#36C75E"/>
<path d="M529.885 192.358H552.399C552.399 192.358 543.213 182.092 543.573 147.51L541.232 149.672L539.971 148.411L538.89 147.51C539.251 182.092 529.885 192.358 529.885 192.358Z" fill="#7F5F40"/>
<path d="M541.952 157.417C541.952 157.417 541.232 180.291 547.176 192.358H552.579C552.579 192.358 543.393 182.092 543.753 147.51L541.412 149.672L540.151 148.411L539.971 155.435L541.952 157.417Z" fill="#705136"/>
<path d="M518.898 148.051C514.936 151.833 506.11 154.174 506.11 154.174C516.557 157.236 530.966 152.553 530.966 152.553C529.345 155.435 523.581 158.857 523.581 158.857C529.885 160.118 541.232 155.615 541.232 155.615C541.232 155.615 541.232 155.615 541.412 155.615C542.493 155.975 552.939 159.938 559.063 158.857C559.063 158.857 553.299 155.255 551.678 152.553C551.678 152.553 566.087 157.236 576.534 154.174C576.534 154.174 567.708 151.653 563.746 148.051C563.746 148.051 576.533 150.752 586.079 144.448C586.079 144.448 573.652 144.809 565.907 137.064C566.087 137.064 572.031 139.045 577.254 137.424C577.254 137.424 566.447 133.642 564.106 129.859C564.106 129.859 576.894 133.462 584.098 130.04C584.098 130.04 565.727 124.636 561.584 116.531C561.584 116.531 569.149 118.873 579.595 117.612C579.595 117.612 566.087 111.848 560.684 103.563C560.864 103.743 564.646 105.184 570.95 105.004C570.95 105.004 557.622 94.9181 554.92 89.1545C554.92 89.1545 561.404 91.1357 565.727 90.7755C565.727 90.7755 553.84 79.4286 552.219 73.8451C552.219 73.8451 557.442 74.9258 561.584 75.1059C561.584 75.1059 551.318 69.5225 550.598 64.2993C552.759 65.5601 558.703 65.9203 558.703 65.9203C558.703 65.9203 551.318 60.6971 548.436 53.4927L554.56 53.3125C554.56 53.3125 547.896 46.4683 546.275 42.1457L550.417 43.0462C550.417 43.0462 542.493 28.9976 541.232 20.5324C541.232 20.3523 541.232 19.9921 541.052 19.812C540.151 28.0971 531.866 43.0462 531.866 43.0462L536.009 42.1457C534.388 46.4683 527.724 53.3125 527.724 53.3125L533.847 53.4927C530.785 60.6971 523.581 65.9203 523.581 65.9203C523.581 65.9203 529.525 65.5601 531.686 64.2993C530.966 69.7026 520.699 75.1059 520.699 75.1059C525.022 74.9258 530.065 73.8451 530.065 73.8451C528.444 79.4286 516.557 90.7755 516.557 90.7755C521.059 91.1357 527.363 89.1545 527.363 89.1545C524.662 94.9181 511.334 105.004 511.334 105.004C517.457 105.184 521.24 103.563 521.6 103.563C516.197 111.848 502.688 117.612 502.688 117.612C513.135 118.873 520.699 116.531 520.699 116.531C516.557 124.636 498.185 130.04 498.185 130.04C505.21 133.462 518.178 129.859 518.178 129.859C515.836 133.642 505.03 137.424 505.03 137.424C510.433 139.045 516.197 137.244 516.377 137.064C508.812 144.809 496.204 144.448 496.204 144.448C506.11 150.752 518.898 148.051 518.898 148.051Z" fill="#41E06E"/>
<path d="M518.898 148.051C514.936 151.833 506.11 154.174 506.11 154.174C516.557 157.236 530.966 152.553 530.966 152.553C529.345 155.435 523.581 158.857 523.581 158.857C529.885 160.118 541.232 155.615 541.232 155.615C541.232 155.615 541.232 155.615 541.412 155.615V20.1723C541.412 19.9922 541.412 19.632 541.232 19.4519C540.331 27.737 532.046 42.6861 532.046 42.6861L536.189 41.7856C534.568 46.1082 527.904 52.9524 527.904 52.9524L534.027 53.1326C530.966 60.337 523.761 65.5602 523.761 65.5602C523.761 65.5602 529.705 65.2 531.866 63.9392C531.146 69.3425 520.879 74.7458 520.879 74.7458C525.202 74.5657 530.245 73.485 530.245 73.485C528.624 79.0684 516.737 90.4154 516.737 90.4154C521.24 90.7756 527.543 88.7944 527.543 88.7944C524.842 94.5579 511.514 104.644 511.514 104.644C517.637 104.824 521.42 103.203 521.78 103.203C516.377 111.488 502.868 117.252 502.868 117.252C513.315 118.513 520.879 116.171 520.879 116.171C516.737 124.276 498.366 129.679 498.366 129.679C505.39 133.102 518.358 129.499 518.358 129.499C516.016 133.282 505.21 137.064 505.21 137.064C510.613 138.685 516.377 136.884 516.557 136.704C508.992 144.449 496.384 144.088 496.384 144.088C506.11 150.752 518.898 148.051 518.898 148.051Z" fill="#36C75E"/>
<path d="M0 326H397.504C523.041 263.862 653.801 239.907 653.801 239.907V182.272C648.578 182.632 628.585 183.532 598.327 185.694C596.706 185.874 595.085 185.874 593.464 186.054C470.088 194.879 189.296 224.418 0 326Z" fill="#FEE2BF"/>
<path d="M0 326H35.1215C54.2133 313.933 224.778 213.431 593.104 185.874C470.088 194.88 189.296 224.418 0 326Z" fill="#EFEFF0"/>
<path d="M588.961 248.012C588.961 248.012 360.221 322.218 345.812 318.616C345.812 318.616 164.441 302.406 157.236 286.736C150.032 271.066 393.721 225.499 393.721 225.499C393.721 225.499 541.052 236.845 588.961 248.012Z" fill="#E9C9A1"/>
<path d="M585.896 210.826L479.302 208.276L479.453 201.974L586.047 204.524L585.896 210.826Z" fill="#222223"/>
<path d="M438.389 234.685L468.647 231.082L474.591 216.133L498.365 211.631L504.849 204.786L499.446 187.676L439.469 187.316L438.389 234.685Z" fill="#222223"/>
<path d="M481.615 203.525L513.855 197.942L519.258 207.127L556.361 200.643L564.466 192.899L564.826 175.248L480.354 184.794L481.615 203.525Z" fill="#222223"/>
<path d="M579.415 167.683L594.364 197.401L569.329 198.122L554.2 168.403L579.415 167.683Z" fill="#222223"/>
<path d="M385.616 255.936L354.277 255.216L335.005 218.834C335.005 218.834 363.823 210.368 373.369 211.809C386.697 213.61 385.616 255.936 385.616 255.936Z" fill="#1C1D28"/>
<path d="M361.842 263.862C361.301 286.376 348.694 304.207 333.564 303.847C318.435 303.487 306.728 284.935 307.268 262.602C307.809 240.088 320.416 222.257 335.546 222.617C350.495 222.797 362.382 241.349 361.842 263.862Z" fill="#1C1D28"/>
<path d="M332.844 303.667L356.078 304.207L359.32 223.158L335.546 222.437L332.844 303.667Z" fill="#1C1D28"/>
<path d="M356.378 304.366C341.362 304.009 329.623 285.501 330.157 263.027C330.692 240.553 343.298 222.624 358.314 222.981C373.33 223.338 385.069 241.846 384.534 264.32C384 286.794 371.394 304.723 356.378 304.366Z" fill="#4B4B4B"/>
<path d="M376.07 264.042C375.89 269.445 374.81 274.308 373.009 278.631C371.748 281.512 370.127 284.214 368.146 286.195C364.904 289.617 360.941 291.599 356.799 291.419C353.016 291.419 349.594 289.617 346.712 286.736C344.731 284.754 342.93 282.053 341.669 278.991C339.688 274.488 338.608 269.085 338.788 263.141C339.148 247.832 347.793 235.584 358.059 235.764C360.941 235.764 363.643 236.845 365.984 238.646C366.345 239.006 366.705 239.187 367.065 239.547C367.966 240.267 368.686 241.168 369.406 242.068C369.947 242.609 370.307 243.329 370.847 244.05C374.269 249.093 376.251 256.297 376.07 264.042Z" fill="white"/>
<path d="M369.406 242.069C353.737 265.123 348.333 280.612 346.712 286.916C344.731 284.935 342.93 282.233 341.669 279.171C346.532 273.408 363.823 242.429 365.984 238.827C366.344 239.187 366.705 239.367 367.065 239.727C367.785 240.268 368.686 241.168 369.406 242.069Z" fill="#EAE6E6"/>
<path d="M365.444 263.862C365.264 270.887 361.301 276.65 356.619 276.47C351.936 276.29 348.153 270.526 348.333 263.502C348.514 256.478 352.476 250.714 357.159 250.894C362.022 250.894 365.624 256.838 365.444 263.862Z" fill="#222223"/>
<path d="M362.382 263.862C362.202 269.445 359.14 273.948 355.358 273.768C351.575 273.768 348.694 269.085 348.874 263.501C349.054 257.918 352.116 253.415 355.898 253.595C359.5 253.595 362.562 258.278 362.382 263.862Z" fill="#4B4B4B"/>
<path d="M247.111 248.552C246.751 267.284 236.125 282.233 223.517 281.873C210.909 281.513 201.183 266.203 201.543 247.472C201.904 228.74 212.53 213.791 225.138 214.151C237.746 214.332 247.472 229.821 247.111 248.552Z" fill="#1C1D28"/>
<path d="M222.977 281.873L242.249 282.233L245.851 214.512L225.138 214.151L222.977 281.873Z" fill="#1C1D28"/>
<path d="M266.023 248.913C265.663 267.645 255.036 282.594 242.429 282.233C229.821 281.873 220.095 266.564 220.455 247.832C220.815 229.101 231.442 214.152 244.05 214.512C256.657 214.872 266.563 230.182 266.023 248.913Z" fill="#4B4B4B"/>
<path d="M258.999 248.733C258.819 253.235 257.918 257.378 256.297 260.8C255.216 263.322 253.776 265.483 252.155 267.104C249.453 269.986 246.211 271.607 242.789 271.427C239.727 271.427 236.845 269.986 234.504 267.464C232.883 265.843 231.442 263.502 230.361 260.98C228.74 257.198 227.84 252.695 228.02 247.832C228.38 235.044 235.584 224.778 244.23 224.958C246.571 224.958 248.913 225.859 250.894 227.3C251.254 227.48 251.434 227.84 251.794 228.02C252.515 228.56 253.235 229.281 253.776 230.001C254.136 230.542 254.676 231.082 255.036 231.622C257.378 236.305 259.179 242.249 258.999 248.733Z" fill="white"/>
<path d="M253.415 230.362C240.267 249.633 235.945 262.601 234.504 267.644C232.883 266.023 231.442 263.682 230.361 261.16C234.324 256.297 248.913 230.542 250.714 227.48C251.074 227.66 251.254 228.02 251.614 228.2C252.155 228.921 252.875 229.641 253.415 230.362Z" fill="#EAE6E6"/>
<path d="M242.902 266.73C236.14 266.569 230.854 258.216 231.095 248.073C231.336 237.93 237.014 229.837 243.776 229.998C250.538 230.159 255.824 238.512 255.583 248.655C255.341 258.798 249.664 266.89 242.902 266.73Z" fill="#444344"/>
<path d="M253.235 248.553C253.055 257.378 248.012 264.583 242.068 264.403C236.125 264.223 231.442 257.018 231.622 248.013C231.802 239.187 236.845 231.983 242.789 232.163C248.732 232.523 253.415 239.728 253.235 248.553Z" fill="#282A37"/>
<path d="M251.254 248.552C251.074 256.297 246.751 262.421 241.528 262.241C238.106 262.241 235.224 259.359 233.783 255.397C233.423 254.496 233.063 253.415 232.883 252.155C232.703 250.894 232.522 249.813 232.522 248.372C232.522 248.192 232.522 248.012 232.522 247.832C232.522 246.751 232.703 245.49 232.883 244.41C233.963 238.286 237.746 233.963 242.248 233.963C245.13 233.963 247.652 236.125 249.453 239.187C250.533 242.068 251.254 245.31 251.254 248.552Z" fill="#696769"/>
<path d="M251.254 248.553C248.192 247.653 242.428 247.833 233.783 255.397C232.883 253.236 232.522 250.895 232.522 248.553C235.044 248.553 242.609 247.653 249.273 239.548C250.533 242.069 251.254 245.311 251.254 248.553Z" fill="#868385"/>
<path d="M250.174 248.553C249.993 254.497 246.751 259.179 242.789 258.999C238.827 258.819 235.765 253.956 235.945 248.193C236.125 242.249 239.367 237.566 243.329 237.746C247.292 237.746 250.354 242.609 250.174 248.553Z" fill="#444344"/>
<path d="M247.472 248.552C247.292 253.235 244.77 257.017 241.528 256.837C238.466 256.837 235.945 252.875 236.125 248.192C236.305 243.509 238.826 239.727 242.068 239.907C245.13 239.907 247.652 243.869 247.472 248.552Z" fill="#696769"/>
<path d="M551.318 224.778C550.958 243.15 540.511 257.919 528.084 257.558C515.656 257.198 506.11 242.069 506.471 223.698C506.831 205.326 517.277 190.557 529.705 190.918C541.952 191.278 551.678 206.407 551.318 224.778Z" fill="#222223"/>
<path d="M527.543 257.559L546.635 258.099L550.057 191.458L529.705 190.918L527.543 257.559Z" fill="#1C1D28"/>
<path d="M570.049 225.319C569.689 243.69 559.243 258.459 546.815 258.099C534.388 257.739 524.842 242.61 525.202 224.238C525.562 205.867 536.009 191.098 548.436 191.458C560.864 191.638 570.41 206.768 570.049 225.319Z" fill="#4B4B4B"/>
<path d="M563.025 225.139C562.845 229.461 561.944 233.604 560.504 237.026C559.423 239.367 557.982 241.529 556.541 243.15C553.84 245.851 550.778 247.472 547.175 247.472C544.114 247.472 541.232 246.032 538.89 243.69C537.269 242.069 535.828 239.908 534.748 237.386C533.127 233.604 532.226 229.101 532.406 224.418C532.767 211.811 539.791 201.724 548.256 201.904C550.598 201.904 552.759 202.805 554.74 204.246C555.1 204.426 555.28 204.786 555.641 204.966C556.361 205.507 556.901 206.227 557.622 206.948C557.982 207.488 558.342 208.028 558.883 208.569C561.404 212.711 563.025 218.655 563.025 225.139Z" fill="white"/>
<path d="M557.442 206.947C544.474 225.859 540.151 238.646 538.71 243.69C537.089 242.069 535.648 239.907 534.568 237.386C538.53 232.523 552.759 207.307 554.56 204.245C554.92 204.425 555.1 204.786 555.46 204.966C556.181 205.506 556.901 206.227 557.442 206.947Z" fill="#EAE6E6"/>
<path d="M554.38 224.959C554.2 230.722 550.958 235.405 546.995 235.405C543.033 235.225 539.971 230.542 540.151 224.778C540.331 219.015 543.573 214.332 547.536 214.332C551.498 214.332 554.38 219.015 554.38 224.959Z" fill="#222223"/>
<path d="M551.678 224.779C551.498 229.281 548.977 233.064 545.915 232.884C542.853 232.884 540.511 229.101 540.511 224.419C540.691 219.916 543.213 216.133 546.275 216.314C549.337 216.494 551.858 220.276 551.678 224.779Z" fill="#4B4B4B"/>
<path d="M456.596 192.243L470.016 224.698L465.355 226.625L451.935 194.17L456.596 192.243Z" fill="#444344"/>
<path d="M500.609 185.818L514.028 218.273L509.368 220.2L495.948 187.745L500.609 185.818Z" fill="#444344"/>
<path d="M525.202 217.214L518.358 216.133L517.998 224.779L525.022 226.039L525.202 217.214Z" fill="#444344"/>
<path d="M453.698 227.12L518.358 216.133L517.998 224.779L453.158 237.566L453.698 227.12Z" fill="#444344"/>
<path d="M460.722 228.201L525.202 217.214L525.022 226.039L460.182 238.827L460.722 228.201Z" fill="#696769"/>
<path d="M460.722 228.201L453.698 227.12L453.158 237.567L460.182 238.827L460.722 228.201Z" fill="#868385"/>
<path d="M328.702 188.757L332.304 39.0849L464.145 19.9932L460.002 191.819L328.702 188.757Z" fill="#71CAFF"/>
<path d="M460.362 24.1354L335.726 42.1465L332.304 185.154L456.4 188.036L460.362 24.1354ZM467.747 15.8503L463.424 195.601L324.919 192.359L328.702 36.0227L467.747 15.8503Z" fill="#2D5284"/>
<path d="M471.349 20.713L588.601 56.1948L587.16 176.508L467.206 191.458L471.349 20.713Z" fill="#71CAFF"/>
<path d="M474.771 25.3962L470.989 187.315L586.8 175.788L588.241 56.1951L474.771 25.3962ZM467.747 15.8503L592.023 53.4934L590.582 179.751L463.424 195.601L467.747 15.8503Z" fill="#3F6DAB"/>
<path d="M188.395 244.591C188.395 244.591 191.998 253.416 197.401 255.757C244.41 275.75 319.696 271.427 319.696 271.427L325.459 263.682L187.315 244.771" fill="#29486B"/>
<path d="M444.152 242.609L385.616 256.117C385.616 256.117 386.877 215.953 361.662 217.034C336.446 218.114 325.64 263.682 325.64 263.682C325.64 263.682 285.655 268.365 240.627 261.701C195.6 255.037 188.576 244.771 188.576 244.771C188.576 244.771 188.576 241.168 188.756 236.485L189.116 221.176C189.116 218.835 189.656 216.853 190.377 215.052C191.457 212.351 193.078 210.369 194.339 209.289C195.24 208.388 195.96 207.848 195.96 207.848C195.96 207.848 195.96 208.748 195.96 207.848C195.96 207.127 195.96 205.146 196.14 200.644C196.14 190.557 203.345 187.135 203.345 187.135C203.345 187.135 203.345 186.955 203.345 186.775C203.345 184.434 203.165 173.627 209.288 166.783C210.549 165.342 212.17 163.901 214.151 163C225.318 157.237 241.528 151.653 243.689 150.753C243.869 150.753 243.869 150.753 243.869 150.753L290.338 99.0613L290.518 98.8811C290.518 98.8811 313.572 85.3729 351.215 84.1121C351.215 84.1121 377.692 81.5905 402.187 83.3916C415.154 84.2922 427.582 86.2734 434.967 90.5961C443.072 95.0988 446.314 150.213 446.314 150.213C449.015 150.032 448.475 154.895 448.475 154.895C448.475 154.895 451.537 184.974 451.717 205.687C451.897 225.499 444.152 242.609 444.152 242.609Z" fill="#FFC96C"/>
<path d="M191.818 239.367L192.178 224.058C192.178 221.716 192.718 219.735 193.439 217.934C194.519 215.232 196.14 213.251 197.401 212.17C198.302 211.27 199.022 210.729 199.022 210.729C199.022 210.729 199.022 211.63 199.022 210.729C199.022 210.009 199.022 208.028 199.202 203.525C199.202 193.439 206.407 190.017 206.407 190.017C206.407 190.017 206.407 189.837 206.407 189.657C206.407 187.315 206.226 176.508 212.35 169.664C213.611 168.223 215.232 166.783 217.213 165.882C228.38 160.118 250.894 152.194 250.894 152.194L293.76 101.943L293.94 101.763C293.94 101.763 316.994 88.2544 354.637 86.9936C354.637 86.9936 381.114 84.4721 405.609 86.2732C418.036 87.1737 429.743 88.9748 437.308 92.7572C436.588 91.4964 436.047 90.7759 435.147 90.4157C427.762 86.2732 415.335 84.1119 402.367 83.2113C378.052 81.5903 351.395 83.9317 351.395 83.9317C313.752 85.1925 290.698 98.7008 290.698 98.7008L290.518 98.8809L244.05 150.573C244.05 150.573 244.05 150.573 243.87 150.573C241.708 151.293 225.498 157.057 214.331 162.82C212.35 163.901 210.729 165.162 209.468 166.602C203.345 173.447 203.525 184.433 203.525 186.595C203.525 186.955 203.525 186.955 203.525 186.955C203.525 186.955 196.32 190.377 196.32 200.463C196.32 204.966 196.32 206.947 196.14 207.668C196.14 208.568 196.14 207.668 196.14 207.668C196.14 207.668 195.42 208.208 194.519 209.108C193.259 210.369 191.818 212.35 190.557 214.872C189.836 216.673 189.296 218.654 189.296 220.996L188.936 236.305C188.756 240.988 188.756 244.59 188.756 244.59C188.756 244.59 189.476 245.671 191.998 247.292C191.637 246.391 191.638 243.149 191.818 239.367Z" fill="#FFC765"/>
<path d="M202.804 211.991C202.804 211.991 196.5 210.37 194.159 208.929C195.059 208.028 195.78 207.488 195.78 207.488C195.78 207.488 195.78 208.388 195.78 207.488L202.804 211.991Z" fill="#2D5690"/>
<path d="M444.152 242.609L385.616 256.118C385.616 256.118 386.877 215.953 361.662 217.034C361.301 217.034 361.121 217.034 360.761 217.034C360.581 217.034 360.581 217.034 360.401 217.034C335.906 219.555 325.459 263.502 325.459 263.502C325.459 263.502 327.08 237.386 321.497 223.878C318.975 217.574 280.432 219.915 274.488 219.735C274.488 219.735 333.024 214.332 333.384 212.351C334.285 207.668 335.546 191.818 334.105 189.657C327.621 180.111 308.529 173.987 308.529 173.987C324.739 172.366 336.446 167.503 351.035 151.113C349.594 150.933 371.568 89.1553 400.566 85.5531C413.533 86.4537 427.582 86.6337 434.967 89.6956C435.507 89.8757 436.047 90.5962 436.588 91.3166C436.768 91.4967 436.948 91.8569 437.128 92.0371C443.612 103.204 446.314 149.312 446.314 149.312C446.674 149.312 447.034 149.312 447.394 149.312C449.015 149.672 449.556 150.033 449.916 151.834C450.276 153.995 451.537 179.931 451.897 199.923C451.897 200.824 451.897 201.724 451.897 202.625C451.897 203.345 451.897 203.886 451.897 204.606C451.897 225.499 444.152 242.609 444.152 242.609Z" fill="#FFBD4C"/>
<path d="M423.8 173.987V172.546L444.512 169.845V172.006C444.512 173.267 443.612 174.167 442.351 174.347L426.501 176.509C425.061 176.689 423.8 175.608 423.8 173.987Z" fill="#323233"/>
<path d="M449.375 151.294C449.375 151.294 376.251 155.976 374.089 155.256L445.233 148.232C445.233 148.052 448.835 147.871 449.375 151.294Z" fill="#E39817"/>
<path d="M451.717 202.985C430.824 206.407 380.033 215.052 378.412 215.232L451.717 200.283C451.717 201.003 451.717 202.084 451.717 202.985Z" fill="#E39817"/>
<path d="M333.384 212.35C333.384 212.35 337.347 183.893 348.514 181.732C359.68 179.57 446.313 166.242 446.313 166.242L347.073 178.67C347.073 178.67 333.024 184.794 332.664 186.775C332.304 188.936 333.384 212.35 333.384 212.35Z" fill="#E39817"/>
<path d="M361.301 181.191C361.482 178.49 359.32 177.409 357.879 177.049L357.519 147.331C357.699 147.151 358.059 146.43 358.78 145.169C358.6 145.169 358.24 144.989 358.059 144.989C357.339 146.25 356.799 146.97 356.799 146.97V147.151L357.159 177.409V177.769H357.519C357.699 177.769 360.941 178.49 360.581 181.372C360.401 184.614 360.041 215.953 360.041 217.214H360.401H360.761C360.761 215.773 361.121 184.253 361.301 181.191Z" fill="#E39817"/>
<path d="M386.517 92.037C387.958 92.037 388.858 93.6581 388.138 94.9188C383.635 103.564 369.226 130.761 361.121 142.288C351.396 156.156 346.893 153.455 279.351 152.554C259.359 152.374 244.95 152.014 243.689 150.213C243.87 150.213 243.87 150.213 243.87 150.213L290.338 98.521C323.478 88.9752 373.729 91.3166 386.517 92.037Z" fill="#E39817"/>
<path d="M379.853 103.024L354.277 143.729C353.196 145.71 351.035 146.971 348.694 146.971L305.827 146.791L281.152 146.61H261.7H253.415C252.154 146.61 251.614 145.17 252.335 144.269L254.136 142.288L290.878 101.763C291.959 100.682 299.163 98.8812 310.33 97.4403C314.653 96.9 319.516 96.3596 324.919 95.9994C331.223 95.4591 338.067 95.279 345.452 95.0989C353.016 95.0989 361.121 95.0989 369.586 95.6392C371.928 95.8193 374.269 95.9994 376.611 96.1796C381.294 96.7199 382.014 99.0613 379.853 103.024Z" fill="#D2EEFF"/>
<path d="M325.099 95.9993L261.881 146.43H253.596C252.335 146.43 251.794 144.989 252.515 144.089L254.316 142.108L310.33 97.4402C314.653 96.8998 319.696 96.3595 325.099 95.9993Z" fill="#EAF7FF"/>
<path d="M369.767 95.8193L306.008 146.791L281.332 146.61L345.812 95.0989C353.196 95.0989 361.301 95.279 369.767 95.8193Z" fill="#EAF7FF"/>
<path d="M347.793 178.67C347.793 178.67 340.409 179.93 334.105 189.656C334.105 189.656 308.529 196.681 278.271 199.923C265.303 201.364 251.434 201.904 238.466 201.003C226.219 200.103 217.393 197.041 211.27 193.079C210.909 192.898 210.729 192.718 210.549 192.538C207.667 190.557 205.326 188.396 203.345 186.234C203.345 185.874 203.345 185.514 203.345 184.974C203.345 184.073 203.345 182.992 203.525 181.732V181.551C203.705 179.21 204.245 176.328 205.146 173.446C205.506 172.546 205.866 171.645 206.227 170.745C206.947 169.124 208.028 167.503 209.288 166.062C209.108 166.242 207.667 169.124 210.009 171.465C211.27 172.726 213.971 173.987 218.834 174.167C232.523 174.887 294.3 175.968 294.3 175.968C294.3 175.968 294.841 175.968 295.921 175.788C301.505 175.248 319.516 172.726 332.664 166.422C336.086 164.801 339.148 162.82 341.489 160.479C341.489 160.479 347.363 161.317 347.903 164.019C348.083 166.901 347.793 178.67 347.793 178.67Z" fill="white"/>
<path d="M295.741 175.968C289.437 182.992 282.413 193.619 278.271 200.103C276.109 200.283 273.768 200.463 271.606 200.823C260.62 201.724 249.273 202.084 238.466 201.364C227.119 200.643 218.834 197.942 212.89 194.519C211.99 193.979 211.269 193.619 210.549 193.079C209.108 186.054 210.009 172.006 210.009 172.006L294.3 176.508C293.94 176.148 294.661 176.148 295.741 175.968Z" fill="#CCE6FF"/>
<path d="M317.895 252.155C317.715 252.335 297.542 253.416 272.147 252.155C250.714 251.074 225.138 248.373 204.605 242.249C198.842 240.628 193.619 238.647 188.756 236.305L189.116 220.996C189.116 219.915 189.296 219.015 189.476 217.934C189.656 216.853 190.016 215.773 190.377 214.872C192.358 216.313 195.42 217.574 199.382 217.934C199.382 217.934 200.103 212.351 204.605 212.891C209.108 213.431 230.181 219.015 265.303 219.555C265.303 219.555 272.507 219.015 274.488 227.84C274.488 227.84 298.803 229.281 308.349 227.48C317.895 225.859 318.435 251.615 317.895 252.155Z" fill="#4B4B4B"/>
<path d="M286.375 179.211L284.754 181.552L283.314 183.713L281.512 186.415L280.072 188.576L278.271 191.278L276.83 193.439L275.209 195.961C264.222 196.861 248.732 197.942 237.926 197.041C226.579 196.321 218.654 194.52 212.53 191.098C212.53 190.918 212.35 189.657 212.17 189.477C212.17 188.756 211.99 188.036 211.99 187.135C211.81 186.235 211.81 185.154 211.63 184.073C211.63 183.353 211.45 182.633 211.45 181.912C211.45 181.012 211.45 180.111 211.45 179.211C211.45 178.49 211.45 177.77 211.45 177.049C211.45 176.149 211.45 175.428 211.63 174.708L286.375 179.211Z" fill="#CCE6FF"/>
<path d="M284.754 181.732L283.314 183.893C280.252 183.893 277.37 183.713 274.668 183.713C255.577 183.172 240.447 182.272 230.361 181.371C223.517 180.831 218.294 180.291 215.232 179.93C213.611 179.75 212.35 179.57 211.45 179.57C211.45 178.85 211.45 178.129 211.45 177.409C217.213 177.949 243.689 181.191 284.754 181.732Z" fill="#4B4B4B"/>
<path d="M281.512 186.595L280.072 188.756C273.588 188.756 267.644 188.756 262.061 188.576C248.192 188.216 237.385 187.496 229.821 186.775C222.436 186.055 217.573 185.334 214.872 184.974C213.431 184.794 212.53 184.614 211.63 184.434C211.63 183.713 211.45 182.993 211.45 182.272C217.033 183.353 242.248 186.775 281.512 186.595Z" fill="#4B4B4B"/>
<path d="M278.271 191.458L276.83 193.619C266.924 193.98 258.098 194.16 250.173 193.98C230.721 193.439 217.934 191.458 212.17 189.837C212.17 189.117 211.99 188.396 211.99 187.496C217.933 189.657 241.348 193.259 278.271 191.458Z" fill="#4B4B4B"/>
<path d="M374.089 155.075C374.089 155.075 370.487 148.231 372.108 145.349C373.729 142.287 393.001 94.7382 398.764 93.8377C404.528 92.9371 425.781 94.5581 425.781 94.5581C425.781 94.5581 434.426 125.357 431.544 149.672L374.089 155.075Z" fill="#E39817"/>
<path d="M428.122 147.33L400.385 150.212L381.654 152.193L376.791 152.734C376.791 152.734 374.81 151.113 374.63 148.051C374.63 146.79 374.81 145.349 375.53 143.728C375.89 142.828 377.872 138.325 380.393 132.201C386.157 118.333 395.522 97.0796 399.125 96.5393C401.826 95.9989 408.49 96.179 414.074 96.5393C418.216 96.7194 421.638 97.0796 422.719 97.0796C422.899 97.0796 423.079 97.0796 423.079 97.0796C423.079 97.0796 423.98 100.682 425.241 106.265C426.141 110.408 427.042 115.811 427.762 121.575C428.663 129.68 429.203 138.865 428.122 147.33Z" fill="#D2EEFF"/>
<path d="M422.899 96.8997L374.63 147.871C374.63 146.61 374.81 145.169 375.53 143.548C375.89 142.648 377.872 138.145 380.393 132.021L414.074 96.3594C418.396 96.5395 421.819 96.8997 422.899 96.8997Z" fill="#EAF7FF"/>
<path d="M427.762 121.395L400.566 150.213L381.834 152.194L425.241 106.086C426.141 110.228 427.042 115.632 427.762 121.395Z" fill="#EAF7FF"/>
<path d="M307.809 242.789C306.728 247.292 302.045 250.173 293.94 248.372C285.835 246.571 282.233 241.168 283.314 236.665C284.394 232.162 289.618 230.181 297.723 231.982C305.647 233.963 308.709 238.286 307.809 242.789Z" fill="#444444"/>
<path d="M306.368 240.988C306.368 244.59 303.306 247.472 299.523 247.472C295.921 247.472 293.039 244.41 293.039 240.628C293.039 237.025 296.101 234.144 299.884 234.144C303.486 234.324 306.368 237.386 306.368 240.988Z" fill="#696769"/>
<path d="M304.927 240.808C304.927 243.87 302.405 246.211 299.343 246.211C296.281 246.211 293.94 243.69 293.94 240.628C293.94 237.566 296.462 235.224 299.523 235.224C302.585 235.224 304.927 237.746 304.927 240.808Z" fill="white"/>
<path d="M303.846 240.808C303.846 243.329 301.685 245.491 298.983 245.491C296.462 245.491 294.3 243.329 294.3 240.628C294.3 237.926 296.462 235.945 299.163 235.945C301.865 236.125 304.026 238.286 303.846 240.808Z" fill="#DEDFDE"/>
<path d="M300.964 239.547C300.964 241.168 299.704 242.429 298.083 242.249C296.462 242.249 295.201 240.988 295.381 239.367C295.381 237.746 296.642 236.485 298.263 236.665C299.704 236.665 300.964 237.926 300.964 239.547Z" fill="white"/>
<path d="M302.225 243.329C302.225 244.05 301.505 244.77 300.784 244.59C300.064 244.59 299.343 243.87 299.523 243.149C299.523 242.429 300.244 241.708 300.964 241.888C301.505 241.888 302.225 242.429 302.225 243.329Z" fill="white"/>
<path d="M198.662 227.84C197.581 232.343 194.159 235.585 189.116 234.324C188.936 234.324 188.756 234.324 188.756 234.144L189.116 220.636C189.116 219.555 189.296 218.654 189.476 217.574C190.557 217.394 191.637 217.574 192.898 217.754C197.941 219.375 199.742 223.337 198.662 227.84Z" fill="#444444"/>
<path d="M197.581 226.399C197.581 229.641 195.6 232.162 193.258 232.162C190.917 232.162 189.116 229.461 189.296 226.219C189.296 222.977 191.277 220.455 193.619 220.455C195.78 220.635 197.581 223.337 197.581 226.399Z" fill="#696769"/>
<path d="M196.32 226.4C196.32 229.101 194.699 231.263 192.718 231.082C190.737 231.082 189.296 228.741 189.296 226.219C189.296 223.518 190.917 221.357 192.898 221.537C194.879 221.357 196.32 223.698 196.32 226.4Z" fill="white"/>
<path d="M195.6 226.399C195.6 228.741 194.159 230.542 192.538 230.542C190.917 230.542 189.656 228.561 189.656 226.399C189.656 224.058 191.097 222.257 192.718 222.257C194.339 222.077 195.6 224.058 195.6 226.399Z" fill="#DEDFDE"/>
<path d="M193.799 225.138C193.799 226.579 192.898 227.66 191.998 227.66C191.097 227.66 190.197 226.579 190.197 225.138C190.197 223.697 191.097 222.617 191.998 222.617C193.078 222.617 193.799 223.877 193.799 225.138Z" fill="white"/>
<path d="M194.519 228.38C194.519 229.101 194.159 229.641 193.619 229.641C193.078 229.641 192.718 229.101 192.718 228.38C192.718 227.66 193.078 227.119 193.619 227.119C194.159 227.299 194.519 227.84 194.519 228.38Z" fill="white"/>
<path d="M292.679 195.42C289.437 195.42 287.456 191.998 289.077 189.116C291.058 185.874 293.4 180.111 299.163 179.39C336.806 174.707 339.508 165.342 343.29 168.584C347.253 171.826 337.167 187.315 323.839 190.197C314.653 192.358 298.983 195.24 292.679 195.42Z" fill="#D29221"/>
<path d="M333.204 179.571C333.204 182.272 330.863 184.434 328.161 184.434C325.46 184.434 323.298 182.092 323.478 179.391C323.478 176.689 325.82 174.528 328.521 174.528C331.043 174.528 333.204 176.869 333.204 179.571Z" fill="white"/>
<path d="M294.661 189.476C294.661 189.476 295.741 182.992 302.045 181.912C308.349 180.831 318.435 177.949 319.696 179.21C321.317 181.011 322.758 186.415 315.914 188.396C309.069 190.377 295.021 193.979 294.661 189.476Z" fill="white"/>
<path d="M206.047 187.675C205.326 187.135 204.245 186.415 203.165 185.334C203.165 184.433 203.165 183.353 203.345 182.092C203.525 179.751 204.065 176.869 204.966 173.807C205.326 172.906 205.686 172.006 206.047 171.105C208.028 173.807 208.208 179.39 208.568 182.812C208.928 185.694 207.487 188.576 206.047 187.675Z" fill="#D29221"/>
<path d="M206.046 181.552C205.686 183.173 204.606 182.993 203.345 182.092C203.525 179.751 204.065 176.869 204.966 173.807C206.407 176.869 206.046 181.552 206.046 181.552Z" fill="white"/>
<path d="M347.793 178.67C347.793 178.67 340.409 179.93 334.105 189.656C334.105 189.656 308.529 196.681 278.271 199.923C283.854 193.079 297.002 192.898 319.696 186.775C323.298 185.874 326.18 183.353 327.621 179.93C329.962 174.347 336.266 165.341 341.309 160.479C341.309 160.479 347.613 161.019 348.154 163.721C348.514 166.602 347.793 178.67 347.793 178.67Z" fill="#E39817"/>
<path d="M211.09 193.259C210.729 193.079 210.549 192.899 210.369 192.719C207.487 190.737 205.146 188.576 203.165 186.415C203.165 186.055 203.165 185.694 203.165 185.154C203.165 184.253 203.165 183.173 203.345 181.912V181.732C203.885 183.173 204.426 184.073 204.786 184.614C206.227 186.235 211.09 193.259 211.09 193.259Z" fill="#D29221"/>
<path d="M370.487 152.013C370.487 152.013 371.748 142.287 382.555 142.648C393.361 143.008 396.603 150.573 396.423 153.815C396.243 157.057 376.431 156.696 372.108 155.616C370.847 155.255 370.487 152.013 370.487 152.013Z" fill="#323233"/>
<path d="M348.334 145.35C348.334 145.35 348.514 143.369 341.489 142.828C307.809 140.487 301.145 144.99 301.145 144.99L348.334 145.35Z" fill="#323233"/>
<path d="M337.707 144.449L346.713 149.312C347.433 149.672 347.433 150.753 346.713 151.113C346.532 151.293 346.172 151.293 345.812 151.113L333.384 144.629L337.707 144.449Z" fill="#323233"/>
<path d="M299.523 144.989C299.523 144.989 299.704 143.008 292.679 142.468C258.999 140.126 252.335 144.629 252.335 144.629L299.523 144.989Z" fill="#323233"/>
<path d="M288.717 144.088L297.722 148.951C298.443 149.312 298.443 150.392 297.722 150.752C297.542 150.933 297.182 150.933 296.822 150.752L284.394 144.268L288.717 144.088Z" fill="#323233"/>
<path d="M479.274 44.3075L479.634 30.9794L508.812 38.3639L508.632 49.5307L479.274 44.3075Z" fill="#3F6DAB"/>
<path d="M501.225 190.506C567.444 130.4 587.819 70.2938 591.894 53.4844L590.875 179.809C557.256 184.394 536.881 186.431 501.225 190.506Z" fill="#4978AF" fill-opacity="0.3"/>
<defs>
<linearGradient id="paint0_linear_1_995" x1="334.15" y1="-33.6188" x2="334.15" y2="105.95" gradientUnits="userSpaceOnUse">
<stop stop-color="#7FCFFF"/>
<stop offset="1" stop-color="white"/>
</linearGradient>
</defs>
</svg>
