<svg width="75" height="46" viewBox="0 0 75 46" fill="none" xmlns="http://www.w3.org/2000/svg">
<ellipse cx="23.0161" cy="22.6337" rx="22.541" ry="22.6337" fill="#BAE3FB"/>
<path d="M52.1284 0H15.6153C14.6092 0 13.7939 0.818612 13.7939 1.82881V37.691C13.7939 38.7012 14.6092 39.5198 15.6153 39.5198H23.6291C23.2128 38.8231 22.9699 38.0045 22.9699 37.1336C22.9699 36.7504 23.022 36.3673 23.1087 36.0189H17.2805V3.50087H50.4632V36.0363H32.0418C32.1285 36.3847 32.1806 36.7679 32.1806 37.151C32.1806 38.0219 31.9377 38.8405 31.5214 39.5372H52.1284C52.1457 39.5372 52.1804 39.5372 52.1977 39.5372C52.8742 39.5198 53.4466 39.1192 53.7415 38.5618C53.8803 38.3006 53.9497 38.0219 53.9497 37.7084V1.82881C53.9497 0.818612 53.1344 0 52.1284 0Z" fill="#3F6DAB"/>
<path d="M29.3186 11.6869H12.389C11.3309 11.6869 10.4636 10.8161 10.4636 9.75363C10.4636 8.69118 11.3309 7.82031 12.389 7.82031H29.3186C30.3767 7.82031 31.244 8.69118 31.244 9.75363C31.244 10.8161 30.3767 11.6869 29.3186 11.6869Z" fill="#3F6DAB"/>
<path d="M27.8442 19.4377H9.61363C8.55553 19.4377 7.68823 18.5668 7.68823 17.5044C7.68823 16.4419 8.55553 15.571 9.61363 15.571H27.8442C28.9023 15.571 29.7696 16.4419 29.7696 17.5044C29.7696 18.5668 28.9023 19.4377 27.8442 19.4377Z" fill="#3F6DAB"/>
<path d="M35.5804 36.0364C35.0427 32.0827 31.6602 29.0347 27.5666 29.0347C23.473 29.0347 20.1078 32.0827 19.5528 36.0364C19.5007 36.4022 19.4834 36.7679 19.4834 37.1511C19.4834 37.9872 19.6048 38.7883 19.8303 39.5373C20.8364 42.864 23.9239 45.2676 27.5666 45.2676C31.2092 45.2676 34.2794 42.8466 35.3029 39.5373C35.5283 38.7883 35.6498 37.9872 35.6498 37.1511C35.6498 36.7679 35.6324 36.3848 35.5804 36.0364ZM27.5666 41.7667C25.9014 41.7667 24.427 40.861 23.6291 39.5373C23.2128 38.8406 22.9699 38.022 22.9699 37.1511C22.9699 36.7679 23.022 36.3848 23.1087 36.0364C23.6117 34.0334 25.4157 32.5355 27.5666 32.5355C29.7175 32.5355 31.5388 34.0334 32.0245 36.0364C32.1112 36.3848 32.1632 36.7679 32.1632 37.1511C32.1632 38.022 31.9204 38.8406 31.5041 39.5373C30.7062 40.861 29.2491 41.7667 27.5666 41.7667Z" fill="#3F6DAB"/>
<path d="M69.6651 35.7403C69.0059 31.9259 65.6929 29.0172 61.7033 29.0172C58.4076 29.0172 55.5629 31.0028 54.314 33.8418C54.2619 33.9637 54.2099 34.0682 54.1752 34.1901C54.0885 34.3992 54.0191 34.6256 53.9497 34.852C53.7415 35.5835 53.6201 36.3499 53.6201 37.1337C53.6201 37.6039 53.6548 38.0742 53.7415 38.527C53.7936 38.858 53.8803 39.1889 53.967 39.5024C54.9731 42.8291 58.0607 45.2327 61.7033 45.2327C65.3459 45.2327 68.4162 42.8117 69.4396 39.5024C69.6651 38.7535 69.7865 37.9523 69.7865 37.1162C69.7865 36.6634 69.7518 36.1931 69.6651 35.7403ZM61.7033 41.7667C60.0381 41.7667 58.5637 40.861 57.7658 39.5372C57.3495 38.8406 57.1066 38.0219 57.1066 37.1511C57.1066 36.6634 57.176 36.1931 57.3148 35.7577C57.9045 33.8941 59.6565 32.5355 61.7033 32.5355C63.7501 32.5355 65.5021 33.8941 66.0918 35.7577C66.2306 36.1931 66.3 36.6634 66.3 37.1511C66.3 38.0219 66.0571 38.8406 65.6408 39.5372C64.8429 40.861 63.3685 41.7667 61.7033 41.7667Z" fill="#3F6DAB"/>
<path d="M73.8108 22.5727C73.4813 22.1896 72.9956 21.9631 72.4579 21.9631H52.4234C51.8856 21.9631 51.4 22.1896 51.0704 22.5727C50.8622 22.7992 50.7235 23.0604 50.6541 23.3739C50.6194 23.5133 50.6021 23.67 50.6021 23.8268V37.6735C50.6021 38.6837 51.3826 39.5023 52.3713 39.5372C52.3887 39.5372 52.4234 39.5372 52.4407 39.5372H57.7832C57.3669 38.8405 57.1241 38.0219 57.1241 37.151C57.1241 36.6633 57.1935 36.193 57.3323 35.7576H54.3314V25.7601H70.5845V35.7576H66.144C66.2827 36.193 66.3521 36.6633 66.3521 37.151C66.3521 38.0219 66.1093 38.8405 65.693 39.5372H72.215C73.3599 39.5372 74.2965 38.5966 74.2965 37.4297V23.8268C74.2965 23.3391 74.1231 22.9037 73.8108 22.5727Z" fill="#3F6DAB"/>
<path d="M62.5533 10.8161C62.2064 10.4504 61.7381 10.2588 61.2351 10.2588H50.6367L50.8796 22.5728H73.8108L62.5533 10.8161ZM54.5742 14.4389H60.2463L68.2428 22.6251L54.5742 22.5902V14.4389Z" fill="#3F6DAB"/>
</svg>
