<svg width="30" height="30" viewBox="0 0 30 30" fill="none" xmlns="http://www.w3.org/2000/svg">
<path d="M18.97 10.178C18.4831 10.178 18.0898 10.5712 18.0898 11.0581C18.0898 11.545 18.4831 11.9383 18.97 11.9383C19.4569 11.9383 19.8501 11.545 19.8501 11.0581C19.8501 10.5712 19.4569 10.178 18.97 10.178Z" fill="white"/>
<path d="M15.0656 11.3015C13.0244 11.3015 11.3765 12.9588 11.3765 14.9907C11.3765 17.0319 13.0338 18.6798 15.0656 18.6798C17.1068 18.6798 18.7547 17.0225 18.7547 14.9907C18.7547 12.9588 17.0974 11.3015 15.0656 11.3015ZM15.0656 17.3689C13.7641 17.3689 12.6967 16.3109 12.6967 15C12.6967 13.6892 13.7547 12.6311 15.0656 12.6311C16.3671 12.6311 17.4345 13.6892 17.4345 15C17.4345 16.3109 16.3671 17.3689 15.0656 17.3689Z" fill="white"/>
<path d="M17.9963 22.5H12.0037C9.52247 22.5 7.5 20.4775 7.5 17.9963V12.0037C7.5 9.52247 9.52247 7.5 12.0037 7.5H17.9963C20.4775 7.5 22.5 9.52247 22.5 12.0037V17.9963C22.5 20.4775 20.4775 22.5 17.9963 22.5ZM12.0037 8.91386C10.2996 8.91386 8.91386 10.2996 8.91386 12.0037V17.9963C8.91386 19.7004 10.2996 21.0861 12.0037 21.0861H17.9963C19.7004 21.0861 21.0861 19.7004 21.0861 17.9963V12.0037C21.0861 10.2996 19.7004 8.91386 17.9963 8.91386H12.0037Z" fill="white"/>
<circle cx="15" cy="15" r="14.25" stroke="white" stroke-width="1.5"/>
</svg>
