<svg width="21" height="16" viewBox="0 0 21 16" fill="none" xmlns="http://www.w3.org/2000/svg">
<path d="M1.73942 0.523655L8.68902 8.40066C9.0848 8.8481 9.65243 9.10564 10.2513 9.10564C10.8476 9.10564 11.4178 8.8481 11.8136 8.40066L18.6434 0.658927C18.7007 0.593892 18.7658 0.547067 18.8361 0.505445C18.5471 0.377977 18.2268 0.307739 17.8909 0.307739H2.6117C2.28882 0.307739 1.98418 0.372774 1.70557 0.489836C1.71598 0.502843 1.729 0.513249 1.73942 0.523655Z" fill="#5589C9"/>
<path d="M19.888 1.41589C19.8568 1.49654 19.8151 1.57198 19.7552 1.63961L12.9254 9.38135C12.2484 10.1488 11.2746 10.5884 10.2513 10.5884C9.22798 10.5884 8.25415 10.1488 7.57716 9.38135L0.627554 1.50434C0.614535 1.48873 0.60412 1.47052 0.591101 1.45491C0.377587 1.8113 0.25 2.22493 0.25 2.66976V13.3329C0.25 14.6362 1.30715 15.6923 2.61167 15.6923H17.8909C19.1954 15.6923 20.25 14.6362 20.25 13.3329V2.66716C20.2526 2.20672 20.1172 1.78009 19.888 1.41589Z" fill="#5589C9"/>
</svg>
