<svg width="495" height="350" viewBox="0 0 495 350" fill="none" xmlns="http://www.w3.org/2000/svg">
<path d="M404.744 170.433C404.744 171.194 404.744 171.955 404.744 172.717C404.744 173.478 404.744 174.239 404.649 175.096C404.649 175.191 404.649 175.191 404.649 175.286C404.649 176.333 404.553 177.284 404.553 178.236C404.458 179.568 404.363 180.805 404.268 182.137C404.173 183.47 404.078 184.897 403.887 186.229C403.792 186.991 403.697 187.752 403.602 188.418C403.507 188.989 403.411 189.56 403.411 190.226C402.841 194.889 401.984 199.552 400.937 204.119C400.842 204.69 400.652 205.261 400.557 205.832C400.462 206.308 400.366 206.784 400.176 207.26C400.176 207.45 400.081 207.545 400.081 207.736C399.986 208.211 399.795 208.687 399.7 209.163C399.51 209.734 399.415 210.305 399.224 210.876C399.034 211.447 398.939 212.018 398.749 212.589C398.558 213.16 398.463 213.731 398.273 214.302C398.083 214.873 397.892 215.444 397.797 216.014C397.416 217.156 397.131 218.203 396.75 219.345C396.56 219.916 396.37 220.392 396.179 220.963C395.989 221.534 395.799 222.01 395.608 222.581C395.418 223.056 395.228 223.532 395.133 224.008C394.942 224.674 394.657 225.245 394.466 225.816C394.276 226.387 394.086 226.863 393.8 227.434C393.61 228.005 393.42 228.481 393.134 229.051C392.278 231.145 391.326 233.239 390.375 235.332C389.613 236.855 388.947 238.377 388.186 239.9C387.71 240.947 387.139 241.993 386.568 242.945C386.283 243.421 385.997 243.896 385.712 244.467C385.141 245.419 384.57 246.466 383.999 247.417C383.428 248.369 382.857 249.416 382.286 250.367C381.429 251.795 380.478 253.222 379.526 254.65C379.336 254.935 379.241 255.125 379.05 255.316C378.86 255.601 378.765 255.792 378.575 255.982C378.289 256.458 377.909 256.933 377.623 257.409C376.957 258.361 376.291 259.217 375.72 260.169C375.054 261.025 374.388 261.977 373.721 262.833C373.626 262.929 373.626 263.024 373.531 263.119C372.96 263.88 372.294 264.737 371.723 265.498C371.342 265.974 370.962 266.449 370.581 266.925C370.201 267.401 369.82 267.782 369.534 268.258C369.154 268.733 368.773 269.114 368.488 269.59C368.107 269.97 367.726 270.446 367.346 270.827C366.965 271.303 366.584 271.683 366.204 272.064C365.443 272.92 364.681 273.777 363.92 274.538C361.636 277.012 359.257 279.391 356.783 281.675C356.402 282.056 355.926 282.436 355.546 282.817C355.165 283.198 354.689 283.578 354.309 283.959C353.833 284.34 353.452 284.72 353.072 285.101C352.215 285.862 351.359 286.528 350.502 287.29C350.027 287.67 349.646 288.051 349.17 288.336C348.694 288.717 348.314 289.098 347.838 289.383C347.362 289.764 346.981 290.049 346.506 290.43C346.03 290.811 345.554 291.191 345.078 291.477C344.698 291.762 344.317 292.048 343.936 292.333C343.46 292.714 342.985 293.094 342.414 293.475C341.748 293.951 341.081 294.427 340.32 294.902C339.654 295.378 338.988 295.854 338.227 296.33C337.561 296.806 336.99 297.186 336.323 297.567C335.467 298.138 334.706 298.614 333.849 299.185C333.373 299.47 332.993 299.756 332.517 300.041C332.041 300.327 331.565 300.612 331.09 300.898C329.662 301.754 328.14 302.61 326.617 303.467C326.141 303.752 325.665 304.038 325.094 304.323C324.619 304.609 324.048 304.894 323.572 305.18C322.811 305.56 322.049 305.941 321.288 306.322C320.527 306.702 319.765 307.083 319.004 307.464C318.528 307.749 317.957 307.939 317.482 308.225C317.006 308.51 316.435 308.701 315.959 308.986C315.483 309.272 314.912 309.462 314.437 309.652C313.866 309.938 313.39 310.128 312.819 310.318C312.343 310.509 311.772 310.794 311.201 310.985C310.345 311.365 309.488 311.651 308.727 312.031C307.68 312.507 306.538 312.888 305.491 313.268C305.206 313.364 305.016 313.459 304.825 313.554C304.254 313.744 303.779 313.935 303.208 314.125C302.161 314.506 301.019 314.886 299.972 315.267C297.783 316.028 295.595 316.694 293.311 317.265C292.835 317.455 292.264 317.551 291.788 317.646C291.217 317.836 290.551 317.931 289.98 318.122C289.409 318.312 288.743 318.407 288.172 318.597C287.696 318.693 287.125 318.883 286.65 318.978C286.079 319.073 285.413 319.264 284.842 319.359C284.176 319.549 283.509 319.644 282.843 319.739C282.177 319.835 281.511 320.025 280.94 320.12C279.132 320.501 277.324 320.786 275.421 321.072C274.564 321.167 273.613 321.357 272.756 321.452C272.185 321.547 271.614 321.643 270.948 321.643C270.377 321.738 269.806 321.738 269.14 321.833C268.569 321.928 267.998 321.928 267.332 322.023C266.761 322.118 266.095 322.118 265.524 322.214C264.763 322.309 263.906 322.309 263.145 322.404C262.384 322.499 261.527 322.499 260.766 322.499C259.814 322.499 258.863 322.594 257.911 322.594C257.055 322.594 256.103 322.689 255.247 322.689C254.485 322.689 253.724 322.689 252.963 322.689C251.155 322.689 249.442 322.689 247.634 322.594C247.158 322.594 246.682 322.594 246.206 322.499C245.731 322.499 245.35 322.499 244.874 322.404C244.494 322.404 244.113 322.404 243.732 322.309C242.876 322.309 242.019 322.214 241.258 322.118C240.878 322.118 240.592 322.118 240.211 322.023C238.879 321.928 237.547 321.833 236.31 321.643C235.739 321.547 235.263 321.547 234.692 321.452C234.121 321.357 233.455 321.357 232.884 321.262C232.599 321.262 232.218 321.167 231.932 321.167C231.171 321.072 230.315 320.976 229.458 320.786C228.887 320.691 228.221 320.596 227.65 320.501H227.555C227.079 320.405 226.603 320.31 226.033 320.215C224.795 320.025 223.558 319.739 222.321 319.454C221.75 319.359 221.084 319.168 220.513 319.073C220.513 319.073 220.513 319.073 220.418 319.073C219.657 318.883 218.8 318.693 218.039 318.502C217.468 318.407 216.897 318.217 216.326 318.122C216.231 318.122 216.231 318.122 216.136 318.026C215.755 317.931 215.375 317.836 214.994 317.741C213.281 317.265 211.663 316.885 209.95 316.314C209.57 316.218 209.284 316.123 208.999 316.028C208.523 315.838 207.952 315.743 207.476 315.552C207.096 315.457 206.715 315.267 206.334 315.172C205.668 314.981 205.002 314.696 204.336 314.505C203.479 314.22 202.528 313.935 201.671 313.554C198.15 312.317 194.63 310.889 191.204 309.367C188.539 308.225 185.97 306.988 183.496 305.656C182.83 305.37 182.259 304.989 181.593 304.704C181.117 304.419 180.641 304.228 180.165 303.943C179.309 303.467 178.452 302.991 177.596 302.515C177.406 302.42 177.12 302.23 176.93 302.135C176.073 301.659 175.312 301.183 174.456 300.707C174.075 300.517 173.694 300.231 173.314 300.041C171.03 298.614 168.841 297.186 166.748 295.759C165.225 294.712 163.702 293.665 162.18 292.523C160.657 291.382 159.23 290.24 157.802 289.098C155.614 287.385 153.52 285.577 151.427 283.674C149.999 282.436 148.667 281.199 147.335 279.867C146.003 278.535 144.67 277.298 143.433 275.966C142.101 274.633 140.864 273.301 139.627 271.874C137.724 269.78 135.916 267.591 134.108 265.403C133.537 264.737 133.061 263.975 132.49 263.309C130.206 260.359 128.017 257.219 125.924 254.079C125.448 253.317 124.972 252.651 124.496 251.89C124.116 251.224 123.64 250.558 123.259 249.892C122.688 248.94 122.117 248.084 121.642 247.132C121.166 246.276 120.69 245.514 120.214 244.658C119.833 243.992 119.453 243.421 119.167 242.755C119.072 242.469 118.882 242.279 118.787 241.993C118.501 241.517 118.216 241.042 118.025 240.471C117.835 240.09 117.645 239.709 117.359 239.234C116.979 238.472 116.598 237.711 116.217 236.95C115.456 235.427 114.79 233.905 114.029 232.287C113.934 232.097 113.934 232.001 113.838 231.811C113.172 230.384 112.601 228.861 111.935 227.434C111.84 227.243 111.745 227.053 111.745 226.863C104.798 209.448 100.992 190.512 100.992 170.623C100.992 158.347 102.419 146.452 105.179 135.033C110.888 111.338 122.117 89.7366 137.533 71.8465C141.816 66.803 146.383 62.1401 151.332 57.6676C152.759 56.4305 154.091 55.1934 155.519 54.0515C156.375 53.2902 157.231 52.6241 158.183 51.8628C159.23 51.0063 160.277 50.245 161.323 49.4838C163.702 47.6757 166.177 45.8677 168.746 44.1548C172.838 41.3951 177.025 38.921 181.402 36.542C189.11 32.4501 197.199 28.9291 205.573 26.1695C207.381 25.5985 209.189 25.0275 211.092 24.4566C219.847 21.9824 228.887 20.1744 238.213 19.3179C243.066 18.8421 248.015 18.5566 252.963 18.5566H253.058C275.516 18.5566 296.927 23.505 316.149 32.2597C318.148 33.2113 320.241 34.1629 322.145 35.2097C340.32 44.5354 356.307 57.3821 369.344 72.7981C373.912 78.2222 378.004 83.9318 381.81 89.9269C381.81 89.9269 381.81 89.8318 381.715 89.8318C382.667 91.2592 383.523 92.7818 384.379 94.3043C385.236 95.8269 386.092 97.3495 386.949 98.872C387.329 99.6333 387.805 100.395 388.186 101.156C388.566 101.917 388.947 102.583 389.328 103.345C389.708 104.201 390.089 104.962 390.47 105.724C390.85 106.485 391.231 107.341 391.612 108.198C392.373 109.815 393.039 111.338 393.705 112.956C393.705 113.051 393.8 113.051 393.8 113.146C394.086 113.907 394.371 114.669 394.657 115.43C394.847 115.906 395.037 116.382 395.228 116.857C395.418 117.333 395.608 117.809 395.799 118.285C396.084 119.141 396.37 119.902 396.655 120.759C396.941 121.615 397.226 122.377 397.512 123.233C397.987 124.66 398.463 126.088 398.844 127.61C398.939 128.086 399.129 128.467 399.224 128.943C399.32 129.323 399.415 129.609 399.51 129.989C399.605 130.275 399.605 130.465 399.7 130.751C399.986 131.988 400.366 133.13 400.652 134.367C400.842 135.223 401.128 136.08 401.318 137.031C401.603 138.078 401.794 139.125 401.984 140.172C402.079 140.647 402.174 141.123 402.27 141.599C402.365 141.885 402.365 142.075 402.46 142.36C402.555 142.836 402.65 143.312 402.745 143.788C403.031 145.31 403.221 146.833 403.507 148.355C403.602 148.641 403.602 149.022 403.602 149.307C403.697 150.068 403.792 150.734 403.887 151.496C404.078 153.209 404.268 154.922 404.458 156.634C404.553 157.491 404.649 158.442 404.649 159.299C404.744 160.06 404.744 160.917 404.839 161.678C404.839 162.059 404.839 162.439 404.934 162.82C404.934 163.486 405.029 164.152 405.029 164.818C405.029 165.104 405.029 165.389 405.029 165.675C404.649 167.102 404.744 168.815 404.744 170.433Z" fill="url(#paint0_radial_1_3338)"/>
<path fill-rule="evenodd" clip-rule="evenodd" d="M276.563 27.7869V28.4531C274.374 29.7853 272.661 31.5934 270.663 33.2111C269.806 33.8772 269.045 34.6385 268.188 35.3046C267.522 35.8756 267.237 36.5417 267.427 37.3981C267.808 39.9675 268.093 42.632 268.569 45.2013C268.95 47.0093 268.569 48.7222 267.998 50.4351C267.237 53.0996 265.809 54.7173 263.05 55.098C262.479 55.1931 261.908 55.5738 261.337 55.7641C260.576 55.9544 260.48 56.4302 260.956 57.0012C261.622 57.9528 262.384 58.8092 263.05 59.856C263.43 60.427 264.192 60.9028 264.001 61.5689C263.716 62.3302 262.764 61.9495 262.193 62.0447C261.147 62.235 260.1 62.235 259.053 62.4253C257.911 62.5205 256.96 63.5673 256.769 64.8043C256.769 65.2801 257.055 65.3753 257.34 65.4705C258.863 65.9463 260.29 66.4221 261.813 66.8979C262.098 66.993 262.479 67.1834 262.764 67.2785C262.764 67.8495 262.288 67.7543 261.908 67.9446C258.387 69.0866 254.961 70.4188 251.345 71.3704C248.871 72.0365 247.158 73.5591 245.635 75.4623C245.54 75.5575 245.54 75.6526 245.445 75.7478C244.398 77.3655 242.971 78.0316 241.068 78.0316C240.116 78.0316 239.165 78.222 238.213 78.3171C237.166 78.4123 236.786 78.8881 236.405 79.7445C234.502 83.7413 232.598 87.6428 230.695 91.5444C229.363 94.3041 229.553 94.0186 227.365 92.496C224.319 90.3073 221.179 88.1186 218.134 86.0251C217.563 85.5493 217.182 85.1687 217.182 84.4074C216.897 81.7429 216.611 79.0784 216.231 76.4139C216.136 75.4623 216.041 74.5107 215.945 73.5591C215.755 72.4172 216.041 71.4656 216.897 70.6091C217.468 70.0382 217.849 69.372 218.42 68.8011C219.371 67.6592 219.371 67.564 218.515 66.3269C217.849 65.2802 217.182 64.2334 216.326 63.2818C213.947 60.427 212.52 56.906 210.902 53.5754C209.95 51.4819 208.904 49.3884 207.952 47.2948C207.571 46.4384 207 46.3432 206.144 46.3432C202.147 46.3432 198.15 46.3432 194.154 46.3432C193.488 46.3432 192.726 46.6287 192.25 46.0577C191.584 45.3916 191.013 44.6303 190.442 43.8691C190.157 43.4884 190.538 43.2029 190.823 43.1078C191.775 42.5368 192.631 42.061 193.678 41.3949C192.155 40.1578 190.252 40.0626 188.729 39.3013C188.825 38.6352 189.491 38.5401 189.871 38.4449C191.679 37.6836 193.488 36.9223 195.391 36.2562C196.437 35.8756 196.913 35.2095 197.008 34.1627C197.104 33.1159 197.294 32.1643 197.389 31.1176C197.484 30.2611 197.77 29.7853 198.531 29.4047C200.815 28.3579 203.004 27.4063 205.287 26.3595C206.524 25.7886 207.762 25.2176 208.904 24.7418C209.379 24.5515 209.76 24.5515 210.236 24.6467C210.426 24.6467 210.616 24.6467 210.807 24.7418C213.281 25.0273 215.755 25.2176 218.229 25.5031C221.94 25.8837 225.557 26.2644 229.268 26.7402C229.648 26.7402 229.934 26.9305 230.219 26.645C230.41 26.3595 230.124 25.9789 230.029 25.6934C229.744 25.1225 229.363 24.6466 229.078 24.0757C228.602 23.1241 228.602 23.0289 229.648 22.6483C232.408 21.6015 235.263 20.5548 238.023 19.508C242.876 19.0322 247.824 18.7467 252.772 18.7467H252.868C255.056 19.6031 257.245 20.4596 259.434 21.4112C259.719 21.5064 259.909 21.6015 260.195 21.6967C260.48 21.7918 260.766 21.887 260.766 22.2676C260.766 22.5531 260.385 22.6483 260.195 22.7434C259.339 23.0289 258.482 23.4096 257.626 23.695C257.055 23.8854 256.579 24.0757 256.103 24.4563C256.769 25.4079 257.816 25.7886 258.577 26.4547C261.147 28.2627 261.147 28.2627 264.192 27.5015C266.285 27.0257 268.284 26.9305 270.377 27.3111C272.471 27.4063 274.469 27.5015 276.563 27.7869Z" fill="white"/>
<path fill-rule="evenodd" clip-rule="evenodd" d="M242.019 217.822C237.927 215.824 234.026 213.54 229.553 212.303C226.699 211.446 223.844 210.495 221.084 209.638C220.228 209.353 219.847 208.972 219.847 208.021C219.847 206.688 219.657 205.356 219.562 204.024C219.562 202.882 218.991 202.216 217.944 201.93C217.753 201.93 217.468 201.93 217.278 201.835C216.992 200.408 215.66 200.122 214.613 199.551C214.328 199.456 214.137 199.266 213.852 199.171C212.995 198.79 212.044 198.885 211.092 198.885C210.426 198.885 210.141 199.171 210.141 199.837C210.141 201.169 209.284 201.455 209.665 199.646C209.855 198.885 209.475 198.409 208.808 198.029C207.666 197.363 206.525 196.601 205.383 195.935C205.192 195.459 204.907 195.269 204.431 195.174C203.86 194.032 202.718 193.271 201.862 192.319C201.386 191.748 200.815 191.558 200.054 191.558C199.483 191.558 198.912 191.558 198.341 191.558C196.533 191.367 194.725 191.463 193.012 190.321C190.728 188.798 190.633 188.798 188.539 190.511C187.397 191.463 187.017 191.367 186.446 190.035C186.351 189.845 186.255 189.559 186.065 189.464C185.589 188.988 185.399 189.369 185.304 189.845C185.113 189.845 184.923 189.845 184.733 189.845C184.542 189.655 184.352 189.464 184.162 189.655C181.973 191.558 179.118 192.7 177.501 195.269C177.215 194.793 178.072 193.937 176.93 193.651C175.026 193.176 173.028 192.605 171.03 193.176C170.649 193.271 170.173 193.366 169.697 193.271C169.126 191.082 167.794 190.321 165.32 190.797C166.367 191.938 167.318 192.985 168.27 194.032C168.46 194.222 168.746 193.937 169.031 193.937C169.126 195.174 170.364 195.269 171.125 195.745C171.791 196.221 172.267 196.126 172.743 195.364C173.885 193.747 173.98 193.842 175.312 195.364C175.407 195.459 175.597 195.555 175.597 195.745C175.978 196.506 176.454 196.125 177.025 195.935C176.739 197.363 176.644 198.885 177.025 200.408C177.405 202.025 177.025 203.548 175.788 204.785C175.217 205.356 174.741 206.117 174.17 206.688C173.98 206.974 173.98 207.354 173.98 207.64C173.694 207.83 173.504 208.116 173.504 208.496C173.218 210.685 172.552 212.874 172.647 215.158C172.647 215.443 172.647 215.729 172.647 216.014C172.647 216.966 172.647 217.917 172.647 218.869C172.172 219.345 172.267 219.63 172.838 219.916C173.599 221.058 174.36 222.295 175.217 223.437C176.454 225.054 177.31 226.767 177.786 228.67C178.167 230.003 178.643 231.24 179.118 232.477C179.309 233.238 179.689 233.714 180.355 234.19C181.973 235.427 183.496 236.854 185.209 238.091C186.16 238.853 186.921 239.899 188.254 240.09C188.254 240.375 188.349 240.565 188.539 240.756C188.539 241.517 188.634 242.278 188.825 243.04C189.015 243.706 189.205 244.467 189.11 245.228C188.73 248.749 188.444 252.365 187.778 255.886C186.541 263.214 185.209 270.446 183.686 277.678C183.115 280.438 182.734 283.102 184.162 285.671C184.542 286.338 184.447 287.004 184.162 287.765C183.401 289.668 182.734 291.571 181.878 293.379C181.402 294.521 181.307 295.663 181.497 296.805C181.783 299.089 182.163 301.373 182.354 303.657C182.639 306.512 182.639 306.416 185.209 307.749C186.731 308.51 188.444 309.081 189.776 310.223C189.967 310.223 190.252 310.223 190.442 310.223C190.442 308.795 190.442 307.368 190.347 305.941C189.11 305.56 190.347 305.56 190.347 305.941C190.347 305.56 190.442 305.274 190.442 304.894C190.157 302.705 190.538 300.612 192.155 298.994C194.059 297.186 194.344 294.997 194.059 292.523C193.963 292.238 193.963 291.857 193.868 291.571C193.678 290.715 193.868 290.049 194.249 289.383C196.342 285.957 198.531 282.531 200.529 279.01C200.91 278.344 201.386 277.963 202.052 277.868C203.194 277.583 204.336 277.202 205.478 276.917C206.62 276.631 207 275.965 207.571 275.013C208.713 273.015 208.428 271.302 207.191 269.589C206.905 269.209 206.62 267.02 206.62 267.401C206.715 267.401 206.905 267.401 207 267.401C208.713 268.352 210.616 268.638 212.52 269.018C212.805 269.114 213.091 269.018 213.281 268.828C213.852 267.972 214.899 267.496 214.899 266.354C215.089 266.164 215.279 265.973 215.47 265.783C215.66 265.497 215.85 265.212 216.041 264.926C218.229 260.739 220.513 256.552 222.607 252.365C223.178 251.128 224.034 250.462 225.366 250.177C227.46 249.701 229.458 249.035 231.552 248.464C232.313 248.273 232.789 247.798 233.074 247.036C233.931 244.562 234.882 242.088 235.739 239.614C235.929 238.948 236.119 238.282 236.119 237.615C236.215 235.617 236.31 233.714 236.5 231.716C236.595 230.478 236.976 229.336 238.023 228.48C239.069 227.624 240.021 226.482 240.973 225.435C241.258 225.149 241.544 224.769 241.544 224.293C241.734 222.58 241.924 220.962 242.115 219.345C242.876 218.679 242.685 218.203 242.019 217.822Z" fill="#ABE1ED"/>
<path fill-rule="evenodd" clip-rule="evenodd" d="M190.918 64.709C190.062 64.5187 189.301 64.3284 188.444 64.1381C187.778 64.0429 187.302 63.7574 186.826 63.2816C185.589 62.0445 184.257 60.9026 183.115 59.5704C181.973 58.2381 180.831 57.6672 179.214 58.3333C178.738 58.5236 178.072 58.5236 177.596 58.6188C175.978 58.9042 174.36 59.1897 172.743 59.38C172.077 59.4752 171.696 59.2849 171.601 58.5236C171.41 57.6672 171.22 56.8107 171.03 55.8591C170.744 54.622 170.649 54.622 169.507 54.8123C169.222 54.9075 168.936 54.9075 168.651 55.0027C167.699 55.0978 167.319 55.6688 167.128 56.5252C166.938 57.6672 166.652 58.7139 166.367 59.7607C166.272 60.1413 166.272 60.6171 165.796 60.8075C165.415 60.7123 165.415 60.4268 165.415 60.1413C165.035 58.7139 164.749 57.2865 164.464 55.8591C164.369 55.2882 164.083 55.0978 163.512 55.2881C162.561 55.6688 161.704 56.0494 160.752 56.5252C160.372 56.7156 160.182 57.001 160.086 57.3817C159.515 59.5704 159.611 61.6639 161.038 63.6623C161.514 64.3284 161.99 64.6139 162.846 64.6139C165.32 64.6139 167.794 64.6139 170.269 64.6139C173.409 64.6139 176.264 65.6606 178.833 67.1832C182.164 69.1816 185.209 71.5606 188.349 73.8444C189.301 74.5106 189.205 74.7009 188.254 75.1767C185.589 76.4138 182.83 77.6509 180.165 78.8879C178.357 79.6492 178.547 79.5541 179.594 81.2669C179.975 81.9331 180.546 81.8379 181.212 81.7427C183.02 81.2669 184.638 81.4573 186.16 82.7895C188.349 84.5024 190.823 85.9298 193.107 87.5475C193.773 88.0233 194.249 88.1185 194.915 87.5475C195.486 87.0717 196.057 86.6911 196.723 86.2153C198.246 85.1685 198.246 85.0734 197.294 83.5508C196.533 82.2185 195.772 80.8863 195.105 79.5541C195.01 79.2686 194.82 78.9831 195.01 78.7928C195.296 78.4121 195.581 78.6025 195.962 78.6976C197.104 79.1734 198.246 79.6492 199.388 80.2202C200.53 80.696 200.53 80.696 201.005 79.6492C201.386 78.7928 201.767 77.9363 202.147 76.9847C202.623 75.8428 202.528 75.6525 201.481 74.8912C199.388 73.559 197.294 72.0364 195.105 70.7993C193.297 69.7525 192.155 68.6106 192.631 66.3268C192.441 65.1848 192.251 65.0897 190.918 64.709Z" fill="white"/>
<path fill-rule="evenodd" clip-rule="evenodd" d="M171.03 52.5284C169.412 52.8138 167.794 52.7187 166.177 53.0042C165.32 53.0993 164.273 52.8138 163.322 52.7187C161.514 52.4332 159.706 52.0526 157.898 51.7671C158.944 50.9106 159.991 50.1494 161.038 49.3881C161.419 49.4832 161.799 49.5784 162.275 49.4832C164.94 49.1977 167.509 49.1978 170.173 49.1978C171.125 49.1978 171.696 49.4832 172.172 50.3397C173.123 52.2429 173.123 52.1477 171.03 52.5284Z" fill="white"/>
<path fill-rule="evenodd" clip-rule="evenodd" d="M269.045 80.3154C268.283 79.6493 267.522 78.9832 266.761 78.317C266.475 78.0316 266.19 77.7461 265.714 77.7461C263.811 78.0316 261.717 77.6509 260.195 79.2687C259.624 79.8396 259.243 79.7445 258.863 79.1735C258.482 78.6025 258.006 78.3171 257.34 78.4122C256.674 78.4122 256.008 78.4122 255.722 79.1735C255.437 79.8396 255.056 80.5057 255.722 81.267C257.245 83.0751 258.767 84.788 261.337 85.1686C261.908 85.2638 262.383 85.2638 262.954 84.9783C264.953 83.8364 266.856 82.5993 268.854 81.4573C269.52 81.0767 269.616 80.7912 269.045 80.3154Z" fill="white"/>
<path fill-rule="evenodd" clip-rule="evenodd" d="M305.206 36.256C307.49 38.5399 309.678 40.7286 310.915 43.8689C311.296 44.9156 311.772 44.9156 312.438 44.0592C313.865 42.0608 315.293 40.0624 316.815 38.0641C317.291 37.4931 317.196 37.1125 316.53 36.7318C314.722 35.8754 313.009 35.0189 311.296 34.0673C311.011 33.9722 310.82 33.7818 310.535 33.877C308.536 34.3528 306.538 34.3528 304.54 34.9238C304.445 35.6851 304.92 35.9705 305.206 36.256Z" fill="white"/>
<path d="M210.902 111.052C210.806 113.336 210.902 113.336 208.713 113.717C204.621 114.383 200.434 115.144 196.342 115.81C195.581 115.905 195.01 116.476 194.439 116.857C192.726 118.379 191.013 119.902 189.205 121.425C189.015 121.615 188.92 121.71 189.11 122.186C190.442 121.615 191.679 120.949 192.916 120.283C193.868 119.807 194.915 119.236 195.866 118.665C196.437 118.284 197.008 118.379 197.579 118.855C198.055 119.236 198.436 119.712 197.96 120.283C196.532 121.9 197.294 123.328 198.245 124.85C198.721 125.707 199.292 126.087 200.244 125.992C201.005 125.992 201.671 125.992 202.242 126.563C201.576 127.42 199.007 128.942 197.199 129.513C196.723 128.847 197.294 128.371 197.389 127.8C197.484 127.229 197.294 126.944 196.628 127.039C195.961 127.039 195.39 127.61 194.724 127.705C194.439 127.705 194.249 127.705 193.963 127.705C192.631 128.466 191.299 129.133 189.966 129.894C189.11 130.274 188.444 130.845 188.253 131.797C187.587 134.366 185.874 136.079 183.781 137.412C182.639 138.173 181.497 139.124 180.355 139.886C179.499 140.457 179.023 141.218 179.118 142.265C179.213 143.407 179.118 144.644 179.118 145.786C179.213 146.737 178.833 147.213 178.071 147.689C176.168 149.021 174.265 150.449 172.267 151.686C171.505 152.161 171.125 152.637 171.315 153.589C171.886 156.729 172.362 159.869 172.837 163.01C172.933 163.581 173.313 164.247 172.457 164.532C171.505 164.818 170.744 164.532 170.363 163.676C169.792 162.248 169.317 160.726 168.746 159.298C168.65 158.918 168.46 158.537 168.365 158.157C167.794 156.634 167.794 156.729 166.081 156.634C164.368 156.539 162.75 156.824 161.038 156.919C160.276 157.015 159.705 157.49 159.134 157.871C158.278 158.442 157.517 158.632 156.47 158.347C152.759 157.49 152.283 157.586 148.476 158.632C147.81 158.823 147.43 159.108 147.239 159.869C147.049 160.821 146.859 161.773 146.668 162.724C146.383 162.915 146.193 163.2 145.907 163.39C146.478 164.056 146.383 164.818 146.097 165.484C145.717 166.816 145.907 167.958 146.288 169.29C146.954 171.193 147.525 173.097 148.001 175.095C148.286 175.951 148.762 176.427 149.618 176.522C151.426 176.713 153.33 176.808 155.138 176.998C155.994 177.093 156.47 176.713 156.755 175.951C157.041 175.19 157.421 174.429 157.802 173.668C158.468 172.431 160.276 171.86 161.609 172.335C162.179 172.621 162.37 172.811 162.084 173.477C161.609 174.619 161.323 175.856 160.657 176.903C160.657 177.189 160.657 177.474 160.371 177.664C160.467 178.711 160.467 179.758 160.086 180.805C159.8 180.995 159.61 181.28 159.325 181.471C159.515 181.851 160.276 181.756 160.086 182.422C160.276 182.422 160.562 182.422 160.752 182.422C161.989 182.327 163.321 182.232 164.559 181.947C166.081 181.566 166.652 182.422 167.413 183.469C166.176 184.04 165.129 184.516 164.083 184.992C165.415 185.372 166.271 184.421 167.604 184.23C167.984 185.943 167.699 187.561 167.699 189.179C167.699 189.464 167.508 189.655 167.223 189.75C166.176 190.035 165.129 189.94 164.178 189.274C163.512 188.798 163.226 188.227 163.512 187.371C163.702 186.99 163.988 186.609 163.607 186.134C162.941 186.229 163.226 186.8 163.131 187.18C162.846 187.847 162.75 187.847 162.084 187.085C161.799 187.085 161.609 186.99 161.513 186.705C160.276 186.514 159.23 186.134 158.563 184.992C158.373 184.897 158.278 184.801 158.183 184.706C157.517 184.706 156.851 184.706 156.089 184.706C155.613 184.992 155.233 185.277 155.233 184.421C155.233 184.135 155.328 183.945 155.328 183.659C155.138 183.659 154.947 183.659 154.757 183.659C154.471 184.04 154.186 183.945 153.901 183.659C150.951 180.805 151.712 181.376 147.334 181.28C146.668 181.28 146.002 181.09 145.431 180.805C142.196 178.997 138.96 177.284 135.63 175.571C134.583 175 134.107 174.334 134.297 173.192C134.488 171.955 133.917 170.908 133.156 169.956C129.444 165.198 125.733 160.536 122.117 155.682C121.356 154.636 120.499 154.35 119.357 154.731C119.357 155.587 119.928 156.158 120.309 156.824C122.593 160.44 124.877 164.056 127.16 167.673C127.351 167.958 127.446 168.148 127.636 168.434C127.922 168.91 127.636 169.195 127.16 169.195C126.59 169.29 126.209 169.1 125.828 168.719C123.354 165.769 120.309 163.295 119.072 159.394C118.501 157.586 117.549 155.873 116.883 154.16C116.693 153.589 116.407 153.208 116.122 152.732C116.027 152.447 115.836 152.161 115.741 151.781C114.314 150.924 112.982 150.163 111.554 149.307C110.983 149.021 110.793 148.545 110.507 148.069C108.89 144.929 107.177 141.694 105.559 138.553C105.178 137.792 105.083 137.126 105.083 136.27C105.083 135.794 105.083 135.318 105.083 134.937C110.793 111.242 122.022 89.641 137.438 71.7508C138.77 71.846 140.102 71.9412 141.435 72.0363C142.957 72.1315 144.48 72.1315 145.907 71.5605C147.334 71.0847 147.43 71.1799 148.001 72.6073C148.476 73.8444 148.762 75.1766 149.523 76.2234C149.999 76.1282 150.094 75.7476 150.189 75.4621C150.951 73.5589 151.617 71.5605 152.378 69.6573C152.759 68.7057 152.473 68.3251 151.712 67.9444C151.426 67.8492 151.141 67.5638 150.855 67.4686C149.618 66.9928 149.143 66.0412 149.143 64.8041C149.143 63.8525 149.238 62.8057 149.047 61.759C148.952 61.3783 149.143 61.0929 149.618 61.0929C149.713 61.0929 149.809 61.0929 149.999 61.0929C151.331 61.0929 152.949 60.6171 153.996 61.2832C155.138 62.0445 154.376 63.7574 154.471 65.0896C154.567 66.9928 154.567 66.8976 156.375 67.2783C161.038 68.2299 159.705 66.9928 161.894 71.3702C162.179 71.9411 162.37 72.5121 162.75 73.0831C163.226 74.0347 163.512 74.0347 164.083 73.0831C164.939 71.6557 165.7 70.3234 166.462 68.8008C166.842 68.0396 167.318 67.8492 168.079 68.1347C168.936 68.4202 169.792 68.5154 170.744 68.8008C171.22 68.9912 171.696 69.1815 171.505 69.8476C171.029 72.2266 170.458 74.5105 169.983 76.8895C169.792 77.6508 169.412 77.8411 168.65 77.7459C167.413 77.5556 166.081 77.4604 164.844 77.175C164.083 77.0798 163.607 77.175 163.036 77.6508C160.752 79.6491 158.468 81.6475 156.184 83.5507C155.613 84.0265 155.233 84.5975 154.757 85.2636C153.33 87.5475 151.997 89.7361 150.57 91.9248C150.094 92.6861 149.999 93.4474 150.475 94.3038C151.426 96.0167 152.283 97.8248 153.044 99.6328C153.425 100.584 154.091 101.06 155.138 101.346C159.039 102.488 162.941 103.725 166.842 104.962C167.889 105.247 168.555 105.818 168.841 106.865C169.507 108.863 170.268 110.862 170.934 112.955C171.22 113.812 171.6 114.192 172.647 114.192C176.454 114.097 175.597 114.668 176.644 111.147C177.405 108.292 178.071 105.438 178.833 102.488C179.023 101.822 179.118 101.251 178.737 100.68C177.025 98.0151 177.12 95.1603 177.786 92.2103C178.071 90.8781 177.976 89.5458 178.357 88.2136C178.547 87.3571 179.023 87.0717 179.784 87.262C180.641 87.4523 181.592 87.4523 182.449 87.4523C183.495 87.5475 184.542 87.8329 185.399 88.4991C186.445 89.3555 187.492 90.2119 188.634 90.9732C189.3 91.449 189.681 92.1152 189.871 92.8764C190.157 94.0184 190.537 95.1603 190.823 96.3022C191.203 97.7296 191.299 97.7296 192.631 96.9683C194.058 96.1119 195.581 95.2554 197.008 94.4942C198.15 93.9232 198.15 93.9232 198.816 95.0651C200.148 97.2538 201.481 99.3474 202.718 101.536C203.098 102.107 203.479 102.678 204.145 102.868C205.763 103.439 207.095 104.486 208.142 105.818C208.713 106.58 209.284 107.341 210.045 108.007C210.616 108.959 210.902 109.91 210.902 111.052Z" fill="white"/>
<path fill-rule="evenodd" clip-rule="evenodd" d="M182.163 175.095C181.022 174.048 180.165 173.287 179.309 172.431C178.928 172.05 178.452 171.86 177.976 171.765C176.073 171.194 174.265 170.623 172.362 170.052C171.03 169.671 168.46 170.527 167.414 171.574C167.604 171.765 167.889 171.574 168.08 171.574C170.744 170.813 173.123 171.289 175.407 172.811C176.359 173.477 177.025 173.858 176.454 175.19C178.357 175.19 180.07 175.19 182.163 175.095Z" fill="#ABE1ED"/>
<path fill-rule="evenodd" clip-rule="evenodd" d="M209.474 117.809C208.998 118.76 208.428 119.807 207.952 120.759C207.666 121.33 207.857 121.71 208.523 121.806C209.569 121.806 210.521 121.806 211.568 121.806C212.615 121.806 213.566 121.806 214.613 121.806C214.994 121.806 215.279 121.71 215.469 121.425C215.755 120.568 214.898 118.665 214.042 118.38C212.9 117.999 211.758 117.809 210.711 117.428C209.95 117.238 209.665 117.428 209.474 117.809Z" fill="white"/>
<path fill-rule="evenodd" clip-rule="evenodd" d="M165.51 80.3152C165.034 81.1717 164.559 82.0281 164.083 82.9797C163.893 83.3603 163.322 83.9313 163.892 84.3119C164.463 84.6926 164.844 85.549 165.701 85.1684C167.413 84.5974 169.126 84.0265 170.934 83.4555C170.934 83.2652 170.934 83.17 171.03 82.9797C169.602 82.0281 168.08 80.9813 166.652 80.0297C166.081 79.7442 165.701 79.8394 165.51 80.3152Z" fill="#ABE1ED"/>
<path fill-rule="evenodd" clip-rule="evenodd" d="M300.923 105.343C301.304 105.343 301.589 105.152 301.685 104.772C301.875 103.154 302.351 101.536 302.16 99.8232C299.686 101.155 299.115 102.488 300.067 104.676C300.162 105.057 300.543 105.247 300.923 105.343Z" fill="#ABE1ED"/>
<path fill-rule="evenodd" clip-rule="evenodd" d="M189.586 176.332C187.873 175.571 187.588 175.666 186.826 177.189C186.826 176.808 186.826 176.427 186.826 176.047C186.826 175.666 186.731 175.38 186.351 175.38C185.97 175.38 185.685 175.571 185.589 175.951C185.589 176.903 185.018 177.474 184.257 178.045C185.97 178.616 185.97 178.616 186.826 177.284C186.826 177.664 186.826 177.95 186.826 178.33C186.826 178.521 186.922 178.806 187.112 178.901C187.397 178.997 187.683 178.997 187.873 178.711C188.349 177.76 189.205 177.474 189.967 177.093C189.967 176.522 189.776 176.427 189.586 176.332Z" fill="#ABE1ED"/>
<path fill-rule="evenodd" clip-rule="evenodd" d="M276.182 105.819C275.706 105.343 275.231 105.533 274.85 105.819C274.184 106.39 274.279 106.865 275.326 107.627C275.611 107.532 275.897 107.532 276.087 107.436C276.658 107.246 276.658 106.485 276.182 105.819Z" fill="#ABE1ED"/>
<path fill-rule="evenodd" clip-rule="evenodd" d="M194.154 177.569C194.154 177.95 194.534 178.14 194.82 178.045C195.105 178.045 195.581 177.95 195.676 177.665C195.771 177.094 195.295 177.284 195.01 177.189C194.725 177.284 194.249 177.094 194.154 177.569Z" fill="#ABE1ED"/>
<path fill-rule="evenodd" clip-rule="evenodd" d="M176.834 178.236C176.739 178.616 177.12 178.807 177.405 178.807C177.786 178.902 178.167 178.997 178.547 178.521C178.262 178.045 177.881 178.14 177.596 178.14C177.405 178.14 177.025 177.76 176.834 178.236Z" fill="#ABE1ED"/>
<path fill-rule="evenodd" clip-rule="evenodd" d="M361.255 231.525C359.637 233.048 358.21 234.665 356.592 236.093C355.26 237.235 354.689 238.567 354.974 240.375C355.069 241.232 355.26 242.088 354.784 242.849C353.547 244.753 353.832 246.656 354.594 248.559C354.879 249.225 354.974 249.986 355.165 250.652C355.545 251.985 355.64 252.08 357.068 252.08C358.495 252.08 358.59 252.08 358.971 250.748C359.066 250.557 359.066 250.367 359.161 250.081C360.684 245.038 362.206 239.994 363.729 234.951C364.11 233.619 364.11 232.572 363.063 231.62C362.206 230.764 362.111 230.669 361.255 231.525Z" fill="#F4FBFF"/>
<path fill-rule="evenodd" clip-rule="evenodd" d="M277.99 104.962C278.275 105.723 278.085 106.58 279.227 106.485C279.607 106.485 279.798 106.675 279.988 107.056C281.035 108.673 280.844 109.72 279.227 110.767C279.036 110.862 278.846 110.957 278.656 111.148C277.609 112.004 277.704 113.146 278.846 113.812C279.036 113.907 279.417 113.907 279.512 114.383C278.656 115.43 277.133 115.715 276.372 117.048C276.657 117.333 276.848 117.333 277.133 117.333C279.798 116.762 282.367 116.191 285.032 115.62C285.507 115.525 285.888 115.239 286.269 115.049C286.649 114.859 286.649 114.573 286.364 114.288C286.173 114.098 285.793 114.002 285.888 113.622C286.173 113.146 286.84 113.051 287.125 112.575C287.506 111.909 287.506 111.338 286.744 111.052C285.412 110.577 284.936 109.435 284.365 108.388C283.794 107.341 283.224 106.294 282.653 105.248C282.367 104.772 282.177 104.391 281.701 104.106C280.464 103.535 279.893 102.678 280.559 101.251C280.654 101.061 280.654 100.775 280.654 100.585C280.654 100.204 280.464 100.014 280.083 99.9186C279.607 99.8235 279.036 100.109 278.846 99.6332C278.656 99.1574 279.036 98.6816 279.132 98.2058C279.132 98.0154 279.132 97.9203 279.132 97.73C277.704 97.3493 276.943 97.4445 276.753 98.1106C276.467 98.967 276.086 99.7283 276.657 100.68C277.609 101.822 277.419 103.44 277.99 104.962Z" fill="#F4FBFF"/>
<path fill-rule="evenodd" clip-rule="evenodd" d="M272.09 113.622C272.47 113.526 272.851 113.336 273.232 113.241C275.896 112.384 275.896 112.384 275.991 109.434C275.991 108.768 275.896 108.102 275.325 107.722C274.945 107.817 274.564 107.817 274.183 107.626C273.517 107.151 274.278 106.389 273.898 105.818C272.946 106.96 272.946 106.96 272.09 107.151C271.519 107.246 271.043 107.341 270.948 107.912C270.853 108.483 271.233 108.863 271.709 109.054C272.47 109.434 272.47 109.91 271.995 110.576C271.614 111.052 271.328 111.623 270.948 112.099C270.662 112.575 270.757 112.955 271.043 113.336C271.233 113.907 271.614 113.812 272.09 113.622Z" fill="#F4FBFF"/>
<path fill-rule="evenodd" clip-rule="evenodd" d="M404.649 165.484C404.649 165.199 404.649 164.913 404.649 164.628C404.649 163.962 404.648 163.295 404.553 162.629C404.553 162.249 404.553 161.868 404.458 161.487C404.458 160.726 404.363 159.87 404.268 159.108C404.173 158.252 404.173 157.3 404.078 156.444C403.887 154.731 403.697 153.018 403.507 151.305C403.411 150.544 403.316 149.878 403.221 149.116C403.221 148.831 403.126 148.45 403.126 148.165C402.936 146.642 402.65 145.12 402.365 143.597C402.27 143.121 402.174 142.646 402.079 142.17C402.079 141.884 401.984 141.694 401.889 141.408C401.794 140.933 401.699 140.457 401.603 139.981C401.413 138.934 401.128 137.888 400.937 136.841C400.747 135.984 400.557 135.128 400.271 134.176C399.986 132.939 399.7 131.797 399.32 130.56C399.224 130.275 399.129 130.084 399.129 129.799C399.034 129.418 398.939 129.133 398.844 128.752C398.749 128.276 398.558 127.896 398.463 127.42C398.082 125.993 397.607 124.47 397.131 123.043C396.845 122.186 396.56 121.425 396.274 120.568C395.989 119.712 395.703 118.951 395.418 118.094C395.228 117.618 395.037 117.143 394.847 116.667C394.657 116.191 394.466 115.715 394.276 115.239C393.991 114.478 393.705 113.717 393.42 112.956C393.42 112.86 393.42 112.86 393.324 112.765C392.658 111.147 391.992 109.53 391.231 108.007C390.85 107.151 390.47 106.389 390.089 105.533C389.708 104.677 389.328 103.915 388.947 103.154C388.566 102.393 388.186 101.727 387.805 100.965C387.424 100.204 387.044 99.4428 386.568 98.6815C385.712 97.1589 384.95 95.6363 383.999 94.1138C383.142 92.5912 382.191 91.1638 381.334 89.6412C381.334 89.6412 381.334 89.7364 381.429 89.7364C377.623 83.7413 373.531 77.9365 368.963 72.6075C366.489 73.464 364.015 74.4156 361.541 75.3672C360.494 75.7478 359.733 75.6526 358.972 74.8914C357.925 73.9398 356.783 72.9882 355.641 72.0366C355.355 71.7511 355.07 71.4656 354.594 71.6559C354.213 71.8462 354.404 72.2269 354.404 72.6075C354.404 74.3204 354.499 75.9381 354.213 77.651C354.023 78.8881 353.928 78.8881 352.881 78.3171C352.596 78.1268 352.405 78.0316 352.12 77.8413C351.073 77.1752 351.168 77.2704 350.217 78.222C348.599 79.9349 346.981 81.5526 345.364 83.1703C344.793 83.8364 344.222 83.8364 343.556 83.4558C342.794 82.98 341.938 82.5993 341.177 82.3139C340.225 82.0284 339.654 81.3623 339.178 80.601C338.227 79.0784 337.275 77.5559 336.323 76.0333C336.133 75.7478 335.848 75.5575 336.133 75.0817C336.418 74.9865 336.704 75.0817 337.085 75.1768C339.464 75.843 341.843 76.5091 344.222 77.1752C344.888 77.3655 345.649 77.651 346.315 77.1752C347.552 76.3188 348.885 75.4623 349.931 74.4156C349.836 74.0349 349.646 73.9398 349.455 73.8446C346.791 72.6075 344.031 71.4656 341.367 70.1333C338.512 68.7059 335.657 68.0398 332.422 68.3253C332.327 68.3253 332.231 68.3253 332.136 68.3253C331.946 68.0398 331.756 68.0398 331.47 68.0398C331.47 67.4688 331.47 66.8979 331.47 66.3269C331.47 63.7576 331.756 64.0431 329.091 64.0431C327.759 64.0431 326.522 63.7576 325.285 64.2334C320.907 65.9463 316.53 67.7543 312.153 69.4672C311.582 69.6575 311.201 70.0382 310.916 70.514C308.156 74.4156 305.301 78.222 302.541 82.1235C301.399 83.8364 300.067 85.2639 298.259 86.3106C297.403 86.7864 296.641 87.3574 295.88 87.8332C294.833 88.4041 294.453 89.2606 294.453 90.3074C294.453 91.1638 294.453 92.0202 294.262 92.7815C294.072 93.7331 294.262 94.3992 294.738 95.1605C295.119 95.8266 295.5 96.3976 295.88 97.0637C296.546 98.1105 296.832 98.2057 297.974 97.7299C299.687 96.9686 301.399 96.1121 303.208 95.3509C303.398 95.3509 303.588 95.3509 303.874 95.3509C304.54 97.9202 305.872 100.204 306.728 102.678C306.919 103.344 307.395 103.344 307.966 103.059C308.822 102.678 309.583 102.298 310.44 102.012C311.296 101.727 311.772 101.251 312.057 100.394C312.628 98.9669 313.104 97.5395 313.865 96.2073C314.722 94.6847 314.532 93.4476 313.485 92.2106C313.199 91.8299 312.724 91.3541 312.724 90.688C312.914 88.6896 313.009 86.6912 314.912 85.1687C317.577 83.0751 319.956 80.601 322.525 78.3171C322.62 78.3171 322.811 78.3171 322.906 78.3171C323.286 78.6978 323.762 79.0784 324.143 79.4591C324.999 80.4107 324.999 80.4107 324.143 81.3623C322.906 82.6945 321.669 84.1219 320.432 85.4542C320.051 85.93 319.765 86.3106 319.861 86.9767C319.861 88.4041 319.861 89.9267 319.861 91.3541C319.861 92.6864 321.764 94.2089 323.096 94.0186C325.475 93.5428 327.949 93.067 330.328 92.6864C330.519 92.8767 330.709 92.9718 330.899 92.9718C330.899 93.9234 331.185 94.9702 329.852 95.3509C329.472 95.3509 329.186 95.446 328.806 95.446C327.854 95.5412 326.902 95.6363 325.951 95.7315C325.094 95.8266 324.048 95.5412 323.572 96.4928C323.096 97.4444 323.952 98.2057 324.523 98.9669C324.523 99.2524 324.523 99.4427 324.523 99.7282C324.333 100.109 324.238 100.585 324.048 100.965C323.857 101.727 323.382 101.822 322.811 101.346C322.335 101.06 321.859 100.68 321.383 100.49C320.717 100.204 320.146 100.585 319.861 101.536C319.67 102.393 320.336 102.202 320.812 102.298C320.812 102.488 320.812 102.583 320.812 102.773C318.909 102.678 318.814 102.773 318.433 104.677C318.338 104.772 318.243 104.962 318.148 105.057C317.101 105.438 316.815 105.818 316.815 106.58C316.815 106.77 316.815 106.96 316.815 107.056C316.149 107.056 315.483 106.96 314.817 106.96C311.486 106.96 311.486 106.96 308.727 108.959C308.537 108.959 308.251 108.959 308.061 108.959C307.87 108.768 307.68 108.483 307.585 108.293C307.014 107.151 306.157 106.865 304.92 106.96C304.064 107.056 303.208 106.96 302.351 106.96C301.875 106.96 301.495 106.865 301.304 106.389C301.209 106.009 300.924 105.723 300.638 105.819C300.067 105.914 300.353 106.485 300.258 106.77C300.258 106.96 300.258 107.056 300.258 107.246C300.353 108.007 300.258 108.578 299.306 108.673C298.735 108.768 298.449 109.149 298.164 109.625H297.688C297.688 109.244 297.498 108.959 297.117 108.959C296.356 108.959 295.404 108.578 294.929 109.244C293.977 110.481 292.74 111.623 292.55 113.241C292.55 113.431 292.454 113.526 292.454 113.717C291.503 113.526 290.837 114.002 290.171 114.383C289.6 114.573 289.219 115.049 289.124 115.62C288.838 116.667 288.172 117.143 287.125 117.428C286.269 117.618 285.413 117.999 284.556 118.285C284.08 118.475 283.7 118.57 283.604 119.141C283.414 120.568 282.463 120.854 281.225 120.759C280.75 120.759 280.369 120.759 279.893 120.759C279.608 120.759 279.132 120.759 279.037 121.139C278.942 121.52 279.132 121.805 279.322 122.091C279.798 122.567 280.369 122.757 280.94 122.947C282.653 123.423 283.509 124.565 283.985 126.183C284.271 127.134 284.366 127.991 284.08 128.942C283.89 129.609 283.604 130.18 283.604 130.846C283.604 131.036 283.604 131.321 283.604 131.512C283.414 131.512 283.224 131.417 282.938 131.417C282.653 130.846 282.272 130.751 281.892 131.226C280.94 131.226 280.084 131.131 279.227 130.941C278.942 130.465 278.561 130.465 278.18 130.846C276.848 130.751 275.516 130.56 274.184 130.56C271.805 130.465 271.234 131.321 271.805 133.51C271.9 133.796 271.995 133.986 272.185 134.081C271.995 134.271 271.9 134.557 271.805 134.842C271.043 137.412 270.853 139.886 271.614 142.455C271.9 143.407 272.661 143.407 273.517 143.502C273.993 143.502 274.279 143.407 274.469 143.312C274.659 144.073 275.23 144.644 276.182 145.215C277.038 145.691 277.705 145.405 278.466 145.215C280.654 144.834 282.843 144.549 284.461 142.646C285.032 141.884 285.508 141.313 285.222 140.457C284.746 139.029 285.413 138.173 286.269 137.221C286.935 136.46 287.792 136.08 288.648 135.794C289.6 135.509 289.98 134.842 289.885 133.891C289.885 133.605 289.885 133.415 289.885 133.13C290.456 132.844 290.171 132.083 290.837 131.702C291.979 130.941 292.93 131.131 294.072 131.702C295.404 132.368 295.69 132.273 296.546 130.846C296.641 130.751 296.832 130.655 296.927 130.56C297.117 130.465 297.403 130.465 297.498 130.275C298.259 129.133 299.211 129.513 300.162 129.894C300.638 130.084 301.019 130.37 301.399 130.751C303.683 132.939 305.872 135.223 308.156 137.317C309.203 138.268 309.869 139.315 310.249 140.647C310.345 141.028 310.249 141.599 311.011 141.694C311.201 140.933 311.772 140.362 311.677 139.6C311.582 138.839 310.82 138.363 311.011 137.507C311.772 137.507 312.248 137.983 312.819 138.173C313.199 138.363 313.485 138.363 313.675 137.983C313.865 137.602 313.675 137.317 313.39 137.126C312.724 136.65 312.057 136.27 311.391 135.889C310.345 135.223 309.203 134.747 308.346 133.796C307.299 132.559 306.157 131.226 305.111 129.989C303.874 128.562 304.254 127.515 306.157 127.039C306.443 127.039 306.633 126.944 306.919 126.944C307.109 126.944 307.299 127.039 307.49 127.039C307.585 127.23 307.68 127.42 307.775 127.61C307.966 128.847 309.203 129.323 309.774 130.18C310.44 131.131 311.391 131.702 312.533 131.702C312.819 131.702 313.009 131.702 313.295 131.702C313.58 131.988 313.675 132.368 314.151 132.273C314.246 132.273 314.436 132.368 314.627 132.368C314.532 133.13 314.627 133.7 315.578 133.7C315.674 133.796 315.769 133.986 315.959 134.081C315.864 135.128 316.054 136.079 316.34 137.031C316.435 137.317 316.72 137.412 317.006 137.507C317.006 137.792 317.006 137.983 317.006 138.268C316.911 138.744 317.006 139.22 317.291 139.696C318.148 141.218 319.004 142.741 319.861 144.263C319.956 144.454 320.051 144.834 320.527 144.644C320.527 143.407 321.288 142.741 322.811 142.741C322.144 141.599 321.669 140.742 321.098 139.886C320.622 139.22 320.812 138.839 321.478 138.649C323.191 137.983 324.809 137.031 326.712 137.507C326.998 137.507 327.283 137.507 327.569 137.507C328.33 137.317 328.806 136.746 329.472 136.46C329.757 136.365 329.852 135.984 329.662 135.794C329.186 135.223 328.901 134.367 327.854 134.652C327.854 134.462 327.854 134.271 327.854 134.176C328.52 133.415 329.091 132.559 329.281 131.512C329.567 131.226 329.472 130.846 329.567 130.56C330.519 130.084 330.709 129.038 330.994 128.181C331.375 127.991 331.66 127.705 331.66 127.23C332.041 126.563 332.422 125.897 332.802 125.136C333.088 124.565 333.564 124.28 334.135 124.47C335.086 124.755 336.038 125.041 336.989 125.326C337.465 125.422 337.846 125.802 337.465 126.278C336.704 127.23 337.37 127.801 338.036 128.372C338.607 128.942 339.464 128.942 340.13 128.372C340.796 127.801 340.225 127.42 339.939 126.944C339.844 126.754 339.749 126.659 339.654 126.468C339.178 125.612 339.273 125.422 340.13 125.136C341.462 124.66 342.794 124.28 344.126 123.804C344.507 123.994 344.602 124.565 345.173 124.47C345.554 125.612 344.793 126.373 344.317 127.23C343.936 127.896 343.936 128.372 344.602 128.847C345.935 129.704 347.076 130.846 348.409 131.512C348.409 131.988 348.409 132.463 348.98 132.559C349.551 133.034 349.741 133.796 350.407 134.271C350.407 134.462 350.407 134.557 350.407 134.747C350.122 134.842 349.836 134.938 349.741 135.223C349.265 136.365 348.314 136.555 347.076 136.555C345.078 136.555 343.175 136.27 341.367 135.413C340.225 134.842 339.083 134.652 337.846 135.318C336.228 136.175 334.515 136.746 332.612 136.46C331.756 136.365 331.185 136.841 330.614 137.317C328.33 138.934 328.33 138.934 328.425 141.694C328.425 143.502 330.328 145.31 332.136 145.215C333.183 145.215 334.135 145.025 335.086 144.929C336.894 144.739 338.798 144.644 340.606 144.549C341.081 144.549 341.843 144.358 341.938 145.215C342.033 145.596 342.414 145.596 342.604 145.976C341.747 146.737 341.557 147.404 341.938 148.641C341.843 148.926 341.747 149.116 341.652 149.402C341.177 149.973 340.986 150.639 340.986 151.305C340.986 151.591 341.272 151.971 340.986 152.257C340.035 153.113 339.844 154.35 339.559 155.492C339.273 155.492 339.083 155.587 338.798 155.587C338.227 155.492 337.56 155.302 336.989 155.302C335.848 155.207 334.801 154.731 333.659 155.016C331.185 155.492 328.615 155.968 326.141 155.207C325.856 155.112 325.475 155.207 325.094 155.207C324.809 155.207 324.523 155.207 324.238 155.207C323.286 154.065 321.954 153.684 320.717 153.018C319.765 152.542 318.719 152.923 317.767 153.304C317.101 153.494 317.196 154.35 316.911 154.826C316.625 155.397 316.435 155.968 316.244 156.539C316.054 157.11 315.674 157.3 315.103 157.015C313.865 156.539 312.628 156.063 311.296 155.683C310.44 155.397 309.678 154.921 309.203 154.16C308.727 153.208 307.87 152.828 306.919 152.733C305.777 152.637 304.73 152.447 303.588 152.637C303.493 152.542 303.303 152.352 303.208 152.257C303.112 151.971 303.208 151.591 303.017 151.495C301.59 149.878 301.304 148.165 302.256 146.167C302.541 145.596 302.256 145.12 301.685 145.025C300.924 144.929 300.258 144.454 299.401 144.834C299.211 144.834 298.925 144.834 298.735 144.834C296.737 144.644 294.833 145.12 292.93 145.215C289.219 145.405 285.698 146.167 282.463 148.165C281.892 148.355 281.321 147.784 280.75 147.975C279.798 147.879 278.846 147.689 277.895 147.594C277.324 147.499 276.753 147.404 276.277 147.879C274.279 150.068 271.519 151.686 270.948 155.016C270.377 158.157 268.569 160.155 265.809 161.487C264.858 161.963 264.287 162.724 263.811 163.676C262.574 166.15 261.147 168.624 259.814 171.099C259.624 171.099 259.434 171.099 259.243 171.099V188.989C259.814 188.894 259.91 189.369 260.1 189.655C260.766 190.226 261.147 191.082 262.098 191.273C262.289 191.273 262.384 191.368 262.574 191.368C262.479 192.795 263.716 193.176 264.572 193.747C264.572 194.127 264.763 194.318 265.143 194.413C265.809 195.364 266.476 196.316 267.618 196.697C267.713 196.792 267.903 196.982 267.998 197.077C267.998 197.268 267.998 197.458 268.093 197.553C269.235 198.79 270.377 199.932 271.614 201.074C272.185 201.645 272.851 201.55 273.422 201.074C273.708 201.074 274.088 201.074 274.374 201.074C275.04 200.884 275.801 200.693 276.467 200.408C277.229 200.218 277.99 199.837 278.751 200.218C278.942 200.598 279.132 200.789 279.417 200.408C279.893 200.408 280.274 200.313 280.75 200.313C280.94 200.598 281.225 200.693 281.511 200.598C283.224 200.598 284.937 200.408 286.269 199.076C286.554 198.981 286.84 198.79 287.221 198.695C287.887 198.79 292.93 198.79 293.406 199.456C294.643 201.169 296.261 201.645 298.164 201.55C298.354 201.55 298.64 201.645 298.83 201.645C299.116 201.645 299.401 201.74 299.591 201.74C300.067 202.216 300.733 202.501 300.638 203.453C300.638 204.024 300.543 204.785 300.448 205.547C300.353 205.737 300.353 205.832 300.353 206.118C300.353 206.213 300.353 206.308 300.353 206.403C300.258 206.974 300.162 207.45 300.162 207.64C299.877 208.782 299.591 210.019 300.162 211.066C300.829 212.208 301.685 213.255 302.541 214.301C302.827 214.682 303.112 214.682 303.303 214.301H303.778C303.778 214.872 303.588 215.443 303.683 216.109C303.778 216.68 303.778 217.346 304.635 217.346C304.635 217.537 304.73 217.632 304.73 217.822C304.635 218.108 304.54 218.393 304.635 218.774C304.92 218.964 305.111 219.25 305.301 219.44C304.92 219.535 304.73 219.726 304.825 220.106C305.206 221.248 305.587 222.295 305.967 223.437C306.157 224.008 306.443 224.579 306.348 225.245C306.253 227.909 306.443 230.669 305.396 233.238C305.111 233.809 305.016 234.571 304.825 235.142C304.064 237.806 303.588 237.425 304.159 238.662C306.348 245.229 308.537 251.509 310.63 257.885C310.63 258.361 310.915 258.646 311.296 258.836C311.486 259.883 312.248 260.645 312.819 261.406C313.58 262.453 313.961 263.594 314.056 264.832C314.151 265.593 314.341 266.354 314.341 267.115C314.436 267.972 314.722 268.353 315.578 268.162C315.959 268.067 316.34 268.067 316.72 268.067C319.67 267.686 322.715 267.211 325.665 266.925C326.712 266.83 327.473 266.449 328.044 265.688C330.519 262.357 333.088 259.122 335.657 255.791C336.323 255.601 336.133 255.03 336.228 254.554C336.514 254.174 336.514 253.698 336.514 253.222C336.704 252.27 337.085 251.509 337.941 250.843C340.796 248.654 340.415 249.606 339.749 245.895C339.654 245.229 339.464 244.658 339.749 243.991C341.843 239.043 341.843 239.043 346.41 236.283C346.601 236.188 346.696 236.093 346.886 235.998C347.838 235.617 348.028 234.856 347.933 234C347.838 231.716 347.647 229.432 347.552 227.148C347.552 226.863 347.362 226.672 347.267 226.387C347.267 226.196 347.172 225.911 347.172 225.625C347.267 225.15 347.267 224.579 347.172 224.103C346.696 221.819 346.315 219.63 345.839 217.346C345.839 217.061 345.935 216.871 345.935 216.585C345.935 216.49 346.03 216.49 346.125 216.395C347.267 215.063 347.838 213.445 348.789 212.018C349.265 211.351 349.455 210.59 349.455 209.829C349.646 209.829 349.836 209.829 350.122 209.829C350.693 209.924 351.073 209.448 351.454 209.163C353.833 207.26 356.212 205.261 358.686 203.358C359.067 202.977 359.352 202.597 359.542 202.121C361.255 198.6 362.968 195.174 364.586 191.653C364.776 191.177 364.967 190.702 364.967 190.226C364.967 189.179 364.681 188.894 363.634 189.179C361.541 189.655 359.447 190.131 357.449 190.702C355.926 191.082 354.309 191.653 352.786 190.797C352.405 191.273 351.93 191.177 351.834 190.797C351.93 190.511 352.025 190.321 352.12 190.035C352.501 188.703 352.405 188.608 351.264 188.323C351.168 187.942 351.264 187.656 350.883 187.371C350.693 186.895 350.407 186.515 350.026 186.134C348.123 184.421 346.886 182.232 345.744 179.948C345.554 179.568 345.459 179.187 345.078 178.902C344.602 176.428 343.556 174.144 342.889 171.765C342.604 170.813 342.033 170.052 341.081 169.766C340.986 169.671 340.796 169.481 340.701 169.386C340.986 168.624 340.606 168.053 340.32 167.482C339.273 165.389 338.227 163.295 337.18 161.202C336.704 160.25 336.418 159.203 336.514 157.871C337.37 158.157 337.751 158.823 338.227 159.299C338.607 159.584 338.893 159.679 339.178 159.299C339.273 159.203 339.273 159.108 339.368 159.013C339.749 159.013 339.939 159.108 340.035 159.489C340.13 159.774 340.32 159.965 340.606 159.965C343.175 164.913 345.839 169.861 348.409 174.905C349.265 176.523 350.122 178.14 350.978 179.758C351.264 180.234 351.359 180.9 352.12 180.71C352.12 180.9 352.12 180.995 352.12 181.186C351.93 181.566 351.834 181.852 352.025 182.327C352.405 183.374 352.786 184.421 353.072 185.468C353.547 186.99 353.547 186.99 355.07 186.515C358.305 185.373 361.541 184.231 364.776 183.089C366.109 182.613 367.06 181.757 367.726 180.519C368.012 180.519 368.202 180.424 368.297 180.234C369.915 180.044 371.342 179.568 372.389 178.236C373.817 176.332 375.434 174.524 376.862 172.621C377.337 171.955 378.384 171.384 378.289 170.623C378.099 169.766 376.862 169.671 376.1 169.29C375.054 168.72 373.912 168.434 373.341 167.292C373.15 167.197 373.055 167.102 372.865 167.007C373.246 166.436 373.626 165.77 372.865 165.294C372.104 164.818 371.818 165.579 371.438 166.055C371.438 166.055 371.342 166.15 371.342 166.245C370.581 167.482 369.534 168.149 368.012 167.863C367.25 167.768 366.489 167.863 365.633 167.863C365.538 167.673 365.347 167.482 365.252 167.387C366.013 166.721 365.633 166.055 365.347 165.389C365.252 165.103 364.967 165.294 364.776 165.484C364.586 165.484 364.396 165.484 364.205 165.484C363.539 163.676 362.207 162.153 361.255 160.441C361.065 160.155 360.78 160.155 360.494 160.06C360.399 159.774 360.304 159.394 360.209 159.108C360.209 158.728 360.113 158.442 359.923 158.157C360.78 158.062 361.541 157.776 362.302 157.3C364.015 158.728 365.918 159.965 367.441 161.582C368.773 162.915 370.01 163.105 371.628 162.534C373.15 161.963 374.292 162.344 375.149 163.771C375.434 164.247 375.91 164.723 376.291 165.199C376.481 165.389 376.671 165.674 376.957 165.674C378.479 165.674 380.002 166.055 381.429 165.389C381.715 165.389 382 165.389 382.191 165.389C383.428 165.389 384.665 165.579 385.902 165.389C387.71 165.103 389.328 165.389 390.47 166.436C390.85 166.816 391.231 167.197 391.612 167.768C391.707 168.339 392.087 168.434 392.563 168.434C392.753 169.957 393.895 170.813 394.657 171.955C395.608 173.287 395.608 173.287 397.131 172.621C397.797 172.336 398.178 172.336 398.368 173.192C398.558 174.334 398.749 175.381 399.034 176.523C399.415 178.236 399.415 180.139 400.176 181.757C401.223 184.04 402.27 186.324 403.316 188.513C403.411 187.752 403.507 186.99 403.602 186.324C403.697 184.992 403.887 183.565 403.982 182.232C404.078 180.995 404.173 179.663 404.268 178.331C404.363 177.379 404.363 176.332 404.363 175.381C404.363 175.286 404.363 175.286 404.363 175.19C404.363 174.429 404.363 173.668 404.458 172.811C404.458 172.05 404.458 171.289 404.458 170.528C404.744 168.815 404.649 167.102 404.649 165.484Z" fill="white"/>
<path fill-rule="evenodd" clip-rule="evenodd" d="M346.41 217.442L346.505 217.251L346.41 217.442Z" fill="#F4FBFF"/>
<path fill-rule="evenodd" clip-rule="evenodd" d="M346.505 217.251L346.601 216.585L346.505 217.251Z" fill="#F4FBFF"/>
<path fill-rule="evenodd" clip-rule="evenodd" d="M307.87 144.644C308.06 144.739 308.346 144.739 308.441 144.549C308.726 144.073 309.012 143.502 308.822 142.931C308.631 142.36 308.06 142.55 307.68 142.55C307.489 142.55 307.299 142.55 307.204 142.55C306.823 142.55 306.538 142.55 306.157 142.55C305.872 142.55 305.586 142.55 305.396 142.836C305.206 143.216 305.491 143.502 305.776 143.692C306.538 143.978 307.204 144.263 307.87 144.644Z" fill="#F4FBFF"/>
<path fill-rule="evenodd" clip-rule="evenodd" d="M299.02 136.555C299.02 137.602 299.02 138.744 299.781 139.886C300.352 138.649 300.162 137.507 299.972 136.46C299.972 136.27 299.686 136.079 299.401 136.174C299.21 136.174 299.02 136.365 299.02 136.555Z" fill="#F4FBFF"/>
<path fill-rule="evenodd" clip-rule="evenodd" d="M335.752 147.974C336.608 148.26 337.179 148.26 337.845 147.784C337.179 147.594 336.513 147.308 335.752 147.974Z" fill="#F4FBFF"/>
<path fill-rule="evenodd" clip-rule="evenodd" d="M299.686 134.557C299.877 133.605 299.877 133.605 299.496 132.844C299.306 133.415 299.02 133.986 299.686 134.557Z" fill="#F4FBFF"/>
<path opacity="0.3" d="M404.743 170.432C404.743 171.194 404.743 171.955 404.743 172.716C404.743 173.478 404.743 174.239 404.648 175.095C404.648 175.19 404.648 175.19 404.648 175.286C404.648 176.332 404.553 177.284 404.553 178.236C404.458 179.568 404.363 180.805 404.268 182.137C404.172 183.469 404.077 184.897 403.887 186.229C403.792 186.99 403.697 187.752 403.602 188.418C403.506 188.989 403.411 189.56 403.411 190.226C402.84 194.889 401.984 199.551 400.937 204.119C400.842 204.69 400.652 205.261 400.556 205.832C400.461 206.308 400.366 206.784 400.176 207.259C400.176 207.45 400.081 207.545 400.081 207.735C399.985 208.211 399.795 208.687 399.7 209.163C399.51 209.734 399.414 210.305 399.224 210.876C399.034 211.447 398.939 212.017 398.748 212.588C398.558 213.159 398.463 213.73 398.273 214.301C398.082 214.872 397.892 215.443 397.797 216.014C397.416 217.156 397.131 218.203 396.75 219.345C396.56 219.916 396.369 220.392 396.179 220.963C395.989 221.534 395.798 222.009 395.608 222.58C395.418 223.056 395.227 223.532 395.132 224.008C394.942 224.674 394.656 225.245 394.466 225.816C394.276 226.387 394.085 226.863 393.8 227.433C393.61 228.004 393.419 228.48 393.134 229.051C392.277 231.145 391.326 233.238 390.374 235.332C389.613 236.854 388.947 238.377 388.186 239.899C387.71 240.946 387.139 241.993 386.568 242.945C386.282 243.42 385.997 243.896 385.711 244.467C385.14 245.419 384.569 246.466 383.999 247.417C383.428 248.369 382.857 249.416 382.286 250.367C381.429 251.795 380.478 253.222 379.526 254.649C379.336 254.935 379.24 255.125 379.05 255.315C378.86 255.601 378.765 255.791 378.574 255.982C378.289 256.457 377.908 256.933 377.623 257.409C376.957 258.361 376.29 259.217 375.72 260.169C375.053 261.025 374.387 261.977 373.721 262.833C373.626 262.928 373.626 263.023 373.531 263.119C372.96 263.88 372.294 264.736 371.723 265.498C371.342 265.973 370.962 266.449 370.581 266.925C370.2 267.401 369.82 267.781 369.534 268.257C369.153 268.733 368.773 269.114 368.487 269.59C368.107 269.97 367.726 270.446 367.345 270.827C366.965 271.302 366.584 271.683 366.203 272.064C365.442 272.92 364.681 273.777 363.92 274.538C361.636 277.012 359.257 279.391 356.783 281.675C356.402 282.056 355.926 282.436 355.546 282.817C355.165 283.197 354.689 283.578 354.308 283.959C353.833 284.339 353.452 284.72 353.071 285.101C352.215 285.862 351.358 286.528 350.502 287.289C350.026 287.67 349.646 288.051 349.17 288.336C348.694 288.717 348.313 289.097 347.838 289.383C347.362 289.764 346.981 290.049 346.505 290.43C346.029 290.81 345.554 291.191 345.078 291.476C344.697 291.762 344.317 292.047 343.936 292.333C343.46 292.714 342.984 293.094 342.413 293.475C341.747 293.951 341.081 294.426 340.32 294.902C339.654 295.378 338.988 295.854 338.226 296.33C337.56 296.805 336.989 297.186 336.323 297.567C335.467 298.138 334.705 298.613 333.849 299.184C333.373 299.47 332.993 299.755 332.517 300.041C332.041 300.326 331.565 300.612 331.089 300.897C329.662 301.754 328.139 302.61 326.617 303.467C326.141 303.752 325.665 304.038 325.094 304.323C324.618 304.609 324.047 304.894 323.572 305.18C322.81 305.56 322.049 305.941 321.288 306.321C320.526 306.702 319.765 307.083 319.004 307.463C318.528 307.749 317.957 307.939 317.481 308.225C317.006 308.51 316.435 308.7 315.959 308.986C315.483 309.271 314.912 309.462 314.436 309.652C313.865 309.938 313.389 310.128 312.818 310.318C312.343 310.509 311.772 310.794 311.201 310.984C310.344 311.365 309.488 311.65 308.727 312.031C307.68 312.507 306.538 312.888 305.491 313.268C305.206 313.363 305.015 313.458 304.825 313.554C304.254 313.744 303.778 313.934 303.207 314.125C302.161 314.505 301.019 314.886 299.972 315.267C297.783 316.028 295.594 316.694 293.311 317.265C292.835 317.455 292.264 317.55 291.788 317.646C291.217 317.836 290.551 317.931 289.98 318.121C289.409 318.312 288.743 318.407 288.172 318.597C287.696 318.692 287.125 318.883 286.649 318.978C286.078 319.073 285.412 319.263 284.841 319.358C284.175 319.549 283.509 319.644 282.843 319.739C282.177 319.834 281.511 320.025 280.94 320.12C279.132 320.5 277.324 320.786 275.42 321.071C274.564 321.166 273.612 321.357 272.756 321.452C272.185 321.547 271.614 321.642 270.948 321.642C270.377 321.737 269.806 321.737 269.14 321.833C268.569 321.928 267.998 321.928 267.332 322.023C266.761 322.118 266.095 322.118 265.524 322.213C264.763 322.308 263.906 322.308 263.145 322.404C262.383 322.499 261.527 322.499 260.766 322.499C259.814 322.499 258.863 322.594 257.911 322.594C257.055 322.594 256.103 322.689 255.246 322.689C254.485 322.689 253.724 322.689 252.963 322.689C251.155 322.689 249.442 322.689 247.634 322.594C247.158 322.594 246.682 322.594 246.206 322.499C245.73 322.499 245.35 322.499 244.874 322.404C244.493 322.404 244.113 322.404 243.732 322.308C242.876 322.308 242.019 322.213 241.258 322.118C240.877 322.118 240.592 322.118 240.211 322.023C238.879 321.928 237.547 321.833 236.31 321.642C235.739 321.547 235.263 321.547 234.692 321.452C234.121 321.357 233.455 321.357 232.884 321.262C232.598 321.262 232.218 321.166 231.932 321.166C231.171 321.071 230.314 320.976 229.458 320.786C228.887 320.691 228.221 320.596 227.65 320.5H227.555C227.079 320.405 226.603 320.31 226.032 320.215C224.795 320.025 223.558 319.739 222.321 319.454C221.75 319.358 221.084 319.168 220.513 319.073C220.513 319.073 220.513 319.073 220.418 319.073C219.656 318.883 218.8 318.692 218.039 318.502C217.468 318.407 216.897 318.217 216.326 318.121C216.231 318.121 216.231 318.121 216.136 318.026C215.755 317.931 215.374 317.836 214.994 317.741C213.281 317.265 211.663 316.884 209.95 316.313C209.569 316.218 209.284 316.123 208.998 316.028C208.523 315.837 207.952 315.742 207.476 315.552C207.095 315.457 206.715 315.267 206.334 315.171C205.668 314.981 205.002 314.696 204.336 314.505C203.479 314.22 202.528 313.934 201.671 313.554C198.15 312.317 194.629 310.889 191.204 309.367C188.539 308.225 185.97 306.988 183.496 305.655C182.829 305.37 182.258 304.989 181.592 304.704C181.117 304.418 180.641 304.228 180.165 303.942C179.308 303.467 178.452 302.991 177.596 302.515C177.405 302.42 177.12 302.23 176.929 302.134C176.073 301.659 175.312 301.183 174.455 300.707C174.075 300.517 173.694 300.231 173.313 300.041C171.029 298.613 168.841 297.186 166.747 295.759C165.225 294.712 163.702 293.57 162.18 292.523C160.657 291.381 159.23 290.239 157.802 289.097C155.614 287.385 153.52 285.576 151.426 283.673C149.999 282.436 148.667 281.199 147.335 279.867C146.002 278.535 144.67 277.298 143.433 275.965C142.101 274.633 140.864 273.301 139.627 271.873C137.723 269.78 135.915 267.591 134.107 265.402C133.536 264.736 133.06 263.975 132.49 263.309C130.206 260.359 128.017 257.219 125.923 254.078C125.448 253.317 124.972 252.651 124.496 251.89C124.115 251.224 123.64 250.557 123.259 249.891C122.688 248.94 122.117 248.083 121.641 247.132C121.165 246.275 120.69 245.514 120.214 244.658C119.833 243.991 119.453 243.42 119.167 242.754C119.072 242.469 118.882 242.279 118.786 241.993C118.501 241.517 118.215 241.041 118.025 240.47C117.835 240.09 117.645 239.709 117.359 239.233C116.978 238.472 116.598 237.711 116.217 236.95C115.456 235.427 114.79 233.904 114.028 232.287C113.933 232.096 113.933 232.001 113.838 231.811C113.172 230.383 112.601 228.861 111.935 227.433C111.84 227.243 111.745 227.053 111.649 226.863C128.778 254.174 154.376 275.585 184.733 287.575C187.873 288.812 191.204 289.954 194.439 291.001C208.903 295.568 224.414 298.042 240.401 298.042C285.603 298.042 326.331 278.249 354.118 246.941C357.639 243.04 360.875 238.948 363.92 234.666C378.099 214.967 387.615 191.748 391.04 166.531C391.897 159.87 392.373 153.018 392.373 146.071C392.373 126.278 388.566 107.246 381.619 89.9267C381.619 89.9267 381.619 89.8315 381.524 89.8315C382.476 91.2589 383.332 92.7815 384.189 94.3041C385.045 95.8266 385.902 97.3492 386.758 98.8718C387.139 99.6331 387.615 100.394 387.995 101.156C388.376 101.917 388.756 102.583 389.137 103.344C389.518 104.201 389.898 104.962 390.279 105.723C390.66 106.485 391.04 107.341 391.421 108.198C392.182 109.815 392.848 111.338 393.515 112.956C393.515 113.051 393.61 113.051 393.61 113.146C393.895 113.907 394.181 114.668 394.466 115.43C394.656 115.905 394.847 116.381 395.037 116.857C395.227 117.333 395.418 117.809 395.608 118.284C395.894 119.141 396.179 119.902 396.464 120.759C396.75 121.615 397.035 122.376 397.321 123.233C397.797 124.66 398.273 126.088 398.653 127.61C398.748 128.086 398.939 128.467 399.034 128.942C399.129 129.323 399.224 129.609 399.319 129.989C399.414 130.275 399.414 130.465 399.51 130.751C399.795 131.988 400.176 133.13 400.461 134.367C400.652 135.223 400.937 136.079 401.127 137.031C401.413 138.078 401.603 139.125 401.793 140.171C401.889 140.647 401.984 141.123 402.079 141.599C402.174 141.884 402.174 142.075 402.269 142.36C402.364 142.836 402.46 143.312 402.555 143.787C402.84 145.31 403.031 146.833 403.316 148.355C403.411 148.641 403.411 149.021 403.411 149.307C403.506 150.068 403.602 150.734 403.697 151.495C403.887 153.208 404.077 154.921 404.268 156.634C404.363 157.491 404.458 158.442 404.458 159.299C404.553 160.06 404.553 160.916 404.648 161.678C404.648 162.058 404.648 162.439 404.743 162.82C404.743 163.486 404.839 164.152 404.839 164.818C404.839 165.103 404.839 165.389 404.839 165.674C404.648 167.102 404.743 168.815 404.743 170.432Z" fill="url(#paint1_radial_1_3338)"/>
<path d="M66.4484 229.622C65.8774 229.622 65.4016 229.146 65.4016 228.575C65.4016 227.148 65.4016 225.625 65.4968 224.198C65.4968 223.627 65.9726 223.151 66.6387 223.151C67.2097 223.151 67.6855 223.627 67.6855 224.293C67.6855 225.721 67.5903 227.148 67.5903 228.575C67.4951 229.146 67.0193 229.622 66.4484 229.622Z" fill="#4474B5"/>
<path d="M67.0189 216.68C66.9237 216.68 66.9237 216.68 67.0189 216.68C66.3527 216.585 65.8769 216.109 65.9721 215.538C66.2576 212.684 66.543 209.734 66.9237 206.879C67.0189 206.308 67.5898 205.832 68.1608 205.927C68.7317 206.022 69.2075 206.593 69.1124 207.164C68.7317 210.019 68.4463 212.874 68.1608 215.634C67.9705 216.3 67.4947 216.68 67.0189 216.68ZM69.3027 199.647C69.2075 199.647 69.2075 199.647 69.1124 199.647C68.5414 199.551 68.1608 198.98 68.2559 198.409C68.8269 195.555 69.3979 192.7 70.1591 189.94C70.3495 189.369 70.9204 188.989 71.4914 189.179C72.0624 189.369 72.443 189.94 72.2527 190.511C71.5866 193.271 70.9204 196.126 70.3495 198.885C70.3495 199.266 69.8737 199.647 69.3027 199.647ZM73.5849 182.898C73.4898 182.898 73.3946 182.898 73.2994 182.803C72.7285 182.613 72.443 182.042 72.5381 181.471C73.3946 178.711 74.3462 175.952 75.2978 173.287C75.4881 172.716 76.1543 172.431 76.7252 172.621C77.2962 172.811 77.5817 173.477 77.3913 174.048C76.4397 176.713 75.4881 179.473 74.6317 182.137C74.4414 182.613 74.0607 182.898 73.5849 182.898ZM427.772 176.047C427.582 176.047 427.391 175.952 427.201 175.856C426.725 175.571 426.535 174.905 426.82 174.334C428.438 171.765 429.865 169.29 431.198 166.911C431.483 166.436 432.149 166.245 432.72 166.531C433.196 166.816 433.386 167.482 433.101 168.053C431.769 170.432 430.246 172.906 428.724 175.476C428.533 175.856 428.153 176.047 427.772 176.047ZM79.4849 166.721C79.3897 166.721 79.1994 166.721 79.1042 166.626C78.5333 166.436 78.2478 165.769 78.5333 165.198C79.6752 162.534 80.8171 159.869 82.0542 157.3C82.3397 156.729 83.0058 156.539 83.4816 156.824C84.0526 157.11 84.2429 157.776 83.9574 158.252C82.7203 160.821 81.5784 163.486 80.4365 166.055C80.3413 166.531 79.8655 166.721 79.4849 166.721ZM436.336 161.107C436.146 161.107 435.956 161.107 435.861 161.011C435.29 160.726 435.099 160.06 435.385 159.489C436.812 156.92 438.144 154.35 439.382 151.876C439.667 151.305 440.333 151.115 440.809 151.4C441.38 151.686 441.57 152.352 441.285 152.828C440.048 155.302 438.715 157.871 437.288 160.536C437.098 160.916 436.717 161.107 436.336 161.107ZM86.9074 151.21C86.7171 151.21 86.5267 151.21 86.4316 151.115C85.8606 150.829 85.6703 150.163 85.9558 149.687C87.288 147.213 88.7154 144.644 90.238 142.17C90.5235 141.694 91.1896 141.504 91.7606 141.789C92.2364 142.075 92.4267 142.741 92.1412 143.312C90.7138 145.786 89.2864 148.26 87.9541 150.734C87.6687 151.02 87.288 151.21 86.9074 151.21ZM444.044 145.691C443.854 145.691 443.759 145.691 443.569 145.595C442.998 145.31 442.807 144.739 442.998 144.168C444.235 141.504 445.281 138.839 446.328 136.27C446.519 135.699 447.185 135.413 447.756 135.604C448.327 135.794 448.612 136.46 448.422 137.031C447.375 139.6 446.328 142.36 445.091 145.024C444.806 145.405 444.425 145.691 444.044 145.691ZM95.7573 136.46C95.567 136.46 95.3766 136.365 95.1863 136.27C94.7105 135.984 94.5202 135.223 94.9008 134.747C96.4234 132.368 98.1363 129.989 99.754 127.61C100.135 127.134 100.801 127.039 101.277 127.325C101.752 127.705 101.848 128.371 101.562 128.847C99.9443 131.131 98.2315 133.51 96.7089 135.889C96.4234 136.27 96.0428 136.46 95.7573 136.46ZM450.23 129.609C450.135 129.609 450.039 129.608 449.849 129.513C449.278 129.323 448.993 128.752 449.183 128.181C450.039 125.421 450.896 122.662 451.562 119.997C451.752 119.426 452.323 119.046 452.894 119.236C453.465 119.426 453.846 119.997 453.656 120.568C452.989 123.328 452.133 126.088 451.277 128.942C451.181 129.323 450.706 129.609 450.23 129.609ZM105.749 122.471C105.559 122.471 105.273 122.376 105.083 122.281C104.607 121.9 104.512 121.234 104.893 120.759C106.606 118.475 108.414 116.191 110.317 114.002C110.697 113.526 111.364 113.431 111.839 113.907C112.315 114.288 112.41 114.954 111.935 115.43C110.127 117.618 108.318 119.902 106.606 122.091C106.32 122.281 106.035 122.471 105.749 122.471ZM454.417 112.955C454.322 112.955 454.322 112.955 454.227 112.955C453.656 112.86 453.275 112.289 453.37 111.718C453.846 108.864 454.227 106.009 454.512 103.249C454.607 102.678 455.083 102.202 455.654 102.297C456.225 102.393 456.701 102.868 456.606 103.439C456.32 106.294 455.939 109.149 455.464 112.099C455.368 112.575 454.988 112.955 454.417 112.955ZM116.693 109.244C116.407 109.244 116.217 109.149 115.931 108.959C115.455 108.578 115.455 107.912 115.836 107.436C117.739 105.343 119.738 103.154 121.641 101.06C122.022 100.585 122.783 100.585 123.163 101.06C123.639 101.441 123.639 102.202 123.163 102.583C121.165 104.676 119.262 106.77 117.359 108.864C117.264 109.149 116.978 109.244 116.693 109.244ZM128.588 96.7782C128.302 96.7782 128.017 96.683 127.826 96.4927C127.446 96.112 127.446 95.3507 127.826 94.9701C129.825 92.9717 131.918 90.9734 134.107 88.975C134.583 88.5943 135.249 88.5943 135.63 89.0702C136.01 89.546 136.01 90.2121 135.534 90.5927C133.441 92.5911 131.347 94.5895 129.349 96.4927C129.063 96.683 128.873 96.7782 128.588 96.7782ZM455.939 95.8265C455.368 95.8265 454.893 95.3507 454.893 94.7798C454.893 91.925 454.702 89.0702 454.512 86.3105C454.417 85.7395 454.893 85.1686 455.464 85.0734C456.035 84.9783 456.606 85.4541 456.701 86.025C456.986 88.8798 457.176 91.8298 457.176 94.6846C456.986 95.2556 456.51 95.7314 455.939 95.8265ZM141.149 84.9782C140.863 84.9782 140.578 84.8831 140.292 84.5976C139.912 84.1218 139.912 83.4557 140.388 83.075C142.576 81.1718 144.765 79.2686 146.954 77.4606C147.429 77.0799 148.096 77.1751 148.476 77.5557C148.857 78.0315 148.762 78.6977 148.381 79.0783C146.192 80.8864 144.004 82.7896 141.815 84.6928C141.625 84.8831 141.434 84.9782 141.149 84.9782ZM454.131 78.6977C453.656 78.6977 453.18 78.317 453.085 77.8412C452.514 74.9864 451.848 72.2268 451.086 69.5623C450.896 68.9913 451.277 68.4203 451.848 68.23C452.418 68.0397 452.989 68.4203 453.18 68.9913C453.941 71.7509 454.702 74.5106 455.273 77.4606C455.368 78.0315 454.988 78.6025 454.417 78.7928C454.227 78.6977 454.227 78.6977 454.131 78.6977ZM154.376 74.0348C154.091 74.0348 153.71 73.9396 153.52 73.6542C153.139 73.1784 153.234 72.5122 153.71 72.1316C155.994 70.3235 158.278 68.6107 160.562 66.8978C161.037 66.5171 161.703 66.6123 162.084 67.0881C162.465 67.5639 162.37 68.23 161.894 68.6107C159.61 70.3235 157.326 72.1316 155.042 73.8445C154.852 73.9396 154.662 74.0348 154.376 74.0348ZM168.174 63.6623C167.794 63.6623 167.508 63.472 167.318 63.1865C166.937 62.7107 167.128 62.0446 167.603 61.6639C169.982 60.0462 172.361 58.3333 174.74 56.7156C175.216 56.335 175.882 56.5253 176.263 57.0011C176.644 57.4769 176.453 58.143 175.978 58.5237C173.599 60.1414 171.219 61.7591 168.936 63.3768C168.65 63.5672 168.46 63.6623 168.174 63.6623ZM449.373 62.1397C448.898 62.1397 448.517 61.8543 448.327 61.4736C447.28 58.8091 446.138 56.1446 444.996 53.6705C444.71 53.0995 444.996 52.4334 445.472 52.2431C446.043 51.9576 446.709 52.2431 446.899 52.7189C448.136 55.2882 449.278 57.9527 450.325 60.7123C450.515 61.2833 450.23 61.9494 449.659 62.1397C449.564 62.1397 449.469 62.1397 449.373 62.1397ZM182.544 54.0511C182.163 54.0511 181.877 53.8608 181.592 53.5753C181.306 53.0995 181.402 52.4334 181.877 52.0528C184.256 50.5302 186.731 48.9125 189.205 47.4851C189.681 47.1996 190.347 47.2947 190.727 47.8657C191.013 48.3415 190.918 49.0076 190.347 49.3883C187.873 50.9108 185.494 52.4334 183.019 53.956C182.924 53.956 182.734 54.0511 182.544 54.0511ZM441.761 46.7238C441.38 46.7238 440.999 46.5334 440.809 46.248C439.286 43.8689 437.669 41.4899 435.956 39.3013C435.575 38.8254 435.67 38.1593 436.146 37.7787C436.622 37.398 437.288 37.4932 437.669 37.969C439.382 40.2529 441.094 42.6319 442.617 45.106C442.902 45.5818 442.807 46.248 442.236 46.6286C442.141 46.6286 441.951 46.7238 441.761 46.7238ZM197.198 45.0109C196.818 45.0109 196.437 44.8206 196.247 44.4399C195.961 43.9641 196.152 43.298 196.627 42.9173C199.101 41.4899 201.671 40.0625 204.145 38.6351C204.716 38.3496 205.287 38.54 205.668 39.1109C205.953 39.6819 205.763 40.348 205.192 40.6335C202.718 41.9657 200.148 43.3932 197.674 44.8206C197.579 45.0109 197.389 45.0109 197.198 45.0109ZM212.329 36.7319C211.948 36.7319 211.567 36.5416 211.377 36.161C211.092 35.59 211.282 34.9239 211.853 34.7336C213.851 33.6868 215.85 32.64 217.848 31.6884C218.419 31.4029 218.895 31.1175 219.466 30.832C220.037 30.5465 220.703 30.7368 220.893 31.3078C221.179 31.8787 220.988 32.5449 220.417 32.7352C219.846 33.0207 219.275 33.3061 218.705 33.5916C216.706 34.6384 214.708 35.59 212.709 36.6368C212.709 36.7319 212.519 36.7319 212.329 36.7319ZM431.293 33.1158C431.007 33.1158 430.722 33.0207 430.532 32.7352C428.628 30.7368 426.535 28.7384 424.346 26.9304C423.87 26.5498 423.87 25.8836 424.251 25.4078C424.632 24.932 425.298 24.932 425.774 25.3127C427.962 27.2159 430.151 29.2143 432.149 31.3078C432.53 31.7836 432.53 32.4497 432.149 32.8303C431.864 33.0207 431.578 33.1158 431.293 33.1158ZM227.745 28.9288C227.364 28.9288 226.983 28.7384 226.793 28.2626C226.508 27.6917 226.793 27.0256 227.269 26.8352C229.838 25.5982 232.503 24.4562 235.167 23.3143C235.738 23.0288 236.404 23.3143 236.595 23.8853C236.88 24.4562 236.595 25.1223 236.024 25.3127C233.359 26.4546 230.695 27.6917 228.221 28.8336C228.03 28.9288 227.84 28.9288 227.745 28.9288ZM243.541 22.0772C243.066 22.0772 242.685 21.7917 242.495 21.4111C242.304 20.8401 242.59 20.174 243.066 19.9837C245.73 18.9369 248.395 17.8902 251.154 16.9386C251.725 16.7482 252.391 17.0337 252.582 17.6047C252.772 18.1756 252.486 18.7466 251.915 19.0321C249.251 19.9837 246.491 21.0304 243.922 22.0772C243.827 22.0772 243.637 22.0772 243.541 22.0772ZM418.161 21.9821C417.97 21.9821 417.685 21.8869 417.59 21.7917C415.306 20.174 412.832 18.6514 410.358 17.3192C409.787 17.0337 409.691 16.3676 409.977 15.7966C410.262 15.2257 410.929 15.1305 411.499 15.416C414.069 16.8434 416.543 18.366 418.922 19.9837C419.398 20.3643 419.588 21.0305 419.208 21.5063C418.922 21.7917 418.541 21.9821 418.161 21.9821ZM259.814 16.2724C259.338 16.2724 258.957 15.9869 258.767 15.5111C258.577 14.9402 258.862 14.3692 259.433 14.1789C262.193 13.3225 264.952 12.466 267.712 11.6096C268.283 11.4192 268.854 11.7999 269.044 12.3709C269.235 12.9418 268.854 13.5128 268.283 13.7031C265.523 14.4644 262.764 15.3208 260.099 16.2724C260.004 16.2724 259.909 16.2724 259.814 16.2724ZM403.221 13.5128C403.03 13.5128 402.935 13.5128 402.745 13.4176C400.175 12.2757 397.511 11.2289 394.846 10.2773C394.275 10.087 393.99 9.42088 394.18 8.84991C394.371 8.27895 395.037 7.99347 395.608 8.18379C398.367 9.1354 401.127 10.2773 403.696 11.4193C404.267 11.7047 404.458 12.2757 404.267 12.8467C403.982 13.3225 403.601 13.5128 403.221 13.5128ZM276.277 11.4193C275.801 11.4193 275.325 11.1338 275.23 10.5628C275.039 9.99184 275.42 9.42088 275.991 9.23056C278.751 8.46927 281.606 7.80315 284.365 7.13703C284.936 7.04187 285.507 7.32735 285.697 7.99348C285.793 8.56444 285.507 9.1354 284.841 9.32572C282.081 9.99184 279.227 10.658 276.467 11.4193C276.467 11.4193 276.372 11.4193 276.277 11.4193ZM387.043 7.70799C386.948 7.70799 386.853 7.70799 386.758 7.70799C384.093 6.94671 381.239 6.28059 378.479 5.70963C377.908 5.61446 377.527 5.0435 377.622 4.37738C377.718 3.80642 378.289 3.42577 378.955 3.52093C381.809 4.0919 384.664 4.85318 387.424 5.61447C387.995 5.80479 388.376 6.37574 388.185 6.94671C387.9 7.42251 387.519 7.70799 387.043 7.70799ZM293.12 7.51767C292.644 7.51767 292.168 7.13703 292.073 6.66123C291.978 6.09027 292.359 5.5193 292.93 5.42414C295.784 4.85318 298.639 4.28222 301.399 3.80642C301.97 3.71126 302.541 4.0919 302.636 4.66286C302.731 5.23382 302.351 5.80478 301.78 5.89994C299.02 6.37575 296.165 6.94671 293.31 7.51767C293.215 7.51767 293.12 7.51767 293.12 7.51767ZM310.059 4.5677C309.488 4.5677 309.012 4.18705 309.012 3.61609C308.917 3.04513 309.297 2.47417 309.963 2.37901C312.818 1.99837 315.673 1.61773 318.528 1.33225C319.099 1.23709 319.67 1.71289 319.765 2.28385C319.86 2.85481 319.384 3.42577 318.813 3.52093C315.958 3.80641 313.104 4.18705 310.249 4.5677C310.154 4.5677 310.154 4.5677 310.059 4.5677ZM370.2 4.18706C370.105 4.18706 370.105 4.18706 370.01 4.18706C367.25 3.80642 364.395 3.42577 361.54 3.14029C360.969 3.04513 360.494 2.56933 360.589 1.90321C360.684 1.33225 361.16 0.856444 361.826 0.951604C364.776 1.23709 367.631 1.61773 370.39 1.99837C370.961 2.09353 371.437 2.66449 371.342 3.23546C371.151 3.71126 370.676 4.18706 370.2 4.18706ZM327.187 2.75965C326.616 2.75965 326.141 2.28385 326.141 1.71288C326.141 1.14192 326.521 0.570961 327.187 0.570961C330.042 0.38064 332.992 0.190319 335.847 0.095159C336.418 0.095159 336.989 0.57096 336.989 1.14192C336.989 1.71288 336.513 2.28385 335.942 2.28385C332.992 2.47417 330.137 2.56933 327.187 2.75965C327.283 2.75965 327.187 2.75965 327.187 2.75965ZM353.071 2.47417C352.976 2.47417 352.976 2.47417 353.071 2.47417C350.216 2.37901 347.361 2.28385 344.411 2.18869C343.84 2.18869 343.365 1.71289 343.365 1.04676C343.365 0.475801 343.84 0 344.507 0C347.457 0 350.311 0.0951561 353.166 0.285477C353.737 0.285477 354.213 0.856444 354.213 1.42741C354.118 1.99837 353.642 2.47417 353.071 2.47417Z" fill="#4474B5"/>
<path d="M420.826 187.18C420.635 187.18 420.445 187.085 420.255 186.99C419.779 186.704 419.589 186.038 419.874 185.467C420.635 184.23 421.397 182.993 422.158 181.756C422.443 181.28 423.11 181.09 423.681 181.375C424.156 181.661 424.347 182.327 424.061 182.898C423.3 184.135 422.539 185.372 421.777 186.609C421.587 186.99 421.206 187.18 420.826 187.18Z" fill="#4474B5"/>
<path opacity="0.7" d="M197.96 7.51765C197.865 7.51765 197.865 7.42249 197.96 7.51765C197.865 7.42249 197.865 7.32733 197.865 7.32733C199.864 5.61444 202.433 4.66284 205.002 4.66284C205.097 4.66284 205.097 4.758 205.097 4.758C205.097 4.85316 205.002 4.85316 205.002 4.85316C202.433 4.85316 199.959 5.80477 197.96 7.51765C197.96 7.42249 197.96 7.51765 197.96 7.51765Z" fill="white"/>
<path opacity="0.7" d="M194.154 15.7965C194.059 15.7965 194.059 15.7013 194.059 15.7013C194.059 13.6078 194.63 11.6095 195.677 9.89657C195.677 9.80141 195.772 9.80141 195.867 9.89657C195.962 9.89657 195.962 9.99172 195.867 10.0869C194.82 11.7998 194.249 13.7981 194.249 15.7965C194.249 15.7013 194.249 15.7965 194.154 15.7965Z" fill="white"/>
<path opacity="0.7" d="M312.19 108.366C312.095 108.366 312.095 108.271 312.19 108.366C312.095 108.271 312.095 108.176 312.095 108.176C314.093 106.463 316.662 105.512 319.232 105.512C319.327 105.512 319.327 105.607 319.327 105.607C319.327 105.702 319.232 105.702 319.232 105.702C316.662 105.702 314.188 106.654 312.19 108.366C312.19 108.271 312.19 108.366 312.19 108.366Z" fill="white"/>
<path opacity="0.7" d="M308.383 116.646C308.288 116.646 308.288 116.55 308.288 116.55C308.288 114.457 308.859 112.458 309.906 110.746C309.906 110.65 310.001 110.65 310.096 110.746C310.192 110.746 310.192 110.841 310.096 110.936C309.05 112.649 308.479 114.647 308.479 116.646C308.479 116.55 308.479 116.646 308.383 116.646Z" fill="white"/>
<path d="M494.9 337.75C494.9 343.367 491.613 347.9 487.541 347.9H51.4584C47.3862 347.9 44.0999 343.367 44.0999 337.75C44.0999 332.133 47.3862 327.6 51.4584 327.6H487.541C491.613 327.6 494.9 332.133 494.9 337.75Z" fill="#FEE2BF"/>
<path d="M194.249 350H39.3274C36.1871 350 33.6178 347.621 33.2372 344.576L3.64226 67.9444C3.26162 64.3283 6.11643 61.188 9.73253 61.188H164.654C167.794 61.188 170.363 63.567 170.744 66.6121L200.339 343.243C200.719 346.86 197.865 350 194.249 350Z" fill="#3F6DAB"/>
<path d="M40.1838 350H34.7597C32.6661 350 30.9533 348.478 30.7629 346.384L0.0261199 66.1366C-0.259361 63.4721 1.83417 61.1882 4.40351 61.1882H9.06636C11.3502 61.1882 13.2534 62.9011 13.4437 65.185L44.1806 345.432C44.466 347.907 42.5628 350 40.1838 350Z" fill="#2D5284"/>
<path d="M147.239 342.006H119.643C118.786 342.006 118.12 341.34 118.12 340.484C118.12 339.627 118.786 338.961 119.643 338.961H147.239C148.096 338.961 148.762 339.627 148.762 340.484C148.762 341.34 148.096 342.006 147.239 342.006Z" fill="#2D5284"/>
<path d="M115.741 68.6105C114.695 68.6105 113.743 67.7541 113.743 66.6121C113.743 65.5654 114.599 64.6138 115.741 64.6138C116.788 64.6138 117.74 65.4702 117.74 66.6121C117.74 67.7541 116.788 68.6105 115.741 68.6105Z" fill="#2D5284"/>
<path d="M123.45 68.6105C122.403 68.6105 121.451 67.7541 121.451 66.6121C121.451 65.5654 122.308 64.6138 123.45 64.6138C124.496 64.6138 125.448 65.4702 125.448 66.6121C125.448 67.7541 124.591 68.6105 123.45 68.6105Z" fill="#2D5284"/>
<path d="M103.466 68.6105H82.245C81.1982 68.6105 80.2466 67.7541 80.2466 66.6121C80.2466 65.5654 81.103 64.6138 82.245 64.6138H103.466C104.512 64.6138 105.464 65.4702 105.464 66.6121C105.464 67.7541 104.608 68.6105 103.466 68.6105Z" fill="#2D5284"/>
<path d="M188.825 329.35C187.873 330.492 186.446 331.253 184.733 331.253H55.1242C52.8403 331.253 50.9371 329.826 50.1758 327.828C49.9855 327.447 49.8903 326.971 49.8903 326.591L49.6049 323.736L47.2258 302.039L46.4646 294.902L42.4678 258.646L39.4227 231.716L39.2324 230.003L38.9469 227.909L38.5662 224.198L37.9953 218.774L35.5211 196.697L31.5244 160.536L30.6679 152.828L29.1454 139.125L24.197 94.6846L22.6745 80.696L22.2938 77.1751C22.1035 75.1767 22.9599 73.3687 24.4825 72.3219C25.3389 71.6558 26.3857 71.3703 27.4325 71.2751H27.5276H157.231C159.896 71.2751 162.18 73.2735 162.465 76.0332L165.13 99.7281L165.225 100.489L168.746 131.702L169.888 142.17L170.744 149.973L170.934 151.781L174.741 186.324L175.692 195.174L175.788 195.65L176.454 201.835L179.499 228.956L180.355 236.474L184.162 270.636L188.444 309.367L190.252 325.353C190.157 326.876 189.776 328.208 188.825 329.35Z" fill="white"/>
<path d="M81.674 331.254C81.8643 331.92 82.0546 332.586 82.2449 333.252C81.7691 332.586 81.2933 331.92 80.8175 331.254C79.3901 329.16 78.2482 326.876 77.3918 324.402C65.4015 290.144 63.1177 268.353 66.6386 269.59C66.9241 269.685 67.1144 269.78 67.3999 269.875C68.9225 270.446 70.445 271.112 71.9676 271.683C79.295 274.728 85.5755 278.154 91.19 281.77C98.327 286.243 104.512 290.906 110.983 295.473C112.22 296.33 113.458 297.186 114.695 298.043C115.361 298.518 116.027 298.994 116.693 299.375C123.64 303.942 131.348 312.412 137.914 320.786C140.673 324.402 143.243 327.923 145.336 331.158H81.674V331.254Z" fill="#BAE5FE"/>
<path d="M153.139 331.253H140.864C131.823 325.068 123.069 318.502 114.504 311.65C99.2786 299.279 84.9094 285.862 71.8724 271.683C71.7773 271.588 71.6821 271.397 71.4918 271.302C69.7789 269.494 68.2563 267.686 66.7338 265.973C64.8306 263.88 63.1177 261.881 61.4048 259.883C50.0807 246.465 43.0388 236.093 39.8985 231.24C39.613 230.764 39.3276 230.288 39.0421 229.907L38.7566 227.814L43.8001 224.769C43.8001 224.769 44.3711 225.72 45.513 227.528C49.3194 233.428 59.5967 248.368 76.5353 266.83C80.7223 271.397 85.5755 276.441 90.9997 281.675C96.3287 286.813 102.229 292.333 108.604 297.852C109.746 298.803 110.888 299.85 112.03 300.802C119.738 307.368 128.303 314.124 137.628 320.786C142.767 324.306 147.81 327.827 153.139 331.253Z" fill="#99A3B4"/>
<path d="M91.1898 116.096C90.143 103.63 84.2431 91.8298 74.6319 83.075C68.5416 77.4606 61.4045 73.4638 53.7917 71.2751H27.3371H27.242C26.1952 71.5606 25.2436 71.9413 24.292 72.3219C22.8646 73.3687 21.913 75.1767 22.1033 77.1751L22.4839 80.696C27.8129 77.8412 33.9032 76.3187 40.3741 76.3187C62.7368 76.3187 82.435 94.4943 84.4334 116.857C85.385 127.61 82.0544 137.602 75.2028 145.12C68.3513 152.637 58.7401 156.729 48.0821 156.729C41.9918 156.729 35.9967 155.397 30.5726 152.923L31.429 160.631C36.758 162.534 42.3725 163.581 48.0821 163.581C57.1223 163.581 65.5916 161.011 72.6335 156.349C74.6318 155.016 76.5351 153.494 78.3431 151.781C79.0092 151.115 79.6754 150.449 80.3415 149.782C88.4301 140.647 92.3317 128.752 91.1898 116.096Z" fill="#99A3B4"/>
<path d="M46.6548 144.834C40.1839 144.834 33.9984 142.646 28.9549 139.029L24.0066 94.5896C28.5743 90.4977 34.7597 87.9283 41.7064 87.9283C57.4079 87.9283 71.3013 100.68 72.6336 116.381C73.9658 132.083 62.3562 144.834 46.6548 144.834Z" fill="#36C75E"/>
<path d="M180.165 236.569C173.504 234.285 167.033 231.811 160.752 229.241H160.657C159.23 228.67 157.802 228.004 156.375 227.433C152.949 226.006 149.714 224.483 146.478 222.961C146.383 222.866 146.193 222.866 146.098 222.77C145.432 222.485 144.766 222.104 144.004 221.819C142.672 221.153 141.245 220.487 139.912 219.82C130.111 214.872 120.975 209.543 112.696 203.834C101.087 196.03 93.7595 189.464 90.0483 185.943C88.2402 184.135 87.2886 183.089 87.1935 182.993L87.0983 182.898L87.0031 182.803C86.5273 182.137 85.9564 181.471 85.4806 180.805C79.5806 172.621 75.679 165.96 72.5387 156.539C72.0629 155.016 71.5871 153.399 71.1113 151.686L77.6774 149.878C77.8677 150.544 78.058 151.21 78.2484 151.876C81.008 161.202 84.3386 167.387 89.6676 175C90.5241 176.237 91.3805 177.379 92.3321 178.711C92.5224 178.902 93.1886 179.568 94.1402 180.519C97.3756 183.66 104.703 190.416 116.788 198.505C122.783 202.501 130.301 207.164 139.627 212.017C140.388 212.398 141.245 212.874 142.101 213.254C143.433 213.921 144.861 214.682 146.288 215.348C147.715 216.014 149.143 216.775 150.57 217.441C154.662 219.345 159.04 221.343 163.702 223.246C163.798 223.246 163.893 223.341 163.893 223.341C164.083 223.437 164.273 223.532 164.369 223.532C165.606 224.008 166.748 224.483 167.985 224.959C171.601 226.387 175.407 227.814 179.404 229.241L180.165 236.569Z" fill="#99A3B4"/>
<path d="M133.917 160.916L114.695 189.94L99.8496 179.473L119.072 150.449L133.917 160.916Z" fill="#D8DCE6"/>
<path d="M103.751 202.596L80.3417 228.29L66.9241 215.919L90.3335 190.321L103.751 202.596Z" fill="#D8DCE6"/>
<path d="M82.5305 179.758L56.3614 202.597L44.1809 188.989L70.4452 166.245L82.5305 179.758Z" fill="#D8DCE6"/>
<path d="M52.0791 206.308L37.9002 218.679L35.426 196.697L39.8986 192.795L52.0791 206.308Z" fill="#D8DCE6"/>
<path d="M73.5853 260.549L49.7952 231.145L63.1176 220.867L86.8126 250.367L73.5853 260.549Z" fill="#D8DCE6"/>
<path d="M108.604 290.525L79.2944 266.639L89.6669 253.507L118.976 277.393L108.604 290.525Z" fill="#D8DCE6"/>
<path d="M127.351 237.425L96.5188 215.634L105.749 201.74L136.676 223.437L127.351 237.425Z" fill="#D8DCE6"/>
<path d="M173.789 260.169L139.817 244.467L145.907 228.766L179.975 244.372L173.789 260.169Z" fill="#D8DCE6"/>
<path d="M68.2562 331.253H55.1241C52.8402 331.253 50.937 329.826 50.1757 327.827L49.5096 323.64L47.1306 301.944L63.5934 300.897L68.2562 331.253Z" fill="#D8DCE6"/>
<path d="M146.478 321.357L117.169 297.471L127.541 284.339L156.851 308.225L146.478 321.357Z" fill="#D8DCE6"/>
<path d="M188.825 329.35C187.873 330.492 186.446 331.253 184.733 331.253H162.465L151.522 323.545L160.752 309.557L188.825 329.35Z" fill="#D8DCE6"/>
<path d="M145.812 119.236L137.057 153.494L120.023 147.879L128.778 113.526L145.812 119.236Z" fill="#D8DCE6"/>
<path d="M149.714 76.985L146.288 112.67L128.874 109.53L132.204 73.8447L149.714 76.985Z" fill="#D8DCE6"/>
<path d="M114.98 71.2751C114.789 78.7928 114.314 92.6862 112.981 104.486C110.793 123.613 95.567 160.345 89.0961 161.297C82.6252 162.248 89.1913 151.495 95.3767 129.513C101.181 109.149 91.7606 86.3105 73.585 71.3703H114.98V71.2751Z" fill="#36C75E"/>
<path d="M188.254 309.462C186.065 311.365 182.734 311.65 178.072 309.367C167.128 304.038 145.622 288.907 126.114 274.157C124.877 273.206 123.545 272.254 122.308 271.302C103.466 256.933 87.3836 243.516 86.1466 240.756C83.5772 235.046 91.1901 224.674 97.5658 228.385C100.516 230.098 113.743 238.662 130.301 247.703C131.633 248.464 132.965 249.13 134.393 249.891C150.285 258.361 168.555 266.925 183.876 270.731L188.254 309.462Z" fill="#36C75E"/>
<path d="M108.985 303.562L106.701 299.66C110.317 297.567 114.409 291.001 118.977 280.057C123.164 269.97 127.256 257.409 131.157 245.324C134.583 234.761 137.818 224.769 141.054 216.776C141.434 215.253 144.289 203.548 149.428 188.703C154.471 173.953 162.655 152.923 173.313 136.365L177.12 138.839C157.136 169.861 145.622 217.632 145.526 218.108V218.298L145.431 218.488C142.291 226.387 139.055 236.379 135.63 246.941C131.633 259.122 127.541 271.683 123.259 281.96C118.025 293.951 113.552 300.897 108.985 303.562Z" fill="#99A3B4"/>
<defs>
<radialGradient id="paint0_radial_1_3338" cx="0" cy="0" r="1" gradientUnits="userSpaceOnUse" gradientTransform="translate(247.629 131.535) scale(171.784 171.784)">
<stop stop-color="#BAE5FF"/>
<stop offset="1" stop-color="#B8D1DF"/>
</radialGradient>
<radialGradient id="paint1_radial_1_3338" cx="0" cy="0" r="1" gradientUnits="userSpaceOnUse" gradientTransform="translate(247.632 131.533) scale(171.784 171.784)">
<stop stop-color="#ABE1ED"/>
<stop offset="1" stop-color="#5589C9"/>
</radialGradient>
</defs>
</svg>
