<svg width="21" height="22" viewBox="0 0 21 22" fill="none" xmlns="http://www.w3.org/2000/svg">
<path d="M9.72534 19.3735C8.98873 18.4175 7.63271 16.6074 6.3269 14.5933C7.53226 14.3945 8.85481 14.2871 10.2499 14.2871C11.6617 14.2871 13.0066 14.3999 14.2231 14.604C12.9229 16.6128 11.5724 18.4175 10.8414 19.3735C10.5624 19.7334 10.0044 19.7334 9.72534 19.3735Z" fill="#5589C9"/>
<path d="M20.25 18.1436C20.25 20.2759 15.7746 22 10.25 22C4.72545 22 0.25 20.2759 0.25 18.1436C0.25 16.8115 2.00223 15.6353 4.66964 14.9424C6.17634 17.021 7.66629 18.8848 8.48661 20.0342C9.13951 20.9473 10.8583 21.3394 11.9074 20.1255C12.8504 19.0352 14.4185 17.1284 15.9643 14.98C18.5536 15.6782 20.25 16.833 20.25 18.1436Z" fill="#5589C9"/>
<path d="M10.2723 0C6.22656 0 2.94531 3.1582 2.94531 7.05225C2.94531 8.8999 4.59152 11.9238 6.32701 14.5933C7.63281 16.6074 8.98884 18.4175 9.72544 19.3735C10.0045 19.7334 10.5625 19.7334 10.8415 19.3735C11.5725 18.4175 12.923 16.6128 14.2232 14.604C15.9531 11.9292 17.5993 8.90527 17.5993 7.05225C17.5993 3.1582 14.3181 0 10.2723 0ZM6.8125 7.19727C6.8125 5.36035 8.36384 3.86719 10.2723 3.86719C12.1808 3.86719 13.7321 5.36035 13.7321 7.19727C13.7321 7.93311 13.481 8.61524 13.0625 9.16309C12.4319 9.99024 11.4163 10.5273 10.2723 10.5273C9.13393 10.5273 8.1183 9.99561 7.48772 9.17383C7.06361 8.62061 6.8125 7.93848 6.8125 7.19727Z" fill="#5589C9"/>
</svg>
