<svg width="262" height="250" viewBox="0 0 262 250" fill="none" xmlns="http://www.w3.org/2000/svg">
<path d="M131.083 250C203.341 250 261.917 247.914 261.917 245.341C261.917 242.768 203.341 240.682 131.083 240.682C58.8261 240.682 0.25 242.768 0.25 245.341C0.25 247.914 58.8261 250 131.083 250Z" fill="#9AABD3"/>
<path d="M82.9068 28.8635C83.9145 28.8635 84.7265 27.9962 84.7265 26.9885C84.7265 12.1021 96.827 -0.00012207 111.711 -0.00012207C126.595 -0.00012207 138.696 12.1021 138.696 26.9885C138.696 28.0246 139.479 28.8635 140.515 28.8635H180.563C186.086 28.8635 190.563 33.3406 190.563 38.8635V233.409C190.563 238.932 186.086 243.409 180.563 243.409H40.3594C34.8365 243.409 30.3594 238.932 30.3594 233.409V38.8635C30.3594 33.3406 34.8365 28.8635 40.3594 28.8635H82.9068Z" fill="#5589C9"/>
<path d="M40.217 231.829L180.708 231.829L180.708 39.8409L40.217 39.8409L40.217 231.829Z" fill="white"/>
<path d="M84.272 32.3863V44.659H138.923V32.3863H122.221C121.596 29.7159 117.108 27.6704 111.598 27.6704C106.087 27.6704 101.542 29.7159 100.974 32.3863H84.272ZM110.348 30.6818C110.348 30 110.916 29.4318 111.598 29.4318C112.279 29.4318 112.847 30 112.847 30.6818C112.847 31.3636 112.279 31.9318 111.598 31.9318C110.916 31.9318 110.348 31.3636 110.348 30.6818Z" fill="#FFAF24"/>
<path d="M145.172 106.477H161.136C163.351 106.477 165.169 104.659 165.169 102.443V86.4775C165.169 84.2615 163.351 82.4434 161.136 82.4434H145.172C142.957 82.4434 141.139 84.2615 141.139 86.4775V102.443C141.139 104.659 142.957 106.477 145.172 106.477Z" stroke="#36C75E" stroke-width="2.2215" stroke-miterlimit="10"/>
<path d="M144.434 92.8976L152.728 100.284L172.611 85.1135" stroke="#36C75E" stroke-width="2.851" stroke-miterlimit="10" stroke-linecap="round" stroke-linejoin="round"/>
<path d="M145.172 158.864H161.136C163.351 158.864 165.169 157.045 165.169 154.83V138.864C165.169 136.648 163.351 134.83 161.136 134.83H145.172C142.957 134.83 141.139 136.648 141.139 138.864V154.83C141.139 157.045 142.957 158.864 145.172 158.864Z" stroke="#36C75E" stroke-width="2.2215" stroke-miterlimit="10"/>
<path d="M144.434 145.284L152.728 152.67L172.611 137.5" stroke="#36C75E" stroke-width="2.851" stroke-miterlimit="10" stroke-linecap="round" stroke-linejoin="round"/>
<path d="M145.172 217.443H161.136C163.351 217.443 165.169 215.625 165.169 213.409V197.443C165.169 195.227 163.351 193.409 161.136 193.409H145.172C142.957 193.409 141.139 195.227 141.139 197.443V213.409C141.139 215.682 142.957 217.443 145.172 217.443Z" stroke="#36C75E" stroke-width="2.2215" stroke-miterlimit="10"/>
<path d="M144.434 203.864L152.728 211.25L172.611 196.136" stroke="#36C75E" stroke-width="2.851" stroke-miterlimit="10" stroke-linecap="round" stroke-linejoin="round"/>
<path d="M58.878 88.4659H134.151C134.492 88.4659 134.833 88.1818 134.833 87.784V85.7386C134.833 85.3977 134.549 85.0568 134.151 85.0568H58.878C58.5371 85.0568 58.1963 85.3409 58.1963 85.7386V87.784C58.1963 88.1249 58.4803 88.4659 58.878 88.4659Z" fill="#D8DCE6"/>
<path d="M72.7965 62.2727H148.07C148.411 62.2727 148.751 61.9886 148.751 61.5909V59.5455C148.751 59.2046 148.467 58.8636 148.07 58.8636H72.7965C72.4556 58.8636 72.1147 59.1477 72.1147 59.5455V61.5909C72.1716 61.9318 72.4556 62.2727 72.7965 62.2727Z" fill="#D8DCE6"/>
<path d="M58.878 94.3752H134.151C134.492 94.3752 134.833 94.0911 134.833 93.6933V91.6479C134.833 91.307 134.549 90.9661 134.151 90.9661H58.878C58.5371 90.9661 58.1963 91.2502 58.1963 91.6479V93.6933C58.1963 94.0342 58.4803 94.3752 58.878 94.3752Z" fill="#D8DCE6"/>
<path d="M84.9535 100.284H133.981C134.435 100.284 134.776 99.9432 134.776 99.4886V97.7841C134.776 97.3296 134.435 96.9886 133.981 96.9886H84.9535C84.4991 96.9886 84.1582 97.3296 84.1582 97.7841V99.4886C84.1582 99.8864 84.4991 100.284 84.9535 100.284Z" fill="#D8DCE6"/>
<path d="M58.878 142.613H134.151C134.492 142.613 134.833 142.329 134.833 141.932V139.886C134.833 139.545 134.549 139.204 134.151 139.204H58.878C58.5371 139.204 58.1963 139.488 58.1963 139.886V141.932C58.1963 142.329 58.4803 142.613 58.878 142.613Z" fill="#D8DCE6"/>
<path d="M58.878 148.523H134.151C134.492 148.523 134.833 148.239 134.833 147.841V145.795C134.833 145.454 134.549 145.114 134.151 145.114H58.878C58.5371 145.114 58.1963 145.398 58.1963 145.795V147.841C58.1963 148.239 58.4803 148.523 58.878 148.523Z" fill="#D8DCE6"/>
<path d="M84.9535 154.432H133.981C134.435 154.432 134.776 154.091 134.776 153.636V151.932C134.776 151.477 134.435 151.136 133.981 151.136H84.9535C84.4991 151.136 84.1582 151.477 84.1582 151.932V153.636C84.1582 154.034 84.4991 154.432 84.9535 154.432Z" fill="#D8DCE6"/>
<path d="M58.878 201.193H134.151C134.492 201.193 134.833 200.909 134.833 200.511V198.466C134.833 198.125 134.549 197.784 134.151 197.784H58.878C58.5371 197.784 58.1963 198.068 58.1963 198.466V200.511C58.1963 200.909 58.4803 201.193 58.878 201.193Z" fill="#D8DCE6"/>
<path d="M58.878 207.102H134.151C134.492 207.102 134.833 206.818 134.833 206.421V204.375C134.833 204.034 134.549 203.693 134.151 203.693H58.878C58.5371 203.693 58.1963 203.977 58.1963 204.375V206.421C58.1963 206.818 58.4803 207.102 58.878 207.102Z" fill="#D8DCE6"/>
<path d="M84.9535 213.011H133.981C134.435 213.011 134.776 212.67 134.776 212.216V210.511C134.776 210.057 134.435 209.716 133.981 209.716H84.9535C84.4991 209.716 84.1582 210.057 84.1582 210.511V212.216C84.1582 212.67 84.4991 213.011 84.9535 213.011Z" fill="#D8DCE6"/>
</svg>
