<svg width="65" height="46" viewBox="0 0 65 46" fill="none" xmlns="http://www.w3.org/2000/svg">
<ellipse cx="23.913" cy="22.9167" rx="23.913" ry="22.9167" fill="#BAE3FB"/>
<path d="M40.1644 4.07861C44.5014 4.07861 48.0362 7.61341 48.0362 11.9503C48.0362 16.2873 44.5014 19.8221 40.1644 19.8221C35.8275 19.8221 32.2927 16.2873 32.2927 11.9503C32.2927 7.61341 35.8275 4.07861 40.1644 4.07861ZM40.1644 0C33.5707 0 28.2141 5.34298 28.2141 11.9503C28.2141 18.5577 33.5571 23.9007 40.1644 23.9007C46.7718 23.9007 52.1148 18.5577 52.1148 11.9503C52.1148 5.34298 46.7718 0 40.1644 0Z" fill="#3F6DAB"/>
<path d="M32.7143 29.8147H36.0179C37.1463 29.8147 38.0572 28.9038 38.0572 27.7754C38.0572 26.647 37.1463 25.7361 36.0179 25.7361H32.7143C24.1084 25.7361 17.1204 32.7105 17.1204 41.33C17.1204 42.2273 17.4874 43.043 18.072 43.6412C18.6566 44.2258 19.4724 44.5929 20.3833 44.5929H36.0179C37.1463 44.5929 38.0572 43.682 38.0572 42.5536C38.0572 41.4251 37.1463 40.5143 36.0179 40.5143H21.2398C21.6612 34.5459 26.6507 29.8147 32.7143 29.8147Z" fill="#3F6DAB"/>
<path d="M52.1148 27.5306L53.2568 29.8418C53.9366 31.2149 55.2417 32.1666 56.7644 32.3977L59.3067 32.7648L57.4714 34.5594C56.3701 35.6334 55.8671 37.1697 56.1254 38.6788L56.5605 41.2075L54.29 40.0111C53.6239 39.6576 52.8761 39.4809 52.1148 39.4809C51.3534 39.4809 50.6057 39.6712 49.9395 40.0111L47.6691 41.2075L48.1041 38.6788C48.3625 37.1697 47.8594 35.6198 46.7582 34.5594L44.9228 32.7648L47.4652 32.3977C48.9878 32.1802 50.293 31.2285 50.9728 29.8418L52.1148 27.5306ZM52.1148 22.1604C51.5982 22.1604 51.0679 22.4323 50.796 22.9761L48.1041 28.4279C47.8866 28.8629 47.4788 29.162 47.0029 29.23L40.9938 30.1001C39.7974 30.2768 39.3079 31.7587 40.178 32.6016L44.5286 36.8434C44.8684 37.1833 45.0316 37.6591 44.95 38.135L43.9304 44.1169C43.7672 45.0686 44.515 45.8299 45.3715 45.8299C45.6026 45.8299 45.8337 45.7756 46.0512 45.6532L51.4214 42.8254C51.6389 42.7166 51.8701 42.6622 52.1012 42.6622C52.3323 42.6622 52.5634 42.7166 52.781 42.8254L58.1511 45.6532C58.3823 45.7756 58.6134 45.8299 58.8309 45.8299C59.6874 45.8299 60.4351 45.055 60.272 44.1169L59.2524 38.135C59.1708 37.6591 59.3339 37.1697 59.6738 36.8434L64.0243 32.6016C64.8944 31.7587 64.4186 30.2768 63.2086 30.1001L57.1995 29.23C56.7236 29.162 56.3158 28.8629 56.0982 28.4279L53.4335 22.9761C53.1616 22.4323 52.6314 22.1604 52.1148 22.1604Z" fill="#3F6DAB"/>
</svg>
