<svg width="26" height="40" viewBox="0 0 26 40" fill="none" xmlns="http://www.w3.org/2000/svg">
<path d="M12.6214 25.2158C19.4011 25.2158 24.8971 19.7198 24.8971 12.9401C24.8971 6.16045 19.4011 0.664429 12.6214 0.664429C5.84174 0.664429 0.345703 6.16045 0.345703 12.9401C0.345703 19.7198 5.84174 25.2158 12.6214 25.2158Z" fill="#3F6DAB"/>
<path d="M24.8972 12.2742H12.6216H0.345837C0.345837 12.2742 -0.605767 19.1257 10.3377 37.7772C10.8135 38.6336 11.6699 39.1094 12.6216 39.1094C13.5732 39.1094 14.4296 38.6336 14.9054 37.7772C25.944 19.1257 24.8972 12.2742 24.8972 12.2742Z" fill="#3F6DAB"/>
<path opacity="0.8" d="M12.6213 39.49C11.5745 39.5851 10.5278 39.0142 10.052 38.0625C3.67621 27.1191 1.2972 20.1724 0.440752 16.366C0.15527 15.5095 0.0601158 14.5579 0.0601158 13.7015C-0.0350446 12.7499 0.0601158 12.3692 0.0601158 12.3692V12.1789C0.535918 5.61285 6.05521 0.379028 12.7164 0.379028C19.4728 0.379028 24.9921 5.61285 25.3728 12.2741C25.3728 12.3692 25.3728 12.5596 25.3728 12.9402C25.3728 14.1773 25.1825 15.3192 24.897 16.4611C24.0405 20.3627 21.6615 27.2143 15.3809 37.9674C14.7148 38.919 13.7632 39.49 12.6213 39.49ZM0.631084 12.845C0.631084 13.0354 0.631084 13.3208 0.631084 13.7015C0.631084 14.5579 0.821399 15.3192 1.01172 16.1757C1.86816 19.9821 4.15201 26.8336 10.5278 37.6819C10.9084 38.348 11.6697 38.8238 12.5261 38.8238V39.2045V38.8238C13.2874 38.8238 14.1439 38.348 14.5245 37.6819C20.8051 27.0239 23.0889 20.1724 24.0406 16.366C24.326 15.3192 24.4212 14.1773 24.4212 13.0354L24.326 12.9402C24.326 12.5596 24.4212 12.3692 24.4212 12.3692C24.0405 6.08865 18.8067 1.14031 12.5261 1.14031C6.15039 1.14031 1.01173 6.18381 0.631084 12.4644V12.845Z" fill="white"/>
<path d="M12.7166 19.9822C16.6583 19.9822 19.8537 16.7868 19.8537 12.8452C19.8537 8.90349 16.6583 5.70813 12.7166 5.70813C8.77495 5.70813 5.57959 8.90349 5.57959 12.8452C5.57959 16.7868 8.77495 19.9822 12.7166 19.9822Z" fill="white"/>
<path d="M12.7164 20.3626C8.6245 20.3626 5.19873 17.032 5.19873 12.8449C5.19873 8.75305 8.52934 5.32727 12.7164 5.32727C16.8083 5.32727 20.2341 8.65789 20.2341 12.8449C20.2341 17.032 16.8083 20.3626 12.7164 20.3626ZM12.7164 6.18372C9.00514 6.18372 5.96003 9.22885 5.96003 12.9401C5.96003 16.6514 9.00514 19.6965 12.7164 19.6965C16.4277 19.6965 19.4728 16.6514 19.4728 12.9401C19.3776 9.13369 16.4277 6.18372 12.7164 6.18372Z" fill="#3F6DAB"/>
</svg>
