<svg width="235" height="165" viewBox="0 0 235 165" fill="none" xmlns="http://www.w3.org/2000/svg">
<path d="M17.1467 138.306V147.631H9.05908V138.262L17.1467 138.306Z" fill="#21255C"/>
<path d="M101.868 138.306V147.631H79.1074V138.262L101.868 138.306Z" fill="#21255C"/>
<path d="M85.3389 115.767C82.1569 115.767 79.5494 125.578 79.1074 138.262H91.5703C91.1726 125.534 88.5209 115.767 85.3389 115.767Z" fill="#21255C"/>
<path d="M104.873 119.612H86.2671V164.204H104.873C107.834 164.204 110.265 154.216 110.265 141.93C110.265 129.556 107.834 119.612 104.873 119.612Z" fill="#21255C"/>
<path d="M86.267 164.16C89.2448 164.16 91.6587 154.188 91.6587 141.886C91.6587 129.584 89.2448 119.612 86.267 119.612C83.2892 119.612 80.8752 129.584 80.8752 141.886C80.8752 154.188 83.2892 164.16 86.267 164.16Z" fill="#2D5284"/>
<path d="M87.5044 129.467C87.1067 128.805 86.7089 128.451 86.267 128.451C84.4992 128.451 83.0408 134.461 83.0408 141.886C83.0408 149.311 84.4992 155.321 86.267 155.321C86.7089 155.321 87.1067 154.968 87.5044 154.305C86.3554 152.272 85.5157 147.499 85.5157 141.886C85.5157 136.318 86.3554 131.5 87.5044 129.467Z" fill="white"/>
<path d="M87.5044 154.305C88.6027 154.305 89.4931 148.745 89.4931 141.886C89.4931 135.028 88.6027 129.467 87.5044 129.467C86.406 129.467 85.5156 135.028 85.5156 141.886C85.5156 148.745 86.406 154.305 87.5044 154.305Z" fill="#C7D2D7"/>
<path d="M205.813 119.612H187.208V164.204H205.813C208.775 164.204 211.205 154.216 211.205 141.93C211.205 129.556 208.775 119.612 205.813 119.612Z" fill="#1D375A"/>
<path d="M192.555 141.886C192.555 154.172 190.169 164.16 187.163 164.16C184.202 164.16 181.772 154.172 181.772 141.886C181.772 129.6 184.158 119.612 187.163 119.612C190.169 119.612 192.555 129.556 192.555 141.886Z" fill="#2D5284"/>
<path d="M188.445 129.467C188.047 128.805 187.65 128.451 187.208 128.451C185.44 128.451 183.981 134.461 183.981 141.886C183.981 149.311 185.44 155.321 187.208 155.321C187.65 155.321 188.047 154.968 188.445 154.305C187.296 152.272 186.456 147.499 186.456 141.886C186.456 136.318 187.252 131.5 188.445 129.467Z" fill="white"/>
<path d="M188.445 129.467C187.296 131.5 186.457 136.273 186.457 141.886C186.457 147.455 187.296 152.272 188.445 154.305C189.594 152.272 190.434 147.499 190.434 141.886C190.434 136.318 189.594 131.5 188.445 129.467Z" fill="#C7D2D7"/>
<path d="M15.2905 115.767C12.1085 115.767 9.50103 125.578 9.05908 138.262H21.522C21.08 125.534 18.4725 115.767 15.2905 115.767Z" fill="#21255C"/>
<path d="M230.076 0.507301H101.868V138.262H230.076V0.507301Z" fill="#299F4A"/>
<path d="M224.697 132.913L224.697 5.89783L107.227 5.89783L107.227 132.913L224.697 132.913Z" fill="#2D5284"/>
<path d="M33.8962 119.612H15.2903V164.204H33.8962C36.8573 164.204 39.288 154.216 39.288 141.93C39.2438 129.556 36.8573 119.612 33.8962 119.612Z" fill="#21255C"/>
<path d="M15.2904 164.16C18.2682 164.16 20.6822 154.188 20.6822 141.886C20.6822 129.584 18.2682 119.612 15.2904 119.612C12.3126 119.612 9.89868 129.584 9.89868 141.886C9.89868 154.188 12.3126 164.16 15.2904 164.16Z" fill="#2D5284"/>
<path d="M16.5276 129.467C16.1299 128.805 15.7321 128.451 15.2902 128.451C13.5224 128.451 12.064 134.461 12.064 141.886C12.064 149.311 13.5224 155.321 15.2902 155.321C15.7321 155.321 16.1299 154.968 16.5276 154.305C15.3786 152.272 14.5389 147.499 14.5389 141.886C14.5389 136.318 15.3344 131.5 16.5276 129.467Z" fill="white"/>
<path d="M16.5278 154.305C17.6262 154.305 18.5166 148.745 18.5166 141.886C18.5166 135.028 17.6262 129.467 16.5278 129.467C15.4295 129.467 14.5391 135.028 14.5391 141.886C14.5391 148.745 15.4295 154.305 16.5278 154.305Z" fill="#C7D2D7"/>
<path d="M50.9556 0.507301V138.262H79.1518C79.5937 125.534 82.2012 115.767 85.3832 115.767C88.5652 115.767 91.1727 125.578 91.6147 138.262H101.912V0.507301H50.9556Z" fill="#36C75E"/>
<path d="M50.9554 32.8578H28.0183C23.9966 32.8578 20.5936 35.8188 20.0191 39.7964L14.1854 81.7371L6.84908 89.2944C4.41837 91.8135 3.04834 95.1281 3.04834 98.6195V138.262H8.97043C9.41237 125.534 12.0199 115.767 15.2019 115.767C18.3839 115.767 20.9914 125.578 21.4333 138.262H50.867V32.8578H50.9554Z" fill="#71CAFF"/>
<path d="M234.319 138.262H101.868V147.587H234.319V138.262Z" fill="#1D375A"/>
<path d="M101.868 138.262H91.6147V147.631H101.868V138.262Z" fill="#2D5284"/>
<path d="M50.9556 138.262V138.306L21.522 138.262V147.631H50.9556H79.1076V138.306L50.9556 138.262Z" fill="#2D5284"/>
<path d="M9.05882 138.306V147.631H0.971191V138.262L9.05882 138.306Z" fill="#2D5284"/>
<path d="M41.2325 38.7799H28.0183C26.9576 38.7799 26.0295 39.5754 25.8969 40.6361L20.1958 81.7371H41.2767V38.7799H41.2325Z" fill="#EAF7FF"/>
<path d="M40.437 76.7431C38.3598 74.666 35.5755 73.5169 32.6587 73.5169H24.8362L28.7254 42.2271C28.8138 41.6968 29.2557 41.299 29.786 41.299H41.1883V38.7799H28.0183C26.9576 38.7799 26.0295 39.5754 25.8969 40.6361L20.1958 81.7371H41.2767V76.7431H40.437Z" fill="#A6DCFB"/>
<path d="M39.2439 81.7371V132.428C39.2439 132.959 39.6858 133.401 40.2162 133.401C40.7465 133.401 41.1885 132.959 41.1885 132.428V81.7371H39.2439Z" fill="#345C8C" fill-opacity="0.5"/>
<path d="M6.27451 116.562C5.83256 116.562 5.479 116.209 5.479 115.767V99.2382C5.479 95.9236 6.76065 92.8299 9.01458 90.4434C9.32394 90.1341 9.85428 90.1341 10.1636 90.4434C10.473 90.7528 10.473 91.2831 10.1636 91.5925C8.17488 93.6696 7.07001 96.3655 7.07001 99.2382V115.767C7.07001 116.209 6.71645 116.562 6.27451 116.562Z" fill="#345C8C" fill-opacity="0.3"/>
<path d="M11.6664 89.6922C11.4454 89.6922 11.2687 89.6038 11.0919 89.4712C10.7825 89.1618 10.7825 88.6315 11.0919 88.3221L12.6387 86.7311C12.9481 86.4218 13.4784 86.4218 13.7878 86.7311C14.0971 87.0405 14.0971 87.5708 13.7878 87.8802L12.2409 89.4712C12.0642 89.6038 11.8432 89.6922 11.6664 89.6922Z" fill="#345C8C" fill-opacity="0.3"/>
<path d="M202.897 89.6922H159.719V132.87H202.897V89.6922Z" fill="#FFDC9F"/>
<path d="M185.175 89.6922H177.485V103.216H185.175V89.6922Z" fill="white"/>
<path d="M159.719 89.6922H150.438V132.87H159.719V89.6922Z" fill="#FFAF24"/>
<path d="M176.071 128.672H167.674C167.143 128.672 166.701 128.23 166.701 127.7V123.855C166.701 123.324 167.143 122.882 167.674 122.882H176.071C176.601 122.882 177.043 123.324 177.043 123.855V127.7C177.043 128.23 176.601 128.672 176.071 128.672Z" stroke="#FFAF24" stroke-miterlimit="10"/>
<path d="M186.103 53.2757H149.687V89.6922H186.103V53.2757Z" fill="#FFDC9F"/>
<path d="M171.165 53.2758H164.668V64.678H171.165V53.2758Z" fill="white"/>
<path d="M149.686 53.2757H137.931V89.6921H149.686V53.2757Z" fill="#FFAF24"/>
<path d="M166.525 86.7753H158.128C157.597 86.7753 157.155 86.3333 157.155 85.803V81.9581C157.155 81.4277 157.597 80.9858 158.128 80.9858H166.525C167.055 80.9858 167.497 81.4277 167.497 81.9581V85.803C167.541 86.3333 167.099 86.7753 166.525 86.7753Z" stroke="#FFAF24" stroke-miterlimit="10"/>
<path d="M137.975 46.5139H107.259V89.6921H137.975V46.5139Z" fill="#FFDC9F"/>
<path d="M120.209 46.514H112.519V60.0375H120.209V46.514Z" fill="white"/>
<path d="M137.93 89.6922H107.259V82.0907L137.93 89.6922Z" fill="#FFAF24"/>
<path d="M150.437 89.6922H107.259V132.87H150.437V89.6922Z" fill="#FFDC9F"/>
<path d="M132.672 89.6922H124.982V103.216H132.672V89.6922Z" fill="white"/>
<path d="M150.437 132.915H107.259V123.103L150.437 132.915Z" fill="#FFAF24"/>
<path d="M111.06 144.582H101.868V138.262H117.38C117.38 141.753 114.552 144.582 111.06 144.582Z" fill="#FFAF24"/>
<path d="M225.171 144.582H234.363V138.262H218.851C218.851 141.753 221.68 144.582 225.171 144.582Z" fill="#FFAF24"/>
<path d="M101.868 144.582C98.7742 144.582 96.2551 142.063 96.2551 138.969V138.262H101.868V144.582Z" fill="#FFD081"/>
<path d="M92.5869 36.3492H49.3645V39.9732H92.5869V36.3492Z" fill="white"/>
<path d="M92.5869 39.9732H49.3645V43.5971H92.5869V39.9732Z" fill="#D8DCE6"/>
<path d="M92.5869 36.3492V39.9732V43.5971H95.5921V39.9732V36.3492H92.5869Z" fill="#C7D2D7"/>
<path d="M92.5869 75.3731H49.3645V78.997H92.5869V75.3731Z" fill="white"/>
<path d="M92.5869 78.9971H49.3645V82.621H92.5869V78.9971Z" fill="#D8DCE6"/>
<path d="M92.5869 75.3731V78.9971V82.621H95.5921V78.9971V75.3731H92.5869Z" fill="#C7D2D7"/>
<path d="M224.95 5.63391H107.259V26.0518H224.95V5.63391Z" fill="#36C75E"/>
<path d="M224.95 8.24138H107.259V10.6279H224.95V8.24138Z" fill="#299F4A"/>
<path d="M224.95 13.147H107.259V15.5335H224.95V13.147Z" fill="#299F4A"/>
<path d="M224.95 18.0084H107.259V20.3949H224.95V18.0084Z" fill="#299F4A"/>
<path d="M224.95 22.8699H107.259V25.2564H224.95V22.8699Z" fill="#299F4A"/>
<path d="M14.5389 71.8375H18.9583C19.1351 71.8375 19.3119 71.6608 19.3119 71.484C19.3119 71.3072 19.1351 71.1304 18.9583 71.1304H14.8924V48.9447H20.5493C20.7261 48.9447 20.9029 48.7679 20.9029 48.5912C20.9029 48.4144 20.7261 48.2376 20.5493 48.2376H14.5389C14.3621 48.2376 14.1853 48.4144 14.1853 48.5912V71.484C14.1853 71.6608 14.3179 71.8375 14.5389 71.8375Z" fill="#21255C"/>
<path d="M12.3735 68.6998H16.6604C17.6327 68.6998 18.4724 67.9043 18.4724 66.8878V53.1432C18.4724 52.1709 17.6769 51.3312 16.6604 51.3312H12.3735C11.4012 51.3312 10.5615 52.1268 10.5615 53.1432V66.8878C10.6057 67.9043 11.4012 68.6998 12.3735 68.6998Z" fill="#21255C"/>
<path d="M12.9037 67.6832H16.13C16.9697 67.6832 17.6326 67.0203 17.6326 66.1806V53.8945C17.6326 53.0548 16.9697 52.3919 16.13 52.3919H12.9037C12.064 52.3919 11.4011 53.0548 11.4011 53.8945V66.1806C11.4011 67.0203 12.064 67.6832 12.9037 67.6832Z" fill="#EAF7FF"/>
</svg>
