<svg width="30" height="30" viewBox="0 0 30 30" fill="none" xmlns="http://www.w3.org/2000/svg">
<circle cx="15" cy="15" r="14.25" stroke="white" stroke-width="1.5"/>
<path d="M6.91972 14.4006C6.91972 14.4006 13.5555 11.6781 15.855 10.7194C16.7387 10.3372 19.7273 9.10902 19.7273 9.10902C19.7273 9.10902 21.1091 8.57338 20.9931 9.87666C20.9556 10.4123 20.6485 12.2922 20.3414 14.3256C19.8809 17.2016 19.3827 20.3472 19.3827 20.3472C19.3827 20.3472 19.3077 21.2309 18.6526 21.3844C18.001 21.5379 16.9263 20.8488 16.7353 20.6952C16.5817 20.5792 13.8592 18.8529 12.8629 18.0102C12.5934 17.7816 12.2864 17.321 12.9005 16.782C14.2822 15.5162 15.9301 13.9434 16.9263 12.9472C17.3869 12.4866 17.8475 11.4119 15.9301 12.7186C13.2075 14.5951 10.5259 16.3589 10.5259 16.3589C10.5259 16.3589 9.9118 16.7411 8.76205 16.3965C7.6123 16.0519 6.26808 15.5913 6.26808 15.5913C6.26808 15.5913 5.34691 15.0147 6.91972 14.4006Z" fill="white"/>
</svg>
