<svg width="21" height="20" viewBox="0 0 21 20" fill="none" xmlns="http://www.w3.org/2000/svg">
<path d="M0.250248 4.25178C0.245363 4.76893 0.299105 6.46672 1.65245 8.95974C2.48303 10.4917 3.70447 12.2236 5.81999 14.3507C9.90935 18.4732 13.6421 20.254 16.4856 19.971C17.3797 19.8832 18.0099 19.1026 18.6988 18.4098C19.202 17.9073 19.6515 17.5024 19.8323 17.2731C20.4528 16.4681 20.3404 15.3362 19.7688 14.7215C19.1629 14.0677 17.707 12.7554 16.808 11.8333C15.9921 10.9942 14.2088 11.4381 13.945 12.3504C13.6274 13.4677 12.4353 14.2287 11.1992 13.6921C9.90447 13.131 8.45829 11.9455 7.54954 10.7551C6.69454 9.633 6.10825 8.34014 6.46491 7.42782C6.82157 6.51551 7.84269 6.30084 8.27263 6.05203C9.18626 5.53 9.18626 4.21275 8.35569 3.31019C7.9062 2.82232 5.84931 0.783021 5.45356 0.475662C4.77933 -0.04636 3.69958 -0.30981 2.71755 0.602509C1.672 1.57825 1.31534 2.01246 0.85608 2.48081C0.289334 3.06138 0.255134 3.75415 0.250248 4.25178Z" fill="#4B7FC4"/>
</svg>
