<svg width="72" height="46" viewBox="0 0 72 46" fill="none" xmlns="http://www.w3.org/2000/svg">
<ellipse cx="24.1428" cy="22.9167" rx="23.913" ry="22.9167" fill="#BAE3FB"/>
<path d="M31.5545 10.5867H17.324C16.3411 10.5867 15.5342 11.3459 15.5342 12.3019V12.4003C15.5342 13.3423 16.3264 14.1156 17.324 14.1156H31.5545V10.5867Z" fill="#3F6DAB"/>
<path d="M32.1853 31.76H17.368C16.3557 31.76 15.5342 32.5473 15.5342 33.5174C15.5342 34.4875 16.3557 35.2748 17.368 35.2748H31.2024L47.2373 44.1463L49.1151 45.1866L49.8193 45.5522C49.9073 45.5944 49.9954 45.6365 50.0981 45.6647L51.9025 42.67L50.9196 42.1217L49.1298 41.1235L32.4053 31.8865L32.1853 31.76Z" fill="#3F6DAB"/>
<path d="M31.4079 21.1733H22.4442C21.4319 21.1733 20.6104 21.9607 20.6104 22.9308C20.6104 23.9008 21.4319 24.6882 22.4442 24.6882H31.4079C32.4202 24.6882 33.2417 23.9008 33.2417 22.9308C33.2417 21.9607 32.4348 21.1733 31.4079 21.1733Z" fill="#3F6DAB"/>
<path d="M69.7565 10.4882L68.2014 11.3739L66.2209 12.4986L51.0368 21.0889L32.3612 10.5303L30.5273 13.6374L49.1296 24.1538V45.1865L49.8338 45.5521C49.9218 45.5942 50.0099 45.6364 50.1126 45.6645C50.1566 45.6786 50.2006 45.6927 50.2446 45.7067H51.6676C51.8143 45.6645 51.9757 45.5942 52.1224 45.5239L52.8266 45.1443V24.2382L68.2454 15.5214L71.913 13.4406V12.9204C71.869 11.7254 70.9594 10.7131 69.7565 10.4882Z" fill="#3F6DAB"/>
<path d="M51.888 0.702881H50.5236L49.1152 3.05079L49.9661 3.51474L50.9197 4.049L50.9784 4.07711L51.2278 4.21771L68.5831 13.8202L70.4169 10.7693L53.1643 1.22308L53.1056 1.19496L52.8122 1.0403C52.8122 1.0403 52.8122 1.0403 52.7975 1.0403C52.7829 1.02624 52.7535 1.01219 52.7095 0.998127C52.5335 0.913771 52.196 0.75912 52.108 0.731001C52.0934 0.731001 52.064 0.731 52.0493 0.716941C52.0053 0.702882 51.9467 0.702881 51.888 0.702881Z" fill="#3F6DAB"/>
<path d="M51.8878 0.702881H49.6285L44.5525 3.51474L43.5402 4.07711L43.2908 4.21771L30.322 11.388L32.1558 14.4388L50.6261 4.21771L50.8755 4.07711L50.9342 4.049L53.1935 2.79772L53.3548 2.6993L53.6776 2.51653L53.8536 2.41812L53.6336 2.05257L53.1201 1.19496L52.8267 1.0403C52.8267 1.0403 52.8267 1.0403 52.812 1.0403C52.7973 1.02624 52.768 1.01219 52.724 0.998127C52.5479 0.913771 52.2105 0.75912 52.1078 0.731001C52.0932 0.731001 52.0638 0.731001 52.0492 0.731001C52.0051 0.702883 51.9465 0.702881 51.8878 0.702881Z" fill="#3F6DAB"/>
<path d="M71.8692 30.5227L68.2016 32.5472L52.7828 41.0812L50.9049 42.1216L49.1151 43.1198L47.2373 44.1602L49.1151 45.2006L49.8193 45.5662C49.9074 45.6083 49.9954 45.6505 50.0981 45.6786C50.1421 45.6927 50.1861 45.7067 50.2301 45.7208C50.4648 45.7911 50.6996 45.8333 50.949 45.8333C51.1984 45.8333 51.4331 45.7911 51.6678 45.7208C51.8145 45.6786 51.9759 45.6083 52.1226 45.538L52.8268 45.1584L70.3875 35.4435C71.3264 34.9233 71.9132 33.9532 71.9132 32.9128V30.5227H71.8692Z" fill="#3F6DAB"/>
<path d="M69.2726 10.446H68.2017V32.5613L71.8693 30.5368V12.9345C71.8693 11.7254 70.9597 10.7132 69.7567 10.4882C69.61 10.4601 69.434 10.446 69.2726 10.446Z" fill="#3F6DAB"/>
<path d="M33.6229 0H22.4439C21.4317 0 20.6101 0.787321 20.6101 1.75741C20.6101 2.7275 21.4317 3.51483 22.4439 3.51483H33.6229C34.6352 3.51483 35.4567 2.7275 35.4567 1.75741C35.4567 0.787321 34.6352 0 33.6229 0Z" fill="#3F6DAB"/>
<path d="M41.3689 0.702881C40.386 0.702881 39.5791 1.47614 39.5791 2.41812V2.50247C39.5791 3.44445 40.386 4.21771 41.3689 4.21771H45.7261H50.6114H51.8877C52.7239 4.21771 53.4135 3.66939 53.6188 2.93831C53.6335 2.91019 53.6335 2.88207 53.6482 2.8399C53.6629 2.74148 53.6775 2.629 53.6775 2.51653V2.40406C53.6775 2.27752 53.6629 2.16505 53.6335 2.05257C53.5748 1.78545 53.4428 1.53238 53.2814 1.33555C53.2521 1.29337 53.2227 1.26525 53.1787 1.22308L53.12 1.19496L52.8266 1.0403C52.8266 1.0403 52.8266 1.0403 52.812 1.0403C52.7973 1.02624 52.768 1.01219 52.7239 0.998127C52.5479 0.913771 52.2692 0.75912 52.1078 0.731001C52.0931 0.731001 52.0638 0.731001 52.0491 0.731001C51.9904 0.731001 51.9317 0.731001 51.873 0.731001H49.6138L41.3689 0.702881Z" fill="#3F6DAB"/>
</svg>
