<svg width="372" height="234" viewBox="0 0 372 234" fill="none" xmlns="http://www.w3.org/2000/svg">
<path d="M24.566 62.0209C32.1159 58.5582 35.9651 49.4133 33.1634 41.5954C30.3617 33.7774 21.9702 30.2468 14.4203 33.7096C6.87039 37.1723 3.02121 46.3171 5.82289 54.1351C8.62457 61.953 17.0162 65.4836 24.566 62.0209Z" fill="#BAE4FC"/>
<path d="M34.0505 194.526C34.5733 190.872 32.0534 187.371 28.4221 186.706C24.7908 186.041 21.4232 188.464 20.9003 192.118C20.3775 195.771 22.8974 199.273 26.5287 199.938C30.16 200.603 33.5276 198.18 34.0505 194.526Z" fill="#BAE4FC"/>
<path d="M58.7099 114.335C65.4041 114.335 72.0983 114.335 78.7925 114.335C79.7293 114.335 80.6662 114.335 81.6182 114.335C82.3284 114.335 82.3284 113.232 81.6182 113.232C74.924 113.232 68.2299 113.232 61.5357 113.232C60.5988 113.232 59.6619 113.232 58.7099 113.232C57.9997 113.247 57.9997 114.335 58.7099 114.335Z" fill="#2D5284"/>
<path d="M43.3422 121.541C50.0364 121.541 56.7306 121.541 63.4248 121.541C64.3617 121.541 65.2986 121.541 66.2506 121.541C66.9608 121.541 66.9608 120.438 66.2506 120.438C59.5564 120.438 52.8622 120.438 46.168 120.438C45.2311 120.438 44.2942 120.438 43.3422 120.438C42.632 120.438 42.632 121.541 43.3422 121.541Z" fill="#2D5284"/>
<path d="M50.8525 135.38C57.5467 135.38 64.2409 135.38 70.935 135.38C71.8719 135.38 72.8088 135.38 73.7608 135.38C74.471 135.38 74.471 134.277 73.7608 134.277C67.0666 134.277 60.3724 134.277 53.6783 134.277C52.7414 134.277 51.8045 134.277 50.8525 134.277C50.1423 134.277 50.1423 135.38 50.8525 135.38Z" fill="#2D5284"/>
<path d="M35.9375 113.081C30.2406 113.081 25.6016 117.704 25.6016 123.414C25.6016 129.11 35.9375 141.8 35.9375 141.8C35.9375 141.8 46.2735 129.125 46.2735 123.414C46.2735 117.704 41.6495 113.081 35.9375 113.081ZM35.9375 128.128C33.278 128.128 31.1171 125.968 31.1171 123.309C31.1171 120.65 33.278 118.489 35.9375 118.489C38.5971 118.489 40.7579 120.65 40.7579 123.309C40.773 125.968 38.6122 128.128 35.9375 128.128Z" fill="#3F6DAB"/>
<path d="M80.0461 216.261C51.5634 202.173 0.94038 172.457 22.8056 94.0714C42.8318 22.2713 146.988 13.327 185.491 43.5344C223.994 73.7419 251.13 26.5304 312.396 65.2563C373.662 103.982 341.922 188.707 303.404 213.247C264.887 237.803 109.846 230.988 80.0461 216.261Z" fill="#D3EFFF"/>
<path d="M331.632 229.267C339.015 229.267 345.001 223.283 345.001 215.901C345.001 208.519 339.015 202.535 331.632 202.535C324.248 202.535 318.263 208.519 318.263 215.901C318.263 223.283 324.248 229.267 331.632 229.267Z" fill="#BAE4FC"/>
<path d="M60.1302 217.351C60.1302 217.351 41.9063 206.836 39.9419 196.759C38.9899 191.849 45.6387 184.371 63.3791 203.044C63.3791 203.044 55.1738 188.555 61.8529 183.6C68.5319 178.645 78.2483 211.836 78.2483 211.836C78.2483 211.836 74.6217 179.974 85.1087 176.922C95.5958 173.871 93.8127 213.226 93.8127 213.226C93.8127 213.226 99.4189 168.341 107.624 166.997C115.829 165.667 116.011 192.921 115.829 198.451C115.633 203.98 126.241 175.759 133.524 176.907C140.808 178.055 127.843 217.336 127.843 217.336H60.1302V217.351Z" fill="#36C75E"/>
<path d="M190.508 217.391L257.403 217.868C257.403 217.868 283.559 210.814 279.943 207.578C276.327 204.342 256.228 210.774 256.228 210.774C256.228 210.774 266.775 203.072 259.467 202.106C252.16 201.146 242.713 208.26 242.713 208.26C242.713 208.26 249.81 197.831 240.197 198.989C230.57 200.147 225.04 208.802 225.04 208.802C225.04 208.802 232.498 197.096 221.5 197.765C210.501 198.433 208.859 208.935 208.859 208.935C208.859 208.935 205.228 199.399 197.514 200.683C189.8 201.967 180.459 210.562 190.508 217.391Z" fill="#36C75E"/>
<path d="M17.971 218.14C20.827 218.14 23.6679 218.14 26.5239 218.14C34.2154 218.14 41.8918 218.14 49.5833 218.14C60.977 218.14 72.3707 218.14 83.7796 218.14C97.6817 218.14 111.584 218.14 125.501 218.14C140.673 218.14 155.859 218.14 171.031 218.14C186.459 218.14 201.872 218.14 217.301 218.14C231.581 218.14 245.86 218.14 260.156 218.14C272.275 218.14 284.379 218.14 296.498 218.14C305.202 218.14 313.921 218.14 322.625 218.14C326.735 218.14 330.86 218.201 334.97 218.14C335.152 218.14 335.333 218.14 335.514 218.14C336.224 218.14 336.224 217.037 335.514 217.037C332.658 217.037 329.817 217.037 326.961 217.037C319.27 217.037 311.593 217.037 303.902 217.037C292.508 217.037 281.115 217.037 269.706 217.037C255.804 217.037 241.901 217.037 227.984 217.037C212.813 217.037 197.626 217.037 182.455 217.037C167.026 217.037 151.613 217.037 136.185 217.037C121.905 217.037 107.625 217.037 93.3298 217.037C81.2107 217.037 69.1068 217.037 56.9877 217.037C48.2838 217.037 39.5647 217.037 30.8607 217.037C26.7505 217.037 22.6252 216.977 18.515 217.037C18.3337 217.037 18.1524 217.037 17.971 217.037C17.2759 217.037 17.2759 218.14 17.971 218.14Z" fill="#1D375A"/>
<path d="M168.779 225.739C169.957 225.739 171.136 225.739 172.33 225.739C175.549 225.739 178.767 225.739 181.971 225.739C186.7 225.739 191.445 225.739 196.175 225.739C201.978 225.739 207.765 225.739 213.568 225.739C219.915 225.739 226.276 225.739 232.623 225.739C239.015 225.739 245.392 225.739 251.784 225.739C257.768 225.739 263.737 225.739 269.72 225.739C274.768 225.739 279.83 225.739 284.877 225.739C288.503 225.739 292.145 225.739 295.772 225.739C297.495 225.739 299.202 225.785 300.925 225.739C301 225.739 301.076 225.739 301.136 225.739C301.847 225.739 301.847 224.636 301.136 224.636C299.958 224.636 298.779 224.636 297.585 224.636C294.367 224.636 291.148 224.636 287.944 224.636C283.215 224.636 278.47 224.636 273.74 224.636C267.937 224.636 262.15 224.636 256.347 224.636C250.001 224.636 243.639 224.636 237.292 224.636C230.9 224.636 224.523 224.636 218.131 224.636C212.147 224.636 206.179 224.636 200.195 224.636C195.148 224.636 190.085 224.636 185.038 224.636C181.412 224.636 177.77 224.636 174.143 224.636C172.421 224.636 170.713 224.591 168.99 224.636C168.915 224.636 168.839 224.636 168.779 224.636C168.069 224.636 168.069 225.739 168.779 225.739Z" fill="#1D375A"/>
<path d="M68.4265 225.739C70.9651 225.739 73.4887 225.739 76.0273 225.739C82.1019 225.739 88.1766 225.739 94.2663 225.739C101.565 225.739 108.864 225.739 116.162 225.739C122.509 225.739 128.871 225.739 135.217 225.739C137.318 225.739 139.403 225.739 141.503 225.739C142.486 225.739 143.498 225.8 144.48 225.739C144.526 225.739 144.571 225.739 144.601 225.739C145.311 225.739 145.311 224.636 144.601 224.636C142.063 224.636 139.539 224.636 137 224.636C130.926 224.636 124.851 224.636 118.761 224.636C111.463 224.636 104.164 224.636 96.8654 224.636C90.5188 224.636 84.157 224.636 77.8104 224.636C75.71 224.636 73.6247 224.636 71.5242 224.636C70.542 224.636 69.5296 224.576 68.5473 224.636C68.502 224.636 68.4567 224.636 68.4265 224.636C67.7162 224.636 67.7162 225.739 68.4265 225.739Z" fill="#1D375A"/>
<path d="M126.604 233.973C129.143 233.973 131.666 233.973 134.205 233.973C140.279 233.973 146.354 233.973 152.444 233.973C159.742 233.973 167.041 233.973 174.34 233.973C180.686 233.973 187.048 233.973 193.395 233.973C195.495 233.973 197.58 233.973 199.681 233.973C200.663 233.973 201.676 234.034 202.658 233.973C202.703 233.973 202.748 233.973 202.779 233.973C203.489 233.973 203.489 232.87 202.779 232.87C200.24 232.87 197.716 232.87 195.178 232.87C189.103 232.87 183.029 232.87 176.939 232.87C169.64 232.87 162.342 232.87 155.043 232.87C148.696 232.87 142.335 232.87 135.988 232.87C133.887 232.87 131.802 232.87 129.702 232.87C128.719 232.87 127.707 232.81 126.725 232.87C126.68 232.87 126.634 232.87 126.604 232.87C125.894 232.885 125.894 233.973 126.604 233.973Z" fill="#1D375A"/>
<path d="M239.424 108.927L281.766 109.815L298.644 151.556L239.424 152.74V108.927Z" fill="#EAF7FF"/>
<path d="M321.718 153.932C317.018 150.835 302.632 143.734 302.27 142.601L286.207 108.911C285.738 107.4 284.348 106.373 282.761 106.373H239.876H231.414C229.45 106.373 227.863 107.929 227.802 109.893L225.959 184.178C225.914 186.202 227.53 187.864 229.555 187.879L324.347 188.212C326.508 188.227 328.2 186.338 327.943 184.178L324.876 158.177C324.694 156.772 323.546 155.126 321.718 153.932ZM246.026 146.408L243.186 114.909C242.989 112.794 244.651 110.981 246.782 110.981H276.067C277.593 110.981 278.953 111.933 279.467 113.368L290.725 144.868C291.571 147.209 289.818 149.687 287.325 149.687H249.638C247.764 149.702 246.193 148.267 246.026 146.408Z" fill="#F2B411"/>
<path d="M279.15 156.183H246.691V179.011" stroke="#E39918" stroke-width="3" stroke-miterlimit="10" stroke-linecap="round"/>
<path d="M262.059 179.842C262.059 179.842 268.315 171.578 279.15 172.666" stroke="#FFAF24" stroke-width="5.8108" stroke-miterlimit="10"/>
<path d="M250.605 160.428H260.064" stroke="#E39918" stroke-width="3" stroke-miterlimit="10" stroke-linecap="round"/>
<path d="M324.982 159.19H314.268C312.243 159.19 310.611 160.821 310.611 162.846V165.338C310.611 167.363 312.243 168.994 314.268 168.994H326.13L324.982 159.19Z" fill="#EAF7FF"/>
<path d="M328.79 193.801H73.6549C71.7207 193.801 70.1492 192.23 70.1492 190.296C70.1492 188.363 71.7207 186.791 73.6549 186.791H328.79C330.724 186.791 332.295 188.363 332.295 190.296C332.295 192.23 330.724 193.801 328.79 193.801Z" fill="#2D5284"/>
<path d="M301.179 200.015C303.222 188.691 295.698 177.856 284.373 175.812C273.047 173.769 262.209 181.291 260.165 192.614C258.121 203.938 265.645 214.773 276.971 216.817C288.296 218.86 299.135 211.338 301.179 200.015Z" fill="#2D5284"/>
<path d="M293.446 198.385C294.596 191.336 289.811 184.69 282.76 183.54C275.709 182.391 269.062 187.174 267.912 194.224C266.763 201.273 271.547 207.919 278.598 209.069C285.649 210.218 292.297 205.435 293.446 198.385Z" fill="white" stroke="#1D375A" stroke-width="5.8108" stroke-miterlimit="10"/>
<path d="M283.517 196.324C283.517 197.896 282.248 199.165 280.676 199.165C279.105 199.165 277.835 197.896 277.835 196.324C277.835 194.753 279.105 193.484 280.676 193.484C282.248 193.484 283.517 194.753 283.517 196.324Z" fill="#1D375A"/>
<path d="M260.941 196.324C260.987 188.151 266.154 180.582 273.891 177.787C281.719 174.962 290.574 177.379 295.908 183.755C298.84 187.26 300.396 191.762 300.426 196.324C300.426 197.729 302.633 197.744 302.617 196.324C302.572 187.199 296.815 178.92 288.247 175.732C279.694 172.545 269.66 175.249 263.842 182.274C260.563 186.232 258.78 191.188 258.75 196.324C258.735 197.729 260.926 197.729 260.941 196.324Z" fill="#1D375A"/>
<path d="M237.647 73.4027H77.7537V187.08H237.647V73.4027Z" fill="#71CAFF"/>
<path d="M237.564 155.367H77.4629V169.01H237.564V155.367Z" fill="white"/>
<path d="M142.685 199.682C144.543 188.327 136.841 177.616 125.483 175.759C114.126 173.902 103.412 181.602 101.555 192.957C99.6974 204.313 107.399 215.023 118.757 216.881C130.115 218.738 140.828 211.038 142.685 199.682Z" fill="#2D5284"/>
<path d="M134.885 198.386C136.034 191.336 131.25 184.69 124.199 183.541C117.148 182.392 110.501 187.175 109.351 194.224C108.202 201.274 112.986 207.92 120.037 209.069C127.088 210.218 133.736 205.435 134.885 198.386Z" fill="white" stroke="#1D375A" stroke-width="5.8108" stroke-miterlimit="10"/>
<path d="M124.942 196.324C124.942 197.896 123.672 199.165 122.101 199.165C120.529 199.165 119.26 197.896 119.26 196.324C119.26 194.753 120.529 193.484 122.101 193.484C123.672 193.484 124.942 194.753 124.942 196.324Z" fill="#1D375A"/>
<path d="M102.366 196.324C102.411 188.151 107.579 180.582 115.316 177.787C123.144 174.962 131.999 177.379 137.333 183.755C140.264 187.26 141.821 191.762 141.851 196.324C141.851 197.729 144.057 197.744 144.042 196.324C143.997 187.199 138.239 178.92 129.672 175.732C121.119 172.545 111.085 175.249 105.267 182.274C101.988 186.232 100.205 191.188 100.175 196.324C100.175 197.729 102.366 197.729 102.366 196.324Z" fill="#1D375A"/>
<path d="M353.043 90.5248C343.085 90.5248 335.015 98.5924 335.015 108.548C335.015 118.504 353.043 140.637 353.043 140.637C353.043 140.637 371.07 118.504 371.07 108.548C371.07 98.5924 363.001 90.5248 353.043 90.5248ZM353.043 116.782C348.389 116.782 344.611 113.005 344.611 108.352C344.611 103.699 348.389 99.9219 353.043 99.9219C357.697 99.9219 361.475 103.699 361.475 108.352C361.475 113.02 357.697 116.782 353.043 116.782Z" fill="#FFAF24"/>
<path d="M217.028 15.3035C216.847 15.3035 216.681 15.2128 216.575 15.0466C216.424 14.7897 216.5 14.4724 216.756 14.3213C216.772 14.3213 217.044 14.155 217.557 13.8679C217.814 13.7319 218.132 13.8226 218.283 14.0795C218.419 14.3364 218.328 14.6537 218.071 14.8048C217.572 15.0919 217.3 15.243 217.3 15.243C217.225 15.2733 217.119 15.3035 217.028 15.3035Z" fill="#FF9136"/>
<path d="M353.148 81.4751C353.133 81.4751 353.133 81.4751 353.148 81.4751C352.846 81.4751 352.619 81.2333 352.619 80.9463C352.619 80.8405 352.619 80.7197 352.619 80.5988C352.619 80.1154 352.62 79.6168 352.604 79.1182C352.604 78.8312 352.831 78.5895 353.118 78.5744C353.405 78.5593 353.647 78.801 353.662 79.088C353.677 79.5866 353.677 80.1003 353.677 80.5837C353.677 80.7046 353.677 80.8103 353.677 80.9312C353.662 81.2333 353.435 81.4751 353.148 81.4751ZM353.058 77.8039C352.771 77.8039 352.544 77.5773 352.529 77.3053C352.499 76.701 352.468 76.0967 352.423 75.4924C352.408 75.2053 352.62 74.9485 352.907 74.9334C353.194 74.9183 353.451 75.1298 353.466 75.4168C353.511 76.0363 353.541 76.6557 353.571 77.26C353.587 77.547 353.36 77.8039 353.073 77.819C353.073 77.8039 353.073 77.8039 353.058 77.8039ZM352.801 74.1478C352.529 74.1478 352.302 73.9363 352.272 73.6644C352.211 73.06 352.151 72.4557 352.076 71.8514C352.045 71.5644 352.242 71.2924 352.544 71.2622C352.831 71.232 353.103 71.4284 353.133 71.7306C353.209 72.3349 353.269 72.9543 353.33 73.5586C353.36 73.8456 353.148 74.1025 352.846 74.1327C352.831 74.1478 352.816 74.1478 352.801 74.1478ZM352.363 70.5219C352.106 70.5219 351.879 70.3255 351.834 70.0687C351.743 69.4644 351.652 68.8601 351.562 68.2709C351.516 67.9838 351.713 67.7119 352 67.6666C352.287 67.6213 352.559 67.8177 352.604 68.1047C352.695 68.709 352.801 69.3133 352.876 69.9327C352.922 70.2198 352.71 70.4917 352.423 70.537C352.408 70.5219 352.393 70.5219 352.363 70.5219ZM351.773 66.9112C351.516 66.9112 351.305 66.7299 351.259 66.4731C351.154 65.8839 351.033 65.2795 350.912 64.6903C350.851 64.4033 351.033 64.1314 351.32 64.0709C351.607 64.0105 351.879 64.1918 351.939 64.4788C352.06 65.0832 352.181 65.6875 352.287 66.2918C352.347 66.5788 352.151 66.8508 351.864 66.9112C351.849 66.8961 351.819 66.9112 351.773 66.9112ZM351.033 63.3155C350.791 63.3155 350.58 63.1494 350.519 62.9076C350.383 62.3184 350.247 61.7292 350.096 61.14C350.02 60.853 350.202 60.5659 350.474 60.4904C350.761 60.4149 351.048 60.5961 351.124 60.8681C351.275 61.4573 351.426 62.0616 351.562 62.6508C351.622 62.9378 351.456 63.2249 351.169 63.2853C351.124 63.3155 351.078 63.3155 351.033 63.3155ZM350.141 59.7803C349.915 59.7803 349.703 59.6293 349.627 59.3875C349.461 58.7983 349.295 58.2242 349.129 57.635C349.038 57.348 349.204 57.0609 349.476 56.9703C349.763 56.8796 350.051 57.0458 350.141 57.3178C350.323 57.907 350.489 58.4962 350.655 59.0854C350.731 59.3724 350.564 59.6595 350.292 59.735C350.232 59.7652 350.187 59.7803 350.141 59.7803ZM349.084 56.2753C348.857 56.2753 348.66 56.1394 348.585 55.9128C348.404 55.3387 348.207 54.7646 348.011 54.1905C347.92 53.9185 348.056 53.6164 348.328 53.5106C348.6 53.42 348.902 53.5559 349.008 53.8279C349.204 54.402 349.401 54.9912 349.597 55.5653C349.688 55.8372 349.537 56.1394 349.265 56.23C349.189 56.2602 349.144 56.2753 349.084 56.2753ZM347.875 52.8157C347.663 52.8157 347.467 52.6797 347.376 52.4682C347.164 51.9092 346.938 51.3351 346.711 50.7761C346.605 50.5042 346.726 50.202 346.998 50.0812C347.27 49.9754 347.572 50.0963 347.693 50.3682C347.92 50.9423 348.147 51.5164 348.358 52.0905C348.464 52.3624 348.328 52.6646 348.056 52.7703C347.996 52.8006 347.935 52.8157 347.875 52.8157ZM346.515 49.4315C346.303 49.4315 346.122 49.3107 346.031 49.1143C345.789 48.5553 345.548 47.9963 345.291 47.4524C345.17 47.1805 345.291 46.8783 345.548 46.7575C345.82 46.6366 346.122 46.7575 346.243 47.0143C346.5 47.5733 346.741 48.1323 346.983 48.6912C347.104 48.9632 346.968 49.2653 346.711 49.3862C346.651 49.4164 346.575 49.4315 346.515 49.4315ZM344.988 46.0927C344.792 46.0927 344.611 45.987 344.505 45.7906C344.248 45.2467 343.961 44.7028 343.689 44.174C343.553 43.9172 343.659 43.5999 343.916 43.464C344.172 43.328 344.49 43.4337 344.626 43.6906C344.913 44.2345 345.185 44.7934 345.457 45.3373C345.578 45.5942 345.472 45.9114 345.215 46.0474C345.14 46.0776 345.064 46.0927 344.988 46.0927ZM343.311 42.8445C343.13 42.8445 342.948 42.7388 342.843 42.5726C342.556 42.0438 342.253 41.5151 341.951 40.9863C341.8 40.7295 341.891 40.4122 342.148 40.2611C342.404 40.11 342.722 40.2007 342.873 40.4575C343.175 40.9863 343.477 41.5302 343.78 42.0589C343.916 42.3158 343.825 42.633 343.568 42.7841C343.477 42.8294 343.402 42.8445 343.311 42.8445ZM341.483 39.687C341.301 39.687 341.135 39.5964 341.029 39.4302C340.712 38.9165 340.395 38.4029 340.062 37.8892C339.911 37.6475 339.972 37.3151 340.213 37.164C340.455 36.9979 340.788 37.0734 340.939 37.3151C341.271 37.8288 341.604 38.3575 341.921 38.8712C342.072 39.1129 341.996 39.4453 341.74 39.5964C341.664 39.6568 341.573 39.687 341.483 39.687ZM339.488 36.6202C339.322 36.6202 339.156 36.5446 339.05 36.3935C338.702 35.895 338.355 35.3964 338.007 34.913C337.841 34.6713 337.886 34.3389 338.128 34.1727C338.37 34.0065 338.702 34.0518 338.868 34.2936C339.231 34.7921 339.579 35.2907 339.926 35.8043C340.092 36.0461 340.032 36.3784 339.79 36.5446C339.7 36.5899 339.594 36.6202 339.488 36.6202ZM337.357 33.6439C337.191 33.6439 337.04 33.5684 336.934 33.4324C336.572 32.949 336.194 32.4655 335.816 31.9972C335.635 31.7706 335.665 31.4382 335.907 31.2569C336.133 31.0756 336.466 31.1058 336.647 31.3476C337.025 31.831 337.403 32.3145 337.78 32.7979C337.962 33.0245 337.916 33.3569 337.675 33.5382C337.584 33.6137 337.463 33.6439 337.357 33.6439ZM335.076 30.7886C334.924 30.7886 334.773 30.7281 334.668 30.5922C334.275 30.1389 333.882 29.6706 333.489 29.2174C333.292 28.9907 333.323 28.6584 333.534 28.4771C333.761 28.2807 334.093 28.3109 334.275 28.5224C334.683 28.9756 335.091 29.4591 335.468 29.9123C335.65 30.1389 335.62 30.4713 335.408 30.6526C335.317 30.7432 335.196 30.7886 335.076 30.7886ZM332.658 28.039C332.522 28.039 332.371 27.9785 332.265 27.8728C331.857 27.4346 331.434 26.9814 331.011 26.5584C330.814 26.3469 330.814 26.0145 331.026 25.8181C331.237 25.6217 331.57 25.6217 331.766 25.8332C332.189 26.2714 332.612 26.7246 333.036 27.1627C333.232 27.3742 333.217 27.7066 333.005 27.903C332.915 27.9936 332.794 28.039 332.658 28.039ZM330.119 25.4102C329.983 25.4102 329.847 25.3649 329.741 25.2591C329.318 24.8361 328.865 24.4131 328.427 24.0052C328.215 23.8088 328.2 23.4764 328.396 23.2649C328.593 23.0534 328.925 23.0383 329.137 23.2347C329.59 23.6577 330.029 24.0807 330.467 24.5037C330.678 24.7153 330.678 25.0476 330.467 25.244C330.391 25.3649 330.255 25.4102 330.119 25.4102ZM327.445 22.9174C327.324 22.9174 327.188 22.8721 327.097 22.7815C326.644 22.3736 326.19 21.9808 325.722 21.5879C325.495 21.3915 325.465 21.0592 325.661 20.8477C325.858 20.6211 326.19 20.5908 326.402 20.7872C326.87 21.18 327.339 21.588 327.792 21.9959C328.004 22.1923 328.034 22.5246 327.837 22.7361C327.732 22.857 327.596 22.9174 327.445 22.9174ZM324.664 20.5606C324.543 20.5606 324.422 20.5153 324.332 20.4398C323.863 20.0621 323.38 19.6844 322.911 19.3067C322.685 19.1254 322.639 18.793 322.821 18.5664C323.002 18.3398 323.334 18.2945 323.561 18.4758C324.045 18.8534 324.528 19.2311 325.012 19.6239C325.238 19.8052 325.269 20.1376 325.087 20.3642C324.966 20.4851 324.815 20.5606 324.664 20.5606ZM321.763 18.3247C321.657 18.3247 321.551 18.2945 321.445 18.2189C320.962 17.8563 320.463 17.5089 319.965 17.1614C319.723 16.9952 319.662 16.6628 319.829 16.4211C319.995 16.1794 320.327 16.1189 320.569 16.2851C321.068 16.6326 321.566 16.9952 322.065 17.3578C322.307 17.524 322.352 17.8563 322.171 18.0981C322.08 18.2491 321.929 18.3247 321.763 18.3247ZM318.771 16.2247C318.665 16.2247 318.574 16.1945 318.484 16.1341C317.985 15.8017 317.471 15.4693 316.957 15.1369C316.716 14.9859 316.64 14.6535 316.791 14.4118C316.942 14.17 317.275 14.0945 317.517 14.2456C318.03 14.578 318.544 14.9103 319.058 15.2578C319.3 15.424 319.36 15.7564 319.209 15.9981C319.103 16.1341 318.937 16.2247 318.771 16.2247ZM315.688 14.2456C315.597 14.2456 315.492 14.2154 315.416 14.17C314.902 13.8528 314.373 13.5506 313.86 13.2334C313.603 13.0823 313.527 12.765 313.663 12.5082C313.799 12.2514 314.132 12.1758 314.389 12.3118C314.917 12.6139 315.446 12.9312 315.975 13.2485C316.232 13.3995 316.308 13.7319 316.157 13.9736C316.051 14.1549 315.869 14.2456 315.688 14.2456ZM219.431 13.9736C219.234 13.9736 219.053 13.8679 218.962 13.6866C218.826 13.4298 218.932 13.1125 219.189 12.9765C219.718 12.7046 220.262 12.4175 220.836 12.1456C221.093 12.0096 221.41 12.1305 221.546 12.3873C221.682 12.6442 221.562 12.9614 221.305 13.0974C220.746 13.3693 220.202 13.6564 219.688 13.9283C219.597 13.9585 219.506 13.9736 219.431 13.9736ZM312.53 12.4175C312.439 12.4175 312.349 12.4024 312.273 12.3571C311.744 12.0701 311.2 11.7679 310.671 11.496C310.414 11.36 310.309 11.0427 310.445 10.7859C310.581 10.5291 310.898 10.4233 311.155 10.5593C311.699 10.8463 312.243 11.1334 312.772 11.4355C313.029 11.5715 313.119 11.9039 312.983 12.1607C312.893 12.3118 312.711 12.4175 312.53 12.4175ZM222.71 12.3571C222.514 12.3571 222.317 12.2514 222.226 12.055C222.106 11.7981 222.211 11.4809 222.483 11.3449C223.027 11.0881 223.586 10.8312 224.161 10.5744C224.433 10.4535 224.735 10.5744 224.856 10.8463C224.977 11.1183 224.856 11.4204 224.584 11.5413C224.025 11.7981 223.465 12.055 222.937 12.2967C222.861 12.342 222.786 12.3571 222.71 12.3571ZM226.049 10.8463C225.838 10.8463 225.657 10.7255 225.566 10.5291C225.445 10.2571 225.581 9.95499 225.838 9.83412C226.397 9.5924 226.971 9.35067 227.53 9.12406C227.802 9.0183 228.105 9.13916 228.225 9.4111C228.331 9.68304 228.21 9.9852 227.938 10.1061C227.379 10.3327 226.82 10.5744 226.261 10.8161C226.185 10.8312 226.11 10.8463 226.049 10.8463ZM309.296 10.7104C309.221 10.7104 309.13 10.6953 309.054 10.6499C308.51 10.378 307.966 10.1061 307.422 9.84923C307.166 9.72837 307.045 9.41111 307.165 9.13917C307.286 8.88234 307.604 8.76147 307.876 8.88233C308.42 9.13916 308.979 9.41111 309.523 9.68305C309.78 9.81902 309.886 10.1363 309.765 10.3931C309.674 10.6046 309.493 10.7104 309.296 10.7104ZM229.434 9.45643C229.223 9.45643 229.026 9.33557 228.936 9.12406C228.83 8.85212 228.966 8.54996 229.238 8.44421C229.812 8.21759 230.386 7.99098 230.961 7.77947C231.233 7.67372 231.535 7.80969 231.641 8.08162C231.746 8.35356 231.61 8.65572 231.338 8.76147C230.779 8.97298 230.205 9.1996 229.631 9.4111C229.555 9.44132 229.495 9.45643 229.434 9.45643ZM305.987 9.13917C305.911 9.13917 305.836 9.12406 305.775 9.09384C305.231 8.85212 304.672 8.59529 304.113 8.36867C303.841 8.24781 303.72 7.94565 303.826 7.67371C303.947 7.40177 304.249 7.28091 304.521 7.38667C305.08 7.62839 305.654 7.87011 306.214 8.12695C306.486 8.24781 306.591 8.56507 306.485 8.8219C306.38 9.0183 306.198 9.13917 305.987 9.13917ZM232.849 8.17227C232.638 8.17227 232.426 8.0363 232.351 7.82479C232.245 7.55285 232.396 7.2507 232.668 7.14494C233.242 6.93343 233.832 6.73703 234.406 6.54063C234.678 6.44999 234.98 6.60107 235.071 6.873C235.161 7.14494 235.01 7.4471 234.738 7.53774C234.164 7.73415 233.59 7.93055 233.016 8.14205C232.97 8.15716 232.91 8.17227 232.849 8.17227ZM302.632 7.70393C302.572 7.70393 302.496 7.68882 302.436 7.65861C301.877 7.43199 301.302 7.22048 300.743 7.00897C300.471 6.90322 300.335 6.60106 300.441 6.32912C300.547 6.05719 300.849 5.92122 301.121 6.02697C301.695 6.23848 302.27 6.46509 302.844 6.69171C303.116 6.79746 303.252 7.11473 303.131 7.37156C303.04 7.58307 302.829 7.70393 302.632 7.70393ZM236.325 6.97876C236.098 6.97876 235.902 6.84279 235.826 6.61617C235.736 6.34423 235.887 6.04208 236.159 5.95143C236.733 5.77014 237.322 5.57374 237.912 5.39244C238.184 5.3018 238.486 5.46798 238.577 5.73992C238.667 6.01186 238.501 6.31402 238.229 6.40466C237.655 6.58596 237.065 6.76725 236.491 6.94854C236.431 6.97876 236.37 6.97876 236.325 6.97876ZM299.202 6.41977C299.142 6.41977 299.081 6.40466 299.021 6.38956C298.446 6.19315 297.872 5.99675 297.298 5.80035C297.026 5.70971 296.875 5.40755 296.966 5.13561C297.056 4.86367 297.358 4.7126 297.63 4.80324C298.205 4.98453 298.794 5.19604 299.368 5.39244C299.64 5.48309 299.791 5.78524 299.686 6.07229C299.625 6.2838 299.414 6.41977 299.202 6.41977ZM239.816 5.90611C239.589 5.90611 239.377 5.75503 239.302 5.52842C239.226 5.24137 239.377 4.95432 239.665 4.87878C240.254 4.7126 240.843 4.54641 241.433 4.38023C241.72 4.30469 242.007 4.47087 242.082 4.75792C242.158 5.04497 241.992 5.33201 241.705 5.40755C241.13 5.57374 240.541 5.73992 239.952 5.90611C239.921 5.90611 239.861 5.90611 239.816 5.90611ZM295.726 5.28669C295.681 5.28669 295.621 5.28669 295.575 5.25647C295.001 5.07518 294.412 4.909 293.838 4.74281C293.55 4.66727 293.399 4.36512 293.475 4.09318C293.55 3.80613 293.853 3.65505 294.125 3.73059C294.714 3.89678 295.303 4.06296 295.893 4.24426C296.165 4.3349 296.331 4.62195 296.24 4.909C296.165 5.13561 295.953 5.28669 295.726 5.28669ZM243.352 4.93921C243.11 4.93921 242.898 4.78814 242.838 4.54641C242.762 4.25937 242.929 3.97232 243.216 3.89678C243.805 3.7457 244.409 3.59462 244.999 3.45865C245.286 3.39822 245.573 3.56441 245.633 3.85146C245.709 4.1385 245.528 4.42555 245.24 4.48598C244.651 4.62195 244.062 4.77303 243.473 4.92411C243.427 4.93921 243.382 4.93921 243.352 4.93921ZM292.206 4.28958C292.16 4.28958 292.115 4.28958 292.07 4.27447C291.48 4.12339 290.891 3.97232 290.302 3.83635C290.014 3.77592 289.848 3.48887 289.909 3.20182C289.969 2.91477 290.256 2.74859 290.543 2.80902C291.133 2.94499 291.737 3.09607 292.326 3.24715C292.614 3.32268 292.78 3.60973 292.704 3.89678C292.659 4.1385 292.447 4.28958 292.206 4.28958ZM246.903 4.07807C246.661 4.07807 246.449 3.91188 246.389 3.67016C246.328 3.38311 246.51 3.09607 246.797 3.03564C247.401 2.89967 248.006 2.7637 248.595 2.64284C248.882 2.5824 249.154 2.7637 249.215 3.05074C249.275 3.33779 249.094 3.60973 248.807 3.67016C248.217 3.79102 247.628 3.92699 247.024 4.04785C246.978 4.07807 246.933 4.07807 246.903 4.07807ZM288.639 3.45865C288.609 3.45865 288.564 3.45865 288.534 3.44354C287.944 3.32268 287.34 3.20182 286.751 3.08096C286.463 3.02053 286.282 2.74859 286.327 2.46154C286.388 2.17449 286.66 1.9932 286.947 2.03853C287.551 2.15939 288.156 2.28025 288.745 2.40111C289.032 2.46154 289.214 2.74859 289.153 3.03564C289.108 3.27736 288.896 3.45865 288.639 3.45865ZM250.484 3.33779C250.242 3.33779 250.016 3.1565 249.97 2.91477C249.91 2.62773 250.106 2.35579 250.393 2.29536C250.998 2.1745 251.602 2.06874 252.207 1.96299C252.494 1.91766 252.766 2.09896 252.811 2.40111C252.856 2.68816 252.675 2.9601 252.373 3.00542C251.784 3.11118 251.179 3.21693 250.575 3.32268C250.544 3.33779 250.514 3.33779 250.484 3.33779ZM285.058 2.7637C285.028 2.7637 284.998 2.7637 284.967 2.74859C284.363 2.64284 283.774 2.55219 283.169 2.46154C282.882 2.41622 282.686 2.14428 282.731 1.85723C282.776 1.57018 283.048 1.37378 283.335 1.41911C283.94 1.50975 284.544 1.6004 285.149 1.70615C285.436 1.75148 285.632 2.02342 285.587 2.31046C285.527 2.5824 285.3 2.7637 285.058 2.7637ZM254.096 2.71837C253.839 2.71837 253.612 2.53708 253.567 2.26514C253.521 1.97809 253.718 1.70616 254.005 1.66083C254.609 1.57019 255.229 1.47954 255.818 1.38889C256.105 1.34357 256.377 1.55508 256.408 1.84212C256.453 2.12917 256.241 2.40111 255.954 2.43133C255.365 2.50686 254.76 2.59751 254.156 2.70327C254.141 2.71837 254.111 2.71837 254.096 2.71837ZM281.431 2.21982C281.416 2.21982 281.386 2.21982 281.371 2.21982C280.782 2.14428 280.162 2.06874 279.573 2.00831C279.286 1.97809 279.074 1.72126 279.104 1.41911C279.135 1.13206 279.391 0.920551 279.694 0.950766C280.298 1.0112 280.918 1.08674 281.522 1.16228C281.809 1.19249 282.021 1.46443 281.975 1.75148C281.93 2.03852 281.703 2.21982 281.431 2.21982ZM257.722 2.21982C257.465 2.21982 257.224 2.02342 257.193 1.75148C257.163 1.46443 257.36 1.19249 257.662 1.16228C258.266 1.08674 258.886 1.02631 259.49 0.965875C259.777 0.93566 260.034 1.14717 260.064 1.43422C260.095 1.72126 259.883 1.97809 259.596 2.00831C259.007 2.06874 258.387 2.14428 257.783 2.20471C257.752 2.21982 257.737 2.21982 257.722 2.21982ZM261.349 1.84212C261.077 1.84212 260.85 1.63062 260.82 1.35868C260.79 1.07163 261.016 0.814798 261.304 0.784583C261.923 0.739259 262.543 0.678827 263.132 0.648611C263.419 0.633504 263.676 0.845013 263.691 1.14717C263.706 1.43421 263.495 1.69105 263.192 1.70615C262.603 1.75148 261.984 1.7968 261.379 1.84212C261.379 1.84212 261.364 1.84212 261.349 1.84212ZM277.805 1.84212C277.79 1.84212 277.775 1.84212 277.759 1.84212C277.155 1.7968 276.551 1.73637 275.946 1.70615C275.659 1.69105 275.432 1.43421 275.447 1.14717C275.463 0.86012 275.719 0.633504 276.007 0.648611C276.611 0.693935 277.231 0.739259 277.835 0.784583C278.122 0.814798 278.349 1.07163 278.319 1.35868C278.303 1.63062 278.062 1.84212 277.805 1.84212ZM265.006 1.6004C264.719 1.6004 264.492 1.37378 264.477 1.10184C264.462 0.814797 264.688 0.557965 264.975 0.542858C265.595 0.512642 266.215 0.482427 266.819 0.467319C267.106 0.452211 267.348 0.693937 267.363 0.980984C267.378 1.26803 267.136 1.50975 266.849 1.52486C266.245 1.53997 265.64 1.57018 265.036 1.6004C265.021 1.6004 265.006 1.6004 265.006 1.6004ZM274.148 1.6004C274.133 1.6004 274.133 1.6004 274.118 1.6004C273.513 1.57018 272.909 1.55508 272.304 1.53997C272.017 1.52486 271.775 1.28314 271.791 0.99609C271.806 0.709043 272.047 0.46732 272.335 0.482428C272.939 0.497535 273.559 0.527751 274.178 0.557966C274.465 0.573074 274.692 0.814798 274.677 1.11695C274.662 1.37378 274.435 1.6004 274.148 1.6004ZM268.663 1.49465C268.375 1.49465 268.134 1.26803 268.134 0.965875C268.134 0.678828 268.36 0.437104 268.663 0.437104C269.267 0.437104 269.887 0.421996 270.506 0.437104C270.793 0.437104 271.035 0.678828 271.035 0.965875C271.035 1.25292 270.793 1.49465 270.506 1.49465C269.871 1.49465 269.267 1.49465 268.663 1.49465Z" fill="#FF9136"/>
<path d="M353.043 84.1798C353.027 84.1798 353.012 84.1798 352.997 84.1798C352.71 84.1496 352.483 83.8927 352.514 83.6056C352.514 83.6056 352.544 83.2883 352.559 82.7291C352.574 82.442 352.816 82.2154 353.103 82.2305C353.39 82.2456 353.617 82.4874 353.602 82.7745C353.571 83.3638 353.556 83.6811 353.541 83.6962C353.556 83.9682 353.315 84.1798 353.043 84.1798Z" fill="#FF9136"/>
<path d="M139.086 37.935C139.071 37.935 139.04 37.935 139.025 37.935C138.723 37.9048 138.421 37.8594 138.134 37.8292C137.847 37.799 137.635 37.5421 137.665 37.2399C137.695 36.9528 137.952 36.7412 138.255 36.7714C138.557 36.8017 138.859 36.8319 139.161 36.8772C139.448 36.9074 139.66 37.1794 139.63 37.4665C139.584 37.7385 139.358 37.935 139.086 37.935Z" fill="#FF9136"/>
<path d="M40.381 106.373C40.3507 106.373 40.3356 106.373 40.3054 106.373C40.0183 106.343 39.8067 106.071 39.8521 105.784C39.9276 105.194 40.0183 104.575 40.109 103.971C40.1543 103.684 40.4263 103.487 40.7134 103.533C41.0005 103.578 41.197 103.85 41.1516 104.137C41.061 104.741 40.9703 105.345 40.8947 105.935C40.8645 106.176 40.6379 106.373 40.381 106.373ZM40.9401 102.777C40.9098 102.777 40.8796 102.777 40.8494 102.762C40.5623 102.717 40.3659 102.43 40.4263 102.143C40.5321 101.553 40.653 100.949 40.7738 100.345C40.8343 100.058 41.1063 99.8765 41.3934 99.9369C41.6805 99.9973 41.8618 100.269 41.8014 100.556C41.6805 101.146 41.5747 101.75 41.469 102.339C41.4236 102.596 41.197 102.777 40.9401 102.777ZM41.6654 99.2117C41.6201 99.2117 41.5898 99.2117 41.5445 99.1966C41.2574 99.1362 41.0761 98.8491 41.1365 98.5621C41.2725 97.9729 41.4085 97.3686 41.5596 96.7794C41.6352 96.4923 41.9223 96.3261 42.1943 96.3866C42.4814 96.4621 42.6476 96.7492 42.5872 97.0211C42.4512 97.6103 42.3001 98.1995 42.1792 98.7887C42.1187 99.0304 41.9072 99.2117 41.6654 99.2117ZM42.5267 95.6765C42.4814 95.6765 42.4361 95.6765 42.3907 95.6614C42.1036 95.5859 41.9374 95.2988 42.013 95.0118C42.1641 94.4226 42.3303 93.8334 42.4965 93.2442C42.5721 92.9571 42.8743 92.806 43.1463 92.8816C43.4334 92.9571 43.5845 93.2593 43.5089 93.5312C43.3427 94.1053 43.1765 94.6945 43.0254 95.2686C42.965 95.5103 42.7534 95.6765 42.5267 95.6765ZM43.5241 92.1715C43.4787 92.1715 43.4183 92.1715 43.3729 92.1413C43.1009 92.0507 42.9347 91.7636 43.0254 91.4766C43.2067 90.9025 43.3881 90.3133 43.5845 89.7392C43.6752 89.4672 43.9774 89.3162 44.2494 89.4068C44.5214 89.4975 44.6725 89.7996 44.5818 90.0715C44.4005 90.6456 44.204 91.2197 44.0378 91.7938C43.9623 92.0204 43.7507 92.1715 43.5241 92.1715ZM44.6574 88.7118C44.5969 88.7118 44.5365 88.6967 44.476 88.6816C44.2041 88.591 44.0529 88.2888 44.1587 88.0018C44.3552 87.4277 44.5667 86.8536 44.7783 86.2795C44.884 86.0076 45.1863 85.8716 45.4583 85.9622C45.7303 86.068 45.8663 86.3701 45.7756 86.6421C45.564 87.2011 45.3525 87.7752 45.156 88.3341C45.0805 88.5759 44.8689 88.7118 44.6574 88.7118ZM45.9267 85.3126C45.8663 85.3126 45.7907 85.2975 45.7303 85.2824C45.4583 85.1766 45.3223 84.8745 45.428 84.6025C45.6547 84.0435 45.8814 83.4695 46.1232 82.9105C46.2289 82.6385 46.5463 82.5177 46.8183 82.6234C47.0903 82.7443 47.2112 83.0464 47.1054 83.3184C46.8787 83.8774 46.6369 84.4364 46.4254 84.9953C46.3347 85.1917 46.1383 85.3126 45.9267 85.3126ZM47.332 81.9587C47.2565 81.9587 47.1809 81.9436 47.1205 81.9134C46.8485 81.7925 46.7276 81.4752 46.8485 81.2184C47.0903 80.6594 47.3471 80.1004 47.604 79.5566C47.7249 79.2997 48.0423 79.1789 48.3143 79.2997C48.5711 79.4206 48.692 79.7378 48.5711 80.0098C48.3142 80.5537 48.0574 81.0975 47.8156 81.6565C47.74 81.8529 47.5436 81.9587 47.332 81.9587ZM48.8885 78.6803C48.8129 78.6803 48.7222 78.6652 48.6467 78.6199C48.3898 78.4839 48.284 78.1666 48.4049 77.9098C48.6769 77.3659 48.9489 76.822 49.236 76.2782C49.372 76.0213 49.6894 75.9156 49.9462 76.0516C50.2031 76.1875 50.3089 76.5048 50.1729 76.7616C49.9009 77.2904 49.6138 77.8343 49.3569 78.363C49.2662 78.5745 49.0849 78.6803 48.8885 78.6803ZM50.5809 75.4623C50.4902 75.4623 50.3996 75.4472 50.324 75.4019C50.0671 75.266 49.9765 74.9336 50.1125 74.6768C50.4147 74.148 50.7169 73.6041 51.0191 73.0904C51.1702 72.8336 51.4876 72.7581 51.7445 72.894C52.0013 73.0451 52.0769 73.3624 51.9409 73.6192C51.6387 74.1329 51.3365 74.6616 51.0493 75.1904C50.9436 75.3566 50.7622 75.4623 50.5809 75.4623ZM52.4093 72.3199C52.3187 72.3199 52.2129 72.2897 52.1373 72.2444C51.8956 72.0933 51.8049 71.761 51.9711 71.5192C52.2885 71.0056 52.6209 70.4768 52.9533 69.9782C53.1044 69.7365 53.4369 69.661 53.6787 69.8272C53.9204 69.9782 53.996 70.3106 53.8298 70.5523C53.5125 71.0509 53.18 71.5646 52.8627 72.0782C52.7569 72.2293 52.5907 72.3199 52.4093 72.3199ZM54.3738 69.2682C54.268 69.2682 54.1622 69.238 54.0716 69.1775C53.8298 69.0113 53.7693 68.679 53.9356 68.4372C54.2831 67.9387 54.6307 67.425 54.9782 66.9416C55.1444 66.6999 55.4769 66.6545 55.7187 66.8207C55.9604 66.9869 56.0058 67.3193 55.8395 67.561C55.492 68.0444 55.1444 68.543 54.812 69.0416C54.7213 69.1926 54.5551 69.2682 54.3738 69.2682ZM56.4893 66.3222C56.3835 66.3222 56.2627 66.292 56.172 66.2164C55.9453 66.0351 55.8849 65.7028 56.0662 65.4761C56.4289 64.9927 56.8066 64.5092 57.1844 64.0258C57.3658 63.7992 57.6982 63.7538 57.9249 63.9351C58.1515 64.1164 58.1969 64.4488 58.0155 64.6754C57.6378 65.1438 57.2751 65.6272 56.9124 66.0955C56.8218 66.2466 56.6555 66.3222 56.4893 66.3222ZM58.756 63.4668C58.6351 63.4668 58.5142 63.4215 58.4235 63.3459C58.1969 63.1647 58.1666 62.8323 58.3631 62.6057C58.756 62.1373 59.1489 61.669 59.5569 61.2157C59.7533 60.9891 60.0857 60.974 60.2973 61.1704C60.524 61.3668 60.5391 61.6992 60.3426 61.9107C59.9497 62.3639 59.5569 62.8172 59.164 63.2855C59.0582 63.4064 58.9071 63.4668 58.756 63.4668ZM61.1586 60.7474C61.0226 60.7474 60.9017 60.7021 60.796 60.6114C60.5844 60.415 60.5693 60.0827 60.7657 59.8712C61.1737 59.4179 61.5968 58.9798 62.02 58.5417C62.2164 58.3302 62.564 58.3302 62.7755 58.5266C62.9871 58.723 62.9871 59.0705 62.7906 59.2669C62.3675 59.6899 61.9595 60.128 61.5515 60.5812C61.4306 60.687 61.2946 60.7474 61.1586 60.7474ZM63.6822 58.1489C63.5462 58.1489 63.4102 58.0885 63.3044 57.9827C63.108 57.7712 63.108 57.4388 63.3195 57.2424C63.7577 56.8194 64.1959 56.3964 64.6493 55.9885C64.8608 55.7921 65.1933 55.8072 65.3897 56.0187C65.5862 56.2302 65.5711 56.5626 65.3595 56.759C64.9213 57.1669 64.4831 57.5748 64.0599 57.9978C63.9542 58.0884 63.8182 58.1489 63.6822 58.1489ZM66.3568 55.6863C66.2057 55.6863 66.0697 55.6259 65.9639 55.505C65.7675 55.2784 65.7977 54.946 66.0093 54.7647C66.4626 54.3719 66.931 53.964 67.3995 53.5712C67.6262 53.3899 67.9586 53.4202 68.1399 53.6468C68.3213 53.8734 68.291 54.2058 68.0644 54.387C67.611 54.7647 67.1426 55.1575 66.6893 55.5503C66.5986 55.641 66.4777 55.6863 66.3568 55.6863ZM69.1524 53.3597C69.0013 53.3597 68.835 53.2842 68.7293 53.1633C68.5479 52.9367 68.5933 52.6043 68.8199 52.423C69.3035 52.0453 69.787 51.6677 70.2706 51.3051C70.4972 51.1238 70.8297 51.1842 71.011 51.4108C71.1924 51.6374 71.1319 51.9698 70.9052 52.1511C70.4217 52.5137 69.9381 52.8763 69.4697 53.254C69.379 53.3144 69.2581 53.3597 69.1524 53.3597ZM72.0537 51.1842C71.8875 51.1842 71.7212 51.1087 71.6155 50.9576C71.4492 50.7159 71.5097 50.3835 71.7364 50.2173C72.235 49.8698 72.7337 49.5224 73.2475 49.19C73.4892 49.0238 73.8217 49.0993 73.9879 49.3411C74.1541 49.5828 74.0786 49.9152 73.8368 50.0813C73.3381 50.4137 72.8395 50.7612 72.3559 51.0936C72.2652 51.154 72.1595 51.1842 72.0537 51.1842ZM75.0759 49.1749C74.8946 49.1749 74.7283 49.0842 74.6226 48.9332C74.4715 48.6914 74.547 48.3591 74.7888 48.208C75.3026 47.8907 75.8163 47.5584 76.3452 47.2562C76.6021 47.1051 76.9194 47.1958 77.0705 47.4375C77.2217 47.6943 77.131 48.0116 76.8892 48.1627C76.3754 48.4648 75.8465 48.7821 75.3479 49.0993C75.2723 49.1447 75.1666 49.1749 75.0759 49.1749ZM78.1888 47.3166C78.0074 47.3166 77.8261 47.226 77.7203 47.0447C77.5843 46.7879 77.675 46.4706 77.9168 46.3195C78.4456 46.0174 78.9897 45.7303 79.5185 45.4433C79.7754 45.3073 80.0927 45.4131 80.2287 45.6699C80.3647 45.9267 80.259 46.244 80.0021 46.3799C79.4732 46.667 78.9443 46.954 78.4154 47.2411C78.3701 47.3015 78.2794 47.3166 78.1888 47.3166ZM81.4074 45.6246C81.211 45.6246 81.0296 45.5188 80.939 45.3375C80.803 45.0807 80.9087 44.7634 81.1807 44.6274C81.7247 44.3555 82.2687 44.0987 82.8278 43.8418C83.0998 43.721 83.4021 43.8267 83.523 44.0987C83.6438 44.3706 83.5381 44.6728 83.2661 44.7936C82.7221 45.0505 82.1781 45.3073 81.6492 45.5792C81.5585 45.6095 81.483 45.6246 81.4074 45.6246ZM84.7016 44.0987C84.4901 44.0987 84.3087 43.9778 84.2181 43.7814C84.0972 43.5095 84.2181 43.2073 84.4901 43.0865C85.0492 42.8447 85.6083 42.603 86.1674 42.3764C86.4394 42.2706 86.7416 42.3915 86.8625 42.6634C86.9683 42.9354 86.8474 43.2375 86.5754 43.3584C86.0163 43.585 85.4572 43.8267 84.9132 44.0534C84.8376 44.0836 84.7621 44.0987 84.7016 44.0987ZM88.0563 42.7239C87.8447 42.7239 87.6483 42.5879 87.5576 42.3764C87.4518 42.1045 87.5878 41.8023 87.8598 41.6965C88.4189 41.485 88.9931 41.2735 89.5825 41.062C89.8545 40.9714 90.1567 41.1073 90.2625 41.3793C90.3531 41.6512 90.2171 41.9534 89.9451 42.0591C89.3709 42.2555 88.8118 42.467 88.2527 42.6785C88.1923 42.7088 88.1167 42.7239 88.0563 42.7239ZM91.4865 41.5153C91.2598 41.5153 91.0634 41.3793 90.9878 41.1527C90.8971 40.8807 91.0482 40.5786 91.3202 40.4879C91.8945 40.2915 92.4838 40.1102 93.058 39.944C93.3451 39.8534 93.6322 40.0196 93.7229 40.2915C93.8136 40.5635 93.6473 40.8656 93.3753 40.9563C92.8011 41.1225 92.2269 41.3189 91.6527 41.5001C91.5922 41.5001 91.5318 41.5153 91.4865 41.5153ZM94.962 40.4577C94.7353 40.4577 94.5238 40.3066 94.4482 40.0649C94.3727 39.7779 94.5389 39.4908 94.8109 39.4153C95.4002 39.2491 95.9896 39.098 96.5789 38.9469C96.866 38.8714 97.1531 39.0376 97.2287 39.3246C97.3042 39.6117 97.138 39.8987 96.8509 39.9743C96.2767 40.1253 95.6873 40.2764 95.1131 40.4426C95.0527 40.4577 95.0073 40.4577 94.962 40.4577ZM98.4678 39.5512C98.226 39.5512 98.0144 39.3851 97.954 39.1433C97.8936 38.8563 98.0598 38.5692 98.3469 38.5088C98.9362 38.3728 99.5406 38.2369 100.13 38.116C100.417 38.0556 100.704 38.2369 100.765 38.5239C100.825 38.811 100.644 39.098 100.357 39.1584C99.7673 39.2793 99.178 39.4153 98.5886 39.5512C98.5433 39.5512 98.5131 39.5512 98.4678 39.5512ZM102.019 38.7959C101.777 38.7959 101.55 38.6146 101.505 38.3728C101.445 38.0858 101.641 37.8139 101.928 37.7534C102.518 37.6326 103.122 37.5268 103.726 37.4211C104.014 37.3757 104.286 37.557 104.331 37.8592C104.376 38.1462 104.195 38.4182 103.893 38.4635C103.303 38.5692 102.699 38.675 102.125 38.7959C102.079 38.7959 102.049 38.7959 102.019 38.7959ZM105.6 38.1764C105.343 38.1764 105.117 37.9951 105.071 37.7232C105.026 37.4362 105.222 37.1642 105.51 37.1189C106.099 37.0283 106.718 36.9376 107.323 36.8621C107.61 36.8167 107.882 37.0283 107.912 37.3153C107.957 37.6023 107.746 37.8743 107.459 37.9045C106.869 37.98 106.265 38.0707 105.676 38.1613C105.646 38.1764 105.63 38.1764 105.6 38.1764ZM109.197 37.693C108.925 37.693 108.698 37.4966 108.668 37.2247C108.637 36.9376 108.834 36.6657 109.136 36.6355C109.741 36.5599 110.345 36.4995 110.949 36.439C111.237 36.4088 111.493 36.6203 111.524 36.9074C111.554 37.1944 111.342 37.4513 111.055 37.4815C110.451 37.5419 109.846 37.6023 109.257 37.6779C109.242 37.693 109.212 37.693 109.197 37.693ZM136.381 37.6477C136.366 37.6477 136.351 37.6477 136.336 37.6477C135.732 37.5872 135.127 37.5268 134.538 37.4815C134.251 37.4513 134.024 37.1944 134.054 36.9074C134.084 36.6203 134.341 36.3937 134.628 36.4239C135.218 36.4693 135.837 36.5297 136.442 36.5901C136.729 36.6203 136.94 36.8772 136.91 37.1642C136.88 37.4513 136.653 37.6477 136.381 37.6477ZM132.77 37.3304C132.755 37.3304 132.74 37.3304 132.724 37.3304C132.135 37.2851 131.516 37.2398 130.911 37.2095C130.624 37.1944 130.397 36.9376 130.412 36.6506C130.428 36.3635 130.684 36.1369 130.972 36.152C131.576 36.1973 132.196 36.2275 132.785 36.2729C133.072 36.288 133.299 36.5448 133.268 36.847C133.268 37.1189 133.042 37.3304 132.77 37.3304ZM112.808 37.3304C112.536 37.3304 112.309 37.1189 112.279 36.847C112.249 36.5599 112.476 36.3031 112.763 36.2729C113.367 36.2275 113.972 36.1822 114.576 36.1369C114.863 36.1218 115.12 36.3333 115.135 36.6355C115.15 36.9225 114.939 37.1793 114.637 37.1944C114.032 37.2398 113.428 37.2851 112.838 37.3304C112.838 37.3304 112.823 37.3304 112.808 37.3304ZM129.143 37.1038C129.128 37.1038 129.128 37.1038 129.113 37.1038C128.508 37.0736 127.904 37.0434 127.3 37.0283C127.013 37.0131 126.786 36.7714 126.786 36.4844C126.801 36.1973 127.043 35.9707 127.33 35.9707C127.934 35.9858 128.554 36.016 129.158 36.0463C129.445 36.0614 129.672 36.3031 129.657 36.6052C129.657 36.8923 129.415 37.1038 129.143 37.1038ZM116.435 37.0887C116.148 37.0887 115.921 36.8621 115.906 36.5901C115.891 36.3031 116.117 36.0463 116.405 36.0311C117.009 36.0009 117.629 35.9707 118.233 35.9556C118.52 35.9556 118.777 36.1671 118.777 36.4693C118.792 36.7563 118.565 37.0131 118.263 37.0131C117.659 37.0283 117.054 37.0585 116.465 37.0887C116.45 37.0887 116.435 37.0887 116.435 37.0887ZM125.501 36.9678C124.882 36.9527 124.277 36.9376 123.673 36.9376C123.386 36.9376 123.144 36.6959 123.144 36.4088C123.144 36.1218 123.386 35.8801 123.673 35.8801C124.277 35.8801 124.882 35.8952 125.501 35.9103C125.789 35.9103 126.03 36.152 126.015 36.4542C126.03 36.7412 125.789 36.9678 125.501 36.9678ZM120.061 36.9678C119.774 36.9678 119.533 36.7412 119.533 36.4542C119.533 36.1671 119.759 35.9254 120.046 35.9103C120.651 35.8952 121.255 35.8952 121.875 35.8952C122.162 35.8952 122.404 36.1369 122.404 36.4239C122.404 36.711 122.162 36.9527 121.875 36.9527C121.27 36.9376 120.666 36.9527 120.061 36.9678Z" fill="#FF9136"/>
<path d="M40.0936 109.077C40.0785 109.077 40.0785 109.077 40.0633 109.077C39.7762 109.062 39.5496 108.805 39.5647 108.518C39.5647 108.503 39.5798 108.186 39.6402 107.596C39.6705 107.309 39.9273 107.098 40.2145 107.128C40.5016 107.158 40.7131 107.415 40.6829 107.702C40.6225 108.276 40.6073 108.579 40.6073 108.579C40.6073 108.851 40.3807 109.077 40.0936 109.077Z" fill="#FF9136"/>
</svg>
